<svg xmlns="http://www.w3.org/2000/svg" width="60" height="60" viewBox="0 0 60 60" fill="none"><path d="M14.6195 45.3805H44.9294V15.0707H14.6195V45.3805ZM45.9228 47.3684H13.625C13.0762 47.3684 12.6316 46.9238 12.6316 46.375V14.0772C12.6316 13.5285 13.0762 13.0827 13.625 13.0827H45.9228C46.4727 13.0827 46.9173 13.5285 46.9173 14.0772V46.375C46.9173 46.9238 46.4727 47.3684 45.9228 47.3684Z" fill="white"></path><path d="M21.2548 19.5791C20.1024 19.5791 19.1641 20.5006 19.1641 21.6324V38.3665C19.1641 39.4983 20.1024 40.4198 21.2548 40.4198H38.294C39.4464 40.4198 40.3847 39.4983 40.3847 38.3665V21.6324C40.3847 20.5006 39.4464 19.5791 38.294 19.5791H21.2548ZM38.294 42.406H21.2548C18.9876 42.406 17.1428 40.5932 17.1428 38.3665V21.6324C17.1428 19.4057 18.9876 17.594 21.2548 17.594H38.294C40.5612 17.594 42.406 19.4057 42.406 21.6324V38.3665C42.406 40.5932 40.5612 42.406 38.294 42.406Z" fill="#FF0E12"></path><path d="M24.424 36.5414C24.177 36.5414 23.93 36.4444 23.7418 36.2483C23.3642 35.8573 23.3642 35.225 23.7418 34.834L34.4423 23.7511C34.8198 23.3612 35.4303 23.3612 35.8078 23.7511C36.1843 24.1422 36.1843 24.7755 35.8078 25.1655L25.1074 36.2483C24.918 36.4444 24.671 36.5414 24.424 36.5414Z" fill="white"></path><path d="M29.8632 14.8872C29.3158 14.8872 28.8722 14.4419 28.8722 13.8922V4.43963C28.8722 4.17488 28.9761 3.92247 29.1627 3.73513L32.5928 0.291114C32.9793 -0.0970381 33.6073 -0.0970381 33.995 0.291114C34.3827 0.680389 34.3827 1.30973 33.995 1.69901L30.8554 4.85135V13.8922C30.8554 14.4419 30.4118 14.8872 29.8632 14.8872Z" fill="white"></path><path d="M29.6846 14.8872C29.1371 14.8872 28.6935 14.4419 28.6935 13.8922V4.85135L25.554 1.69901C25.1663 1.30973 25.1663 0.680389 25.554 0.291114C25.9417 -0.0970381 26.5685 -0.0970381 26.9562 0.291114L30.3862 3.73513C30.5717 3.92247 30.6767 4.17488 30.6767 4.43963V13.8922C30.6767 14.4419 30.2332 14.8872 29.6846 14.8872Z" fill="white"></path><path d="M35.3105 14.8872C34.7444 14.8872 34.2858 14.4509 34.2858 13.9124V8.21189C34.2858 7.95362 34.3932 7.70525 34.5861 7.52282L38.3998 3.89502C38.8007 3.51367 39.4489 3.51367 39.8498 3.89502C40.2507 4.27528 40.2507 4.89291 39.8498 5.27427L36.3364 8.61632V13.9124C36.3364 14.4509 35.8778 14.8872 35.3105 14.8872Z" fill="white"></path><path d="M40.376 14.8872C39.7537 14.8872 39.2482 14.4501 39.2482 13.9105V10.0004C39.2482 9.46081 39.7537 9.02255 40.376 9.02255C40.9983 9.02255 41.5038 9.46081 41.5038 10.0004V13.9105C41.5038 14.4501 40.9983 14.8872 40.376 14.8872Z" fill="white"></path><path d="M24.2372 14.8872C23.6711 14.8872 23.2124 14.4509 23.2124 13.9124V8.61632L19.6991 5.27427C19.2982 4.89291 19.2982 4.27528 19.6991 3.89502C20.0988 3.51367 20.7481 3.51367 21.149 3.89502L24.9627 7.52282C25.1545 7.70525 25.2631 7.95362 25.2631 8.21189V13.9124C25.2631 14.4509 24.8044 14.8872 24.2372 14.8872Z" fill="white"></path><path d="M19.1736 14.8872C18.5497 14.8872 18.0452 14.4501 18.0452 13.9105V10.0004C18.0452 9.46081 18.5497 9.02255 19.1736 9.02255C19.7963 9.02255 20.3008 9.46081 20.3008 10.0004V13.9105C20.3008 14.4501 19.7963 14.8872 19.1736 14.8872Z" fill="white"></path><path d="M59.0036 34.7368C58.749 34.7368 58.4943 34.6396 58.3003 34.4463L55.1481 31.3066H46.1078C45.5581 31.3066 45.1128 30.863 45.1128 30.3155C45.1128 29.768 45.5581 29.3233 46.1078 29.3233H55.5609C55.8245 29.3233 56.078 29.4283 56.2643 29.6138L59.7081 33.0441C60.0973 33.4307 60.0973 34.0586 59.7081 34.4463C59.514 34.6396 59.2582 34.7368 59.0036 34.7368Z" fill="white"></path><path d="M55.5609 31.1278H46.1078C45.5581 31.1278 45.1128 30.6842 45.1128 30.1366C45.1128 29.5891 45.5581 29.1443 46.1078 29.1443H55.1481L58.3003 26.0043C58.6895 25.6176 59.3188 25.6176 59.7081 26.0043C60.0973 26.392 60.0973 27.02 59.7081 27.4067L56.2643 30.8373C56.078 31.0239 55.8245 31.1278 55.5609 31.1278Z" fill="white"></path><path d="M55.4159 40.1504C55.1664 40.1504 54.9159 40.0576 54.7257 39.8721L51.3837 36.6295H46.0876C45.5491 36.6295 45.1128 36.2062 45.1128 35.6837C45.1128 35.1602 45.5491 34.7368 46.0876 34.7368H51.787C52.0464 34.7368 52.2947 34.8371 52.4772 35.0141L56.105 38.535C56.4863 38.9039 56.4863 39.5031 56.105 39.8721C55.9148 40.0576 55.6654 40.1504 55.4159 40.1504Z" fill="white"></path><path d="M49.9996 41.9549H46.0895C45.5499 41.9549 45.1128 41.4494 45.1128 40.8271C45.1128 40.2047 45.5499 39.6992 46.0895 39.6992H49.9996C50.5392 39.6992 50.9775 40.2047 50.9775 40.8271C50.9775 41.4494 50.5392 41.9549 49.9996 41.9549Z" fill="white"></path><path d="M51.787 25.7143H46.0876C45.5491 25.7143 45.1128 25.2556 45.1128 24.6895C45.1128 24.1234 45.5491 23.6636 46.0876 23.6636H51.3837L54.7257 20.1503C55.1071 19.7494 55.7236 19.7494 56.105 20.1503C56.4863 20.5512 56.4863 21.2005 56.105 21.6002L52.4772 25.4139C52.2947 25.6068 52.0464 25.7143 51.787 25.7143Z" fill="white"></path><path d="M49.9996 20.7519H46.0895C45.5499 20.7519 45.1128 20.2461 45.1128 19.6234C45.1128 19.0007 45.5499 18.4962 46.0895 18.4962H49.9996C50.5392 18.4962 50.9775 19.0007 50.9775 19.6234C50.9775 20.2461 50.5392 20.7519 49.9996 20.7519Z" fill="white"></path><path d="M26.2556 60C26.0009 60 25.7472 59.9035 25.554 59.7083C25.1663 59.3202 25.1663 58.6898 25.554 58.3005L28.6935 55.1483V46.1089C28.6935 45.5581 29.1371 45.1128 29.6846 45.1128C30.2332 45.1128 30.6767 45.5581 30.6767 46.1089V55.5611C30.6767 55.8247 30.5717 56.0782 30.3862 56.2645L26.9562 59.7083C26.7629 59.9035 26.5092 60 26.2556 60Z" fill="white"></path><path d="M33.2933 60C33.0397 60 32.786 59.9035 32.5928 59.7083L29.1627 56.2645C28.9761 56.0782 28.8722 55.8247 28.8722 55.5611V46.1089C28.8722 45.5581 29.3158 45.1128 29.8632 45.1128C30.4118 45.1128 30.8554 45.5581 30.8554 46.1089V55.1483L33.995 58.3005C34.3827 58.6898 34.3827 59.3202 33.995 59.7083C33.8017 59.9035 33.5469 60 33.2933 60Z" fill="white"></path><path d="M20.4235 56.8421C20.1612 56.8421 19.899 56.7427 19.6991 56.5438C19.2982 56.1484 19.2982 55.5061 19.6991 55.1107L23.2124 51.634V46.1277C23.2124 45.5665 23.6711 45.1128 24.2372 45.1128C24.8044 45.1128 25.2631 45.5665 25.2631 46.1277V52.0546C25.2631 52.3232 25.1545 52.5815 24.9627 52.7712L21.149 56.5438C20.9492 56.7427 20.6869 56.8421 20.4235 56.8421Z" fill="white"></path><path d="M19.1736 51.4286C18.5497 51.4286 18.0452 50.9578 18.0452 50.3756V46.1658C18.0452 45.5836 18.5497 45.1128 19.1736 45.1128C19.7963 45.1128 20.3008 45.5836 20.3008 46.1658V50.3756C20.3008 50.9578 19.7963 51.4286 19.1736 51.4286Z" fill="white"></path><path d="M39.1254 56.8421C38.8631 56.8421 38.5997 56.7427 38.3998 56.5438L34.5861 52.7712C34.3932 52.5815 34.2858 52.3232 34.2858 52.0546V46.1277C34.2858 45.5665 34.7444 45.1128 35.3105 45.1128C35.8778 45.1128 36.3364 45.5665 36.3364 46.1277V51.634L39.8498 55.1107C40.2507 55.5061 40.2507 56.1484 39.8498 56.5438C39.6499 56.7427 39.3876 56.8421 39.1254 56.8421Z" fill="white"></path><path d="M40.376 51.4286C39.7537 51.4286 39.2482 50.9578 39.2482 50.3756V46.1658C39.2482 45.5836 39.7537 45.1128 40.376 45.1128C40.9983 45.1128 41.5038 45.5836 41.5038 46.1658V50.3756C41.5038 50.9578 40.9983 51.4286 40.376 51.4286Z" fill="white"></path><path d="M13.4702 31.1278H4.30458C4.04896 31.1278 3.80312 31.0239 3.62255 30.8373L0.283093 27.4067C-0.0943642 27.02 -0.0943642 26.392 0.283093 26.0043C0.659462 25.6176 1.27079 25.6176 1.64825 26.0043L4.70488 29.1443H13.4702C14.0042 29.1443 14.4361 29.5891 14.4361 30.1366C14.4361 30.6842 14.0042 31.1278 13.4702 31.1278Z" fill="white"></path><path d="M0.965126 34.7368C0.718201 34.7368 0.471277 34.6396 0.283093 34.4463C-0.0943642 34.0586 -0.0943642 33.4307 0.283093 33.0441L3.62255 29.6138C3.80312 29.4283 4.04896 29.3233 4.30458 29.3233H13.4702C14.0042 29.3233 14.4361 29.768 14.4361 30.3155C14.4361 30.863 14.0042 31.3066 13.4702 31.3066H4.70488L1.64825 34.4463C1.45897 34.6396 1.21205 34.7368 0.965126 34.7368Z" fill="white"></path><path d="M13.4601 25.7143H7.76072C7.50245 25.7143 7.25408 25.6068 7.07164 25.4139L3.44385 21.6002C3.0625 21.2005 3.0625 20.5512 3.44385 20.1503C3.8241 19.7494 4.44174 19.7494 4.82309 20.1503L8.16515 23.6636H13.4601C13.9997 23.6636 14.436 24.1234 14.436 24.6895C14.436 25.2556 13.9997 25.7143 13.4601 25.7143Z" fill="white"></path><path d="M13.4583 20.7519H9.54922C9.00856 20.7519 8.57141 20.2461 8.57141 19.6234C8.57141 19.0007 9.00856 18.4962 9.54922 18.4962H13.4583C13.9989 18.4962 14.4361 19.0007 14.4361 19.6234C14.4361 20.2461 13.9989 20.7519 13.4583 20.7519Z" fill="white"></path><path d="M4.13292 40.1504C3.88345 40.1504 3.63398 40.0576 3.44385 39.8721C3.0625 39.5031 3.0625 38.9039 3.44385 38.535L7.07164 35.0141C7.25408 34.8371 7.50245 34.7368 7.76072 34.7368H13.4601C13.9997 34.7368 14.436 35.1602 14.436 35.6837C14.436 36.2062 13.9997 36.6295 13.4601 36.6295H8.16515L4.82309 39.8721C4.63187 40.0576 4.3824 40.1504 4.13292 40.1504Z" fill="white"></path><path d="M13.4583 41.9549H9.54922C9.00856 41.9549 8.57141 41.4494 8.57141 40.8271C8.57141 40.2047 9.00856 39.6992 9.54922 39.6992H13.4583C13.9989 39.6992 14.4361 40.2047 14.4361 40.8271C14.4361 41.4494 13.9989 41.9549 13.4583 41.9549Z" fill="white"></path></svg>