<svg preserveAspectRatio="none" width="100%" height="100%" overflow="visible" style="display: block;" viewBox="0 0 1594 1404.91" fill="none" xmlns="http://www.w3.org/2000/svg">
<g id="Frame 1321315480" opacity="0.1">
<path id="Vector" d="M226.532 1064.79L1047.08 1386.29C1134.25 1420.45 1229.06 1405.89 1300.69 1347.35C1372.31 1288.81 1405.79 1198.51 1390.23 1105.81L1243.83 233.271C1228.29 140.577 1166.94 64.832 1079.77 30.6771C992.596 -3.47778 897.784 11.081 826.172 69.6257L152.012 620.658C80.3846 679.197 46.9085 769.495 62.4672 862.194C78.0258 954.894 139.346 1030.63 226.532 1064.79ZM1241.46 233.633L1239.08 233.994L1385.48 1106.53C1400.75 1197.5 1367.91 1286.1 1297.62 1343.54C1227.33 1400.99 1134.3 1415.28 1048.76 1381.76L228.21 1060.26C142.669 1026.75 82.4873 952.427 67.2209 861.456C51.9544 770.486 84.8032 681.88 155.087 624.447L829.248 73.4144C899.537 15.9661 992.568 1.67859 1078.11 35.1949C1163.65 68.7112 1223.83 143.03 1239.1 234L1241.46 233.633Z" fill="var(--fill-0, white)" stroke="url(#paint0_linear_0_4)" stroke-width="0.89627"/>
<g id="Vector_2">
<path d="M354.833 1061.93C360.925 1064.32 367.146 1066.45 373.48 1068.32L1133.3 1292.18C1210.84 1315.03 1293.02 1294.4 1353.13 1237C1418.48 1174.58 1445.03 1083.86 1424.13 994.365L1235.18 185.52C1215.08 99.5176 1154.84 33.9486 1074 10.132C993.172 -13.6845 908.678 9.23433 847.97 71.4322L277.111 656.408C213.935 721.142 190.527 812.765 214.464 901.498C234.69 976.432 286.465 1035.13 354.833 1061.93ZM1091.24 21.138C1160.98 48.4627 1212.39 109.022 1230.5 186.56L1419.46 995.39C1439.96 1083.2 1413.92 1172.19 1349.8 1233.43C1290.93 1289.65 1210.48 1309.87 1134.59 1287.51L374.768 1063.66C298.897 1041.29 240.694 980.246 219.129 900.316C195.641 813.255 218.611 723.365 280.585 659.861L851.428 74.8786C910.888 13.9428 993.614 -8.51238 1072.72 14.7964C1079.02 16.6546 1085.2 18.7685 1091.24 21.138Z" fill="var(--fill-0, white)"/>
<path d="M354.833 1061.93L354.522 1062.77L354.521 1062.77L354.833 1061.93ZM373.48 1068.32L373.242 1069.19L373.242 1069.19L373.48 1068.32ZM1133.3 1292.18L1133.54 1291.31L1133.54 1291.31L1133.3 1292.18ZM1353.13 1237L1352.51 1236.34L1352.51 1236.34L1353.13 1237ZM1424.13 994.365L1425 994.169L1425 994.169L1424.13 994.365ZM1235.18 185.52L1236.04 185.324L1236.04 185.324L1235.18 185.52ZM847.97 71.4322L847.332 70.794L847.332 70.7939L847.97 71.4322ZM277.111 656.408L277.749 657.047L277.749 657.047L277.111 656.408ZM214.464 901.498L213.605 901.724L213.605 901.724L214.464 901.498ZM1230.5 186.56L1229.63 186.756L1229.63 186.756L1230.5 186.56ZM1419.46 995.39L1420.32 995.194L1420.32 995.194L1419.46 995.39ZM1349.8 1233.43L1349.18 1232.77L1349.18 1232.77L1349.8 1233.43ZM1134.59 1287.51L1134.35 1288.38L1134.35 1288.38L1134.59 1287.51ZM374.768 1063.66L374.53 1064.52L374.53 1064.52L374.768 1063.66ZM219.129 900.316L218.27 900.542V900.542L219.129 900.316ZM280.585 659.861L281.223 660.499V660.499L280.585 659.861ZM851.428 74.8786L852.066 75.5168L852.066 75.5168L851.428 74.8786ZM1072.72 14.7964L1072.95 13.9308L1072.95 13.9308L1072.72 14.7964ZM354.833 1061.93L355.145 1061.09C361.212 1063.47 367.408 1065.59 373.718 1067.46L373.48 1068.32L373.242 1069.19C366.883 1067.31 360.638 1065.17 354.522 1062.77L354.833 1061.93ZM373.48 1068.32L373.718 1067.46L1133.54 1291.31L1133.3 1292.18L1133.06 1293.04L373.242 1069.19L373.48 1068.32ZM1133.3 1292.18L1133.54 1291.31C1210.76 1314.07 1292.63 1293.53 1352.51 1236.34L1353.13 1237L1353.74 1237.66C1293.42 1295.27 1210.92 1315.98 1133.06 1293.04L1133.3 1292.18ZM1353.13 1237L1352.51 1236.34C1417.64 1174.14 1444.09 1083.75 1423.26 994.561L1424.13 994.365L1425 994.169C1445.97 1083.98 1419.33 1175.02 1353.74 1237.66L1353.13 1237ZM1424.13 994.365L1423.26 994.561L1234.31 185.716L1235.18 185.52L1236.04 185.324L1425 994.169L1424.13 994.365ZM1235.18 185.52L1235.37 186.402L1233.03 186.912L1232.83 186.03L1232.63 185.148L1234.98 184.639L1235.18 185.52ZM1235.18 185.52L1234.31 185.716C1214.29 100.019 1154.27 34.7178 1073.77 10.9976L1074 10.132L1074.24 9.26646C1155.4 33.1795 1215.88 99.0157 1236.04 185.324L1235.18 185.52ZM1074 10.132L1073.77 10.9976C993.261 -12.7225 909.1 10.0944 848.608 72.0705L847.97 71.4322L847.332 70.7939C908.257 8.37425 993.082 -14.6466 1074.24 9.26646L1074 10.132ZM847.97 71.4322L848.608 72.0704L277.749 657.047L277.111 656.408L276.473 655.77L847.332 70.794L847.97 71.4322ZM277.111 656.408L277.749 657.047C214.794 721.554 191.47 812.848 215.323 901.271L214.464 901.498L213.605 901.724C189.585 812.682 213.076 720.73 276.473 655.77L277.111 656.408ZM214.464 901.498L215.323 901.271C235.476 975.936 287.055 1034.4 355.145 1061.09L354.833 1061.93L354.521 1062.77C285.875 1035.86 233.903 976.928 213.605 901.724L214.464 901.498ZM1091.24 21.138L1091.56 20.2976C1161.58 47.7365 1213.19 108.546 1231.36 186.364L1230.5 186.56L1229.63 186.756C1211.59 109.497 1160.38 49.1889 1090.93 21.9784L1091.24 21.138ZM1230.5 186.56L1231.36 186.364L1420.32 995.194L1419.46 995.39L1418.59 995.586L1229.63 186.756L1230.5 186.56ZM1419.46 995.39L1420.32 995.194C1440.9 1083.32 1414.76 1172.64 1350.41 1234.09L1349.8 1233.43L1349.18 1232.77C1413.07 1171.75 1439.03 1083.09 1418.59 995.586L1419.46 995.39ZM1349.8 1233.43L1350.41 1234.09C1291.33 1290.52 1210.55 1310.83 1134.35 1288.38L1134.59 1287.51L1134.82 1286.65C1210.4 1308.91 1290.53 1288.78 1349.18 1232.77L1349.8 1233.43ZM1134.59 1287.51L1134.35 1288.38L374.53 1064.52L374.768 1063.66L375.006 1062.79L1134.82 1286.65L1134.59 1287.51ZM374.768 1063.66L374.53 1064.52C298.344 1042.06 239.914 980.767 218.27 900.542L219.129 900.316L219.988 900.089C241.473 979.726 299.45 1040.52 375.006 1062.79L374.768 1063.66ZM219.129 900.316L218.27 900.542C194.699 813.172 217.752 722.953 279.947 659.223L280.585 659.861L281.223 660.499C219.47 723.777 196.584 813.338 219.988 900.089L219.129 900.316ZM280.585 659.861L279.947 659.223L850.79 74.2404L851.428 74.8786L852.066 75.5168L281.223 660.499L280.585 659.861ZM851.428 74.8786L850.79 74.2404C910.466 13.083 993.524 -9.47454 1072.95 13.9308L1072.72 14.7964L1072.48 15.662C993.704 -7.55022 911.31 14.8027 852.066 75.5168L851.428 74.8786ZM1072.72 14.7964L1072.95 13.9308C1079.28 15.7963 1085.48 17.9185 1091.56 20.2976L1091.24 21.138L1090.93 21.9784C1084.91 19.6185 1078.76 17.513 1072.48 15.662L1072.72 14.7964Z" fill="var(--stroke-0, white)"/>
</g>
</g>
<defs>
<linearGradient id="paint0_linear_0_4" x1="636.805" y1="1225.54" x2="1101.62" y2="39.2378" gradientUnits="userSpaceOnUse">
<stop stop-color="#DCDEE0"/>
<stop offset="1" stop-color="#7BB8FF"/>
</linearGradient>
</defs>
</svg>
