<svg xmlns="http://www.w3.org/2000/svg" width="60" height="60" viewBox="0 0 60 60" fill="none"><path d="M29.9999 16.4022C22.4911 16.4022 16.3831 22.491 16.3831 29.9751C16.3831 37.4591 22.4911 43.5469 29.9999 43.5469C37.5088 43.5469 43.6178 37.4591 43.6178 29.9751C43.6178 22.491 37.5088 16.4022 29.9999 16.4022ZM29.9999 45.3846C21.4751 45.3846 14.5393 38.4717 14.5393 29.9751C14.5393 21.4773 21.4751 14.5656 29.9999 14.5656C38.5248 14.5656 45.4617 21.4773 45.4617 29.9751C45.4617 38.4717 38.5248 45.3846 29.9999 45.3846Z" fill="white"></path><path d="M53.1743 22.9058C52.7927 22.9058 52.4344 22.6673 52.3031 22.288C49.9807 15.5947 44.8253 10.351 38.1533 7.90215C37.677 7.72691 37.4322 7.19899 37.608 6.7232C37.7838 6.2474 38.3135 6.00119 38.792 6.17864C45.9826 8.81936 51.5419 14.4723 54.0456 21.6869C54.2114 22.1671 53.9566 22.6895 53.4759 22.8559C53.3757 22.8891 53.2734 22.9058 53.1743 22.9058Z" fill="#FFAB0E"></path><path d="M6.82663 22.9058C6.72648 22.9058 6.62412 22.8892 6.5262 22.8548C6.04437 22.6885 5.78953 22.1661 5.95644 21.6859C8.45903 14.4724 14.0161 8.82165 21.2045 6.18093C21.6819 6.00348 22.2116 6.24859 22.3885 6.72549C22.5643 7.20018 22.3195 7.72921 21.8421 7.90444C15.1745 10.3533 10.0191 15.5959 7.69678 22.287C7.56548 22.6674 7.2083 22.9058 6.82663 22.9058Z" fill="#FFAB0E"></path><path d="M27.2193 43.2596C29.0587 43.6411 30.9426 43.6411 32.7809 43.2596C34.8573 40.5711 36.1358 35.5271 36.1358 29.975C36.1358 24.4219 34.8573 19.3778 32.7809 16.6894C30.9426 16.3078 29.0587 16.3078 27.2193 16.6894C25.1451 19.3778 23.8655 24.4219 23.8655 29.975C23.8655 35.5271 25.1451 40.5711 27.2193 43.2596ZM30.0001 45.3845C28.8295 45.3845 27.6499 45.2492 26.4949 44.982C26.299 44.9365 26.1232 44.8289 25.9952 44.6747C23.545 41.739 22.0216 36.106 22.0216 29.975C22.0216 23.8429 23.545 18.2099 25.9952 15.2753C26.1232 15.12 26.299 15.0124 26.4949 14.967C28.8038 14.4335 31.1974 14.4335 33.5064 14.967C33.7011 15.0124 33.878 15.12 34.006 15.2753C36.4563 18.2099 37.9785 23.8429 37.9785 29.975C37.9785 36.106 36.4563 41.739 34.006 44.6747C33.878 44.8289 33.7011 44.9365 33.5064 44.982C32.3513 45.2492 31.1718 45.3845 30.0001 45.3845Z" fill="white"></path><path d="M16.6713 32.7466C19.3686 34.8139 24.4284 36.0894 29.9999 36.0894C35.5704 36.0894 40.6323 34.8139 43.3296 32.7466C43.521 31.8305 43.6178 30.8989 43.6178 29.975C43.6178 29.0501 43.521 28.1195 43.3296 27.2034C40.6323 25.135 35.5704 23.8596 29.9999 23.8596C24.4295 23.8596 19.3686 25.135 16.6713 27.2034C16.4799 28.1195 16.3831 29.0501 16.3831 29.975C16.3831 30.8989 16.4799 31.8305 16.6713 32.7466ZM29.9999 37.9271C23.8475 37.9271 18.1969 36.4088 15.2515 33.9666C15.0968 33.8391 14.9889 33.6638 14.9432 33.4686C14.6751 32.3174 14.5393 31.1418 14.5393 29.975C14.5393 28.8072 14.6751 27.6315 14.9432 26.4803C14.9889 26.2851 15.0968 26.111 15.2515 25.9823C18.1969 23.539 23.8486 22.0218 29.9999 22.0218C36.1535 22.0218 41.804 23.539 44.7484 25.9823C44.9042 26.111 45.0121 26.2851 45.0577 26.4803C45.3259 27.6315 45.4617 28.8072 45.4617 29.975C45.4617 31.1418 45.3259 32.3174 45.0577 33.4686C45.0121 33.6638 44.9042 33.8391 44.7484 33.9666C41.804 36.4088 36.1535 37.9271 29.9999 37.9271Z" fill="white"></path><path d="M12.3075 30.8934H10.201C9.69135 30.8934 9.27966 30.4819 9.27966 29.9751C9.27966 29.4682 9.69135 29.0557 10.201 29.0557H12.3075C12.8171 29.0557 13.2288 29.4682 13.2288 29.9751C13.2288 30.4819 12.8171 30.8934 12.3075 30.8934Z" fill="white"></path><path d="M44.5403 30.8934H15.4607C14.9521 30.8934 14.5393 30.4819 14.5393 29.9751C14.5393 29.4682 14.9521 29.0557 15.4607 29.0557H44.5403C45.0488 29.0557 45.4617 29.4682 45.4617 29.9751C45.4617 30.4819 45.0488 30.8934 44.5403 30.8934Z" fill="white"></path><path d="M49.8006 30.8934H47.4226C46.913 30.8934 46.5001 30.4819 46.5001 29.9751C46.5001 29.4682 46.913 29.0557 47.4226 29.0557H49.8006C50.3091 29.0557 50.722 29.4682 50.722 29.9751C50.722 30.4819 50.3091 30.8934 49.8006 30.8934Z" fill="white"></path><path d="M30.0003 1.83663C27.9506 1.83663 26.2837 3.49914 26.2837 5.54207C26.2837 7.5861 27.9506 9.2475 30.0003 9.2475C32.0511 9.2475 33.718 7.5861 33.718 5.54207C33.718 3.49914 32.0511 1.83663 30.0003 1.83663ZM30.0003 11.0852C26.9335 11.0852 24.4387 8.59869 24.4387 5.54207C24.4387 2.48545 26.9335 0 30.0003 0C33.0671 0 35.5618 2.48545 35.5618 5.54207C35.5618 8.59869 33.0671 11.0852 30.0003 11.0852Z" fill="white"></path><path d="M5.56046 26.2685C3.51187 26.2685 1.84385 27.931 1.84385 29.975C1.84385 32.018 3.51187 33.6805 5.56046 33.6805C7.61127 33.6805 9.27931 32.018 9.27931 29.975C9.27931 27.931 7.61127 26.2685 5.56046 26.2685ZM5.56046 35.5171C2.49481 35.5171 0 33.0305 0 29.975C0 26.9184 2.49481 24.4319 5.56046 24.4319C8.62722 24.4319 11.122 26.9184 11.122 29.975C11.122 33.0305 8.62722 35.5171 5.56046 35.5171Z" fill="white"></path><path d="M54.4396 26.2685C52.3888 26.2685 50.7207 27.931 50.7207 29.975C50.7207 32.018 52.3888 33.6805 54.4396 33.6805C56.4893 33.6805 58.1573 32.018 58.1573 29.975C58.1573 27.931 56.4893 26.2685 54.4396 26.2685ZM54.4396 35.5171C51.3728 35.5171 48.8781 33.0305 48.8781 29.975C48.8781 26.9184 51.3728 24.4319 54.4396 24.4319C57.5063 24.4319 60 26.9184 60 29.975C60 33.0305 57.5063 35.5171 54.4396 35.5171Z" fill="white"></path><path d="M21.5272 53.8269C21.4215 53.8269 21.3147 53.8091 21.209 53.7703C14.0183 51.1307 8.45902 45.4777 5.95644 38.2621C5.78953 37.783 6.04437 37.2595 6.5262 37.0942C7.00468 36.9279 7.53099 37.1829 7.6979 37.6621C10.0191 44.3542 15.1756 49.5969 21.8466 52.0457C22.324 52.2221 22.5688 52.75 22.3919 53.2258C22.255 53.5973 21.9033 53.8269 21.5272 53.8269Z" fill="#FFAB0E"></path><path d="M38.4773 53.8258C38.1023 53.8258 37.7495 53.5951 37.6126 53.2247C37.4368 52.7489 37.6817 52.2209 38.1579 52.0446C44.8267 49.5957 49.981 44.3531 52.3033 37.6621C52.4691 37.1829 52.9921 36.9279 53.475 37.0942C53.9568 37.2595 54.2116 37.783 54.0447 38.2632C51.5421 45.4766 45.9851 51.1285 38.7966 53.7692C38.6909 53.8069 38.583 53.8258 38.4773 53.8258Z" fill="#FFAB0E"></path><path d="M30 45.3846C29.4915 45.3846 29.0786 44.9732 29.0786 44.4652V15.4839C29.0786 14.9759 29.4915 14.5656 30 14.5656C30.5096 14.5656 30.9213 14.9759 30.9213 15.4839V44.4652C30.9213 44.9732 30.5096 45.3846 30 45.3846Z" fill="white"></path><path d="M30 13.4875C29.4915 13.4875 29.0786 13.0771 29.0786 12.5692V10.1669C29.0786 9.65894 29.4915 9.24747 30 9.24747C30.5096 9.24747 30.9213 9.65894 30.9213 10.1669V12.5692C30.9213 13.0771 30.5096 13.4875 30 13.4875Z" fill="white"></path><path d="M30.0003 50.7525C27.9506 50.7525 26.2837 52.4139 26.2837 54.4579C26.2837 56.5009 27.9506 58.1634 30.0003 58.1634C32.0511 58.1634 33.718 56.5009 33.718 54.4579C33.718 52.4139 32.0511 50.7525 30.0003 50.7525ZM30.0003 60C26.9335 60 24.4387 57.5146 24.4387 54.4579C24.4387 51.4013 26.9335 48.9148 30.0003 48.9148C33.0671 48.9148 35.5618 51.4013 35.5618 54.4579C35.5618 57.5146 33.0671 60 30.0003 60Z" fill="white"></path><path d="M30 50.7525C29.4915 50.7525 29.0786 50.341 29.0786 49.8331V47.4308C29.0786 46.924 29.4915 46.5125 30 46.5125C30.5096 46.5125 30.9213 46.924 30.9213 47.4308V49.8331C30.9213 50.341 30.5096 50.7525 30 50.7525Z" fill="white"></path></svg>