<svg xmlns="http://www.w3.org/2000/svg" width="88" height="17" viewBox="0 0 88 17" fill="none"><path d="M21.6556 4.40969H23.3356L26.4676 12.9297H24.7636L23.9716 10.8057H20.9956L20.2156 12.9297H18.5116L21.6556 4.40969ZM23.6716 9.64169L22.4956 6.12569L21.2716 9.64169H23.6716ZM29.8021 12.9297V4.40969H32.8981C33.8261 4.40969 34.6021 4.60169 35.2261 4.98569C35.8501 5.36169 36.3181 5.87369 36.6301 6.52169C36.9421 7.16169 37.0981 7.87369 37.0981 8.65769C37.0981 9.52169 36.9261 10.2737 36.5821 10.9137C36.2381 11.5537 35.7501 12.0497 35.1181 12.4017C34.4941 12.7537 33.7541 12.9297 32.8981 12.9297H29.8021ZM35.4301 8.65769C35.4301 8.10569 35.3301 7.62169 35.1301 7.20569C34.9301 6.78169 34.6421 6.45369 34.2661 6.22169C33.8901 5.98169 33.4341 5.86169 32.8981 5.86169H31.4581V11.4777H32.8981C33.4421 11.4777 33.9021 11.3577 34.2781 11.1177C34.6541 10.8697 34.9381 10.5337 35.1301 10.1097C35.3301 9.67769 35.4301 9.19369 35.4301 8.65769ZM40.7919 12.9297V4.40969H43.8879C44.8159 4.40969 45.5919 4.60169 46.2159 4.98569C46.8399 5.36169 47.3079 5.87369 47.6199 6.52169C47.9319 7.16169 48.0879 7.87369 48.0879 8.65769C48.0879 9.52169 47.9159 10.2737 47.5719 10.9137C47.2279 11.5537 46.7399 12.0497 46.1079 12.4017C45.4839 12.7537 44.7439 12.9297 43.8879 12.9297H40.7919ZM46.4199 8.65769C46.4199 8.10569 46.3199 7.62169 46.1199 7.20569C45.9199 6.78169 45.6319 6.45369 45.2559 6.22169C44.8799 5.98169 44.4239 5.86169 43.8879 5.86169H42.4479V11.4777H43.8879C44.4319 11.4777 44.8919 11.3577 45.2679 11.1177C45.6439 10.8697 45.9279 10.5337 46.1199 10.1097C46.3199 9.67769 46.4199 9.19369 46.4199 8.65769ZM51.7817 12.9297V4.40969H55.5497C55.9417 4.40969 56.3017 4.48969 56.6297 4.64969C56.9657 4.80969 57.2537 5.02569 57.4937 5.29769C57.7417 5.56969 57.9297 5.87369 58.0577 6.20969C58.1937 6.54569 58.2617 6.88969 58.2617 7.24169C58.2617 7.60169 58.1977 7.94969 58.0697 8.28569C57.9497 8.61369 57.7737 8.90169 57.5417 9.14969C57.3097 9.39769 57.0377 9.58969 56.7257 9.72569L58.6697 12.9297H56.8457L55.0937 10.0737H53.4377V12.9297H51.7817ZM53.4377 8.62169H55.5137C55.7217 8.62169 55.9057 8.56169 56.0657 8.44169C56.2257 8.31369 56.3537 8.14569 56.4497 7.93769C56.5457 7.72969 56.5937 7.49769 56.5937 7.24169C56.5937 6.96969 56.5377 6.73369 56.4257 6.53369C56.3137 6.32569 56.1697 6.16169 55.9937 6.04169C55.8257 5.92169 55.6417 5.86169 55.4417 5.86169H53.4377V8.62169ZM68.0782 11.4777V12.9297H62.1622V4.40969H67.9702V5.86169H63.8182V7.91369H67.4062V9.25769H63.8182V11.4777H68.0782ZM76.8452 6.64169C76.7892 6.58569 76.6852 6.50969 76.5332 6.41369C76.3892 6.31769 76.2092 6.22569 75.9932 6.13769C75.7852 6.04969 75.5572 5.97369 75.3092 5.90969C75.0612 5.83769 74.8092 5.80169 74.5532 5.80169C74.1052 5.80169 73.7652 5.88569 73.5332 6.05369C73.3092 6.22169 73.1972 6.45769 73.1972 6.76169C73.1972 6.99369 73.2692 7.17769 73.4132 7.31369C73.5572 7.44969 73.7732 7.56569 74.0612 7.66169C74.3492 7.75769 74.7092 7.86169 75.1412 7.97369C75.7012 8.10969 76.1852 8.27769 76.5932 8.47769C77.0092 8.66969 77.3252 8.92569 77.5412 9.24569C77.7652 9.55769 77.8772 9.97369 77.8772 10.4937C77.8772 10.9497 77.7932 11.3417 77.6252 11.6697C77.4572 11.9897 77.2252 12.2497 76.9292 12.4497C76.6332 12.6497 76.2972 12.7977 75.9212 12.8937C75.5452 12.9817 75.1452 13.0257 74.7212 13.0257C74.2972 13.0257 73.8732 12.9817 73.4492 12.8937C73.0252 12.8057 72.6172 12.6817 72.2252 12.5217C71.8332 12.3537 71.4732 12.1537 71.1452 11.9217L71.8772 10.4937C71.9492 10.5657 72.0772 10.6617 72.2612 10.7817C72.4452 10.8937 72.6692 11.0097 72.9332 11.1297C73.1972 11.2417 73.4852 11.3377 73.7972 11.4177C74.1092 11.4977 74.4252 11.5377 74.7452 11.5377C75.1932 11.5377 75.5332 11.4617 75.7652 11.3097C75.9972 11.1577 76.1132 10.9417 76.1132 10.6617C76.1132 10.4057 76.0212 10.2057 75.8372 10.0617C75.6532 9.91769 75.3972 9.79369 75.0692 9.68969C74.7412 9.57769 74.3532 9.45769 73.9052 9.32969C73.3692 9.17769 72.9212 9.00969 72.5612 8.82569C72.2012 8.63369 71.9332 8.39369 71.7572 8.10569C71.5812 7.81769 71.4932 7.45769 71.4932 7.02569C71.4932 6.44169 71.6292 5.95369 71.9012 5.56169C72.1812 5.16169 72.5572 4.86169 73.0292 4.66169C73.5012 4.45369 74.0252 4.34969 74.6012 4.34969C75.0012 4.34969 75.3772 4.39369 75.7292 4.48169C76.0892 4.56969 76.4252 4.68569 76.7372 4.82969C77.0492 4.97369 77.3292 5.12969 77.5772 5.29769L76.8452 6.64169ZM86.6046 6.64169C86.5486 6.58569 86.4446 6.50969 86.2926 6.41369C86.1486 6.31769 85.9686 6.22569 85.7526 6.13769C85.5446 6.04969 85.3166 5.97369 85.0686 5.90969C84.8206 5.83769 84.5686 5.80169 84.3126 5.80169C83.8646 5.80169 83.5246 5.88569 83.2926 6.05369C83.0686 6.22169 82.9566 6.45769 82.9566 6.76169C82.9566 6.99369 83.0286 7.17769 83.1726 7.31369C83.3166 7.44969 83.5326 7.56569 83.8206 7.66169C84.1086 7.75769 84.4686 7.86169 84.9006 7.97369C85.4606 8.10969 85.9446 8.27769 86.3526 8.47769C86.7686 8.66969 87.0846 8.92569 87.3006 9.24569C87.5246 9.55769 87.6366 9.97369 87.6366 10.4937C87.6366 10.9497 87.5526 11.3417 87.3846 11.6697C87.2166 11.9897 86.9846 12.2497 86.6886 12.4497C86.3926 12.6497 86.0566 12.7977 85.6806 12.8937C85.3046 12.9817 84.9046 13.0257 84.4806 13.0257C84.0566 13.0257 83.6326 12.9817 83.2086 12.8937C82.7846 12.8057 82.3766 12.6817 81.9846 12.5217C81.5926 12.3537 81.2326 12.1537 80.9046 11.9217L81.6366 10.4937C81.7086 10.5657 81.8366 10.6617 82.0206 10.7817C82.2046 10.8937 82.4286 11.0097 82.6926 11.1297C82.9566 11.2417 83.2446 11.3377 83.5566 11.4177C83.8686 11.4977 84.1846 11.5377 84.5046 11.5377C84.9526 11.5377 85.2926 11.4617 85.5246 11.3097C85.7566 11.1577 85.8726 10.9417 85.8726 10.6617C85.8726 10.4057 85.7806 10.2057 85.5966 10.0617C85.4126 9.91769 85.1566 9.79369 84.8286 9.68969C84.5006 9.57769 84.1126 9.45769 83.6646 9.32969C83.1286 9.17769 82.6806 9.00969 82.3206 8.82569C81.9606 8.63369 81.6926 8.39369 81.5166 8.10569C81.3406 7.81769 81.2526 7.45769 81.2526 7.02569C81.2526 6.44169 81.3886 5.95369 81.6606 5.56169C81.9406 5.16169 82.3166 4.86169 82.7886 4.66169C83.2606 4.45369 83.7846 4.34969 84.3606 4.34969C84.7606 4.34969 85.1366 4.39369 85.4886 4.48169C85.8486 4.56969 86.1846 4.68569 86.4966 4.82969C86.8086 4.97369 87.0886 5.12969 87.3366 5.29769L86.6046 6.64169Z" fill="#0084FF"></path><path d="M8.23391 8.28969C8.47966 8.28969 8.723 8.23959 8.95004 8.14225C9.17708 8.04492 9.38338 7.90225 9.55715 7.7224C9.73092 7.54255 9.86876 7.32903 9.96281 7.09404C10.0568 6.85905 10.1053 6.60719 10.1053 6.35285C10.1053 5.83916 9.90809 5.34652 9.55715 4.98329C9.2062 4.62006 8.73022 4.416 8.23391 4.416C7.7376 4.416 7.26161 4.62006 6.91067 4.98329C6.55972 5.34652 6.36256 5.83916 6.36256 6.35285C6.36256 6.60719 6.41097 6.85905 6.50501 7.09404C6.59905 7.32903 6.7369 7.54255 6.91067 7.7224C7.26161 8.08563 7.7376 8.28969 8.23391 8.28969ZM8.23391 0.929688C11.1233 0.929688 13.4737 3.35461 13.4737 6.35285C13.4737 10.4202 8.23391 16.4244 8.23391 16.4244C8.23391 16.4244 2.99414 10.4202 2.99414 6.35285C2.99414 4.91453 3.54619 3.53513 4.52883 2.51809C5.51148 1.50105 6.84424 0.929688 8.23391 0.929688Z" fill="#0084FF"></path><path d="M1.49708 6.35474C1.49708 9.84105 5.29965 14.6134 5.98831 15.5044L5.23977 16.4263C5.23977 16.4263 0 10.4221 0 6.35474C0 3.89882 1.57942 1.82252 3.74269 1.15625C2.36538 2.43457 1.49708 4.28619 1.49708 6.35474Z" fill="#F9751B"></path></svg>