<svg xmlns="http://www.w3.org/2000/svg" width="114" height="50" viewBox="0 0 114 50" fill="none"><rect width="114" height="50" rx="5" fill="white"></rect><path d="M43.5968 36.1381L40.8262 37.6547L39.7862 35.7541L40.4496 35.391L41.0731 36.5305L41.5336 36.2785L41.0253 35.3496L41.6419 35.0122L42.1502 35.941L43.1804 35.3771L43.5968 36.1381Z" fill="url(#paint0_linear_4957_61)"></path><path d="M41.8673 32.1918C41.9319 32.4231 41.9463 32.6455 41.9105 32.8587C41.8746 33.072 41.804 33.2658 41.6987 33.4399C41.5906 33.6149 41.4541 33.7655 41.2892 33.8917C41.1243 34.0178 40.9433 34.1085 40.7462 34.1636C40.5463 34.2195 40.3427 34.2348 40.1355 34.2096C39.9283 34.1844 39.7356 34.1228 39.5573 34.0248C39.3754 33.9247 39.2167 33.792 39.0812 33.6267C38.942 33.4592 38.8409 33.2627 38.7778 33.037C38.7131 32.8057 38.6987 32.5833 38.7346 32.37C38.7704 32.1568 38.8424 31.9626 38.9506 31.7877C39.0587 31.6127 39.1957 31.4635 39.3614 31.3402C39.5262 31.214 39.7058 31.1238 39.9 31.0695C40.1 31.0136 40.3035 30.9983 40.5107 31.0235C40.7151 31.0495 40.9078 31.1111 41.0889 31.2083C41.2672 31.3063 41.4259 31.439 41.5651 31.6064C41.7035 31.771 41.8042 31.9661 41.8673 32.1918ZM40.5177 33.3128C40.6205 33.2841 40.7165 33.2418 40.8056 33.1861C40.8919 33.1312 40.9642 33.0648 41.0225 32.9869C41.0808 32.909 41.1208 32.8208 41.1425 32.7224C41.1635 32.621 41.1572 32.5104 41.1237 32.3904C41.0902 32.2704 41.0382 32.1726 40.9677 32.0968C40.8944 32.0218 40.8131 31.9676 40.7236 31.9341C40.6305 31.8985 40.5319 31.8814 40.4276 31.8829C40.3225 31.8815 40.2199 31.8947 40.12 31.9227C40.0172 31.9514 39.9226 31.9932 39.8363 32.0482C39.7472 32.1039 39.6753 32.1717 39.6207 32.2517C39.5624 32.3296 39.5242 32.4188 39.5061 32.5193C39.4844 32.6178 39.4898 32.7256 39.5226 32.8427C39.5561 32.9626 39.6081 33.0605 39.6785 33.1363C39.7482 33.2092 39.8295 33.2635 39.9226 33.299C40.0129 33.3354 40.1105 33.3543 40.2156 33.3557C40.317 33.3551 40.4177 33.3408 40.5177 33.3128Z" fill="url(#paint1_linear_4957_61)"></path><path d="M40.5178 28.4624C40.5162 28.3616 40.4926 28.2759 40.447 28.2055C40.4014 28.135 40.3426 28.0781 40.2708 28.0347C40.1959 27.9914 40.1109 27.9601 40.0157 27.9409C39.9205 27.9216 39.821 27.9128 39.7172 27.9145L38.0937 27.9402L38.08 27.0728L39.7035 27.047C39.9229 27.0436 40.1294 27.0685 40.3231 27.1217C40.5137 27.1751 40.6797 27.26 40.8209 27.3764C40.9622 27.4928 41.0743 27.6408 41.1572 27.8204C41.2401 27.9971 41.2834 28.207 41.2873 28.4502C41.2913 28.7023 41.2532 28.9194 41.173 29.1017C41.0898 29.281 40.978 29.4296 40.8375 29.5475C40.697 29.6654 40.5337 29.7525 40.3478 29.8089C40.1588 29.8653 39.9591 29.8951 39.7486 29.8985L38.1251 29.9242L38.1114 29.0568L39.7349 29.031C39.8386 29.0294 39.9393 29.0174 40.0368 28.9951C40.1314 28.9728 40.2154 28.9389 40.2888 28.8932C40.3593 28.8476 40.4162 28.7903 40.4596 28.7214C40.5 28.6496 40.5194 28.5632 40.5178 28.4624Z" fill="url(#paint2_linear_4957_61)"></path><path d="M40.0098 24.856L41.5181 25.224L41.3124 26.0668L38.2441 25.3182L38.4043 24.6612L40.265 23.81L38.7049 23.4293L38.9105 22.5865L41.9789 23.3351L41.8154 24.0051L40.0098 24.856Z" fill="url(#paint3_linear_4957_61)"></path><path d="M42.3149 22.3913L39.5277 20.9056L40.0989 19.8337C40.2217 19.6034 40.3664 19.4201 40.5332 19.2838C40.6999 19.1474 40.8775 19.0539 41.0659 19.0031C41.2543 18.9522 41.4496 18.9421 41.6518 18.9725C41.8513 19.0016 42.0467 19.0671 42.2377 19.1689C42.4497 19.2819 42.6239 19.4185 42.7604 19.5786C42.8956 19.7347 42.9919 19.907 43.0494 20.0956C43.1042 20.2828 43.1196 20.4809 43.0956 20.6899C43.0689 20.8976 42.9991 21.1074 42.8861 21.3194L42.3149 22.3913ZM41.8234 19.9463C41.7161 19.8891 41.6103 19.8512 41.506 19.8325C41.4016 19.8139 41.3034 19.8153 41.2113 19.8368C41.1206 19.8557 41.0373 19.8953 40.9614 19.9557C40.883 20.0147 40.8179 20.0926 40.7663 20.1895L40.6031 20.4957L42.0556 21.2699L42.2188 20.9637C42.2718 20.8642 42.3009 20.7655 42.3061 20.6674C42.3113 20.5693 42.2951 20.4767 42.2576 20.3895C42.2215 20.2996 42.1659 20.2179 42.0909 20.1443C42.0172 20.0681 41.9281 20.0021 41.8234 19.9463Z" fill="url(#paint4_linear_4957_61)"></path><path d="M45.0216 17.0553L45.5928 17.551L44.1174 19.2513L41.732 17.181L43.1811 15.511L43.7523 16.0067L42.8717 17.0215L43.2077 17.3131L43.96 16.4461L44.4908 16.9068L43.7386 17.7738L44.1148 18.1003L45.0216 17.0553Z" fill="url(#paint5_linear_4957_61)"></path><path d="M46.1625 16.9845L44.2831 14.4459L45.4485 13.5828C45.5725 13.491 45.7063 13.4325 45.85 13.4073C45.9919 13.3797 46.1307 13.3802 46.2663 13.4089C46.4026 13.4335 46.5319 13.4835 46.6542 13.559C46.7748 13.6321 46.8748 13.7223 46.9542 13.8296C47.0636 13.9773 47.1338 14.1394 47.1647 14.3158C47.1939 14.4898 47.1813 14.6597 47.1269 14.8254L48.354 15.3615L47.5675 15.9439L46.5436 15.4955L46.2826 15.6887L46.8597 16.4682L46.1625 16.9845ZM45.8326 15.0809L46.2723 14.7553C46.3152 14.7235 46.3369 14.6705 46.3373 14.5964C46.3402 14.5205 46.3098 14.4396 46.2463 14.3538C46.181 14.2656 46.1101 14.2147 46.0337 14.2012C45.9555 14.1853 45.895 14.1933 45.8521 14.225L45.4302 14.5375L45.8326 15.0809Z" fill="url(#paint6_linear_4957_61)"></path><path d="M49.8682 12.3029C49.7653 12.29 49.662 12.2837 49.5584 12.284C49.4708 12.2838 49.3749 12.2905 49.2706 12.304C49.1679 12.3137 49.0732 12.3377 48.9863 12.376C48.9158 12.4071 48.8636 12.4431 48.8298 12.484C48.7986 12.5237 48.7945 12.5693 48.8172 12.6208C48.834 12.6588 48.8599 12.6847 48.8951 12.6983C48.9303 12.7119 48.9758 12.7194 49.0315 12.7208C49.086 12.7194 49.15 12.7139 49.2235 12.7041C49.2997 12.6932 49.3858 12.6828 49.4819 12.6728C49.6328 12.6548 49.772 12.6469 49.8993 12.649C50.0294 12.65 50.1474 12.6676 50.2533 12.7019C50.358 12.7335 50.4516 12.7879 50.5342 12.8649C50.6168 12.9419 50.6881 13.0482 50.7479 13.1839C50.8245 13.3576 50.8566 13.5185 50.8442 13.6666C50.8332 13.8108 50.7904 13.9416 50.7157 14.0588C50.6437 14.1749 50.5484 14.2785 50.4299 14.3697C50.3128 14.4571 50.1878 14.5301 50.0548 14.5887C49.949 14.6354 49.8369 14.6752 49.7185 14.708C49.6 14.7408 49.4786 14.7668 49.3542 14.7861C49.2325 14.8041 49.1111 14.8155 48.99 14.8203C48.8717 14.8239 48.7577 14.8191 48.6482 14.8059L48.683 13.959C48.8043 13.9767 48.9267 13.986 49.0501 13.9866C49.1549 13.989 49.2688 13.9825 49.3917 13.9672C49.5173 13.9507 49.6371 13.9172 49.751 13.867C49.8378 13.8286 49.8927 13.7914 49.9157 13.7554C49.9402 13.7154 49.9441 13.6764 49.9273 13.6384C49.9094 13.5977 49.8768 13.5716 49.8295 13.56C49.7838 13.5445 49.7263 13.5391 49.657 13.5437C49.5878 13.5484 49.509 13.5572 49.4207 13.5702C49.3352 13.582 49.2424 13.5921 49.1424 13.6006C48.9958 13.6135 48.8655 13.6158 48.7517 13.6077C48.6367 13.5968 48.5356 13.5734 48.4484 13.5373C48.36 13.4985 48.2829 13.445 48.2171 13.3768C48.1541 13.3073 48.0992 13.2197 48.0525 13.1139C47.9819 12.9538 47.9481 12.8001 47.9513 12.6529C47.9571 12.5044 47.9922 12.3673 48.0567 12.2416C48.1212 12.1159 48.2082 12.0046 48.3178 11.9076C48.4289 11.8067 48.5563 11.7245 48.7001 11.6611C48.806 11.6144 48.9138 11.5797 49.0238 11.5571C49.1326 11.5318 49.2403 11.5151 49.3469 11.5069C49.455 11.4949 49.5582 11.4899 49.6563 11.492C49.7533 11.4913 49.8415 11.4929 49.921 11.4967L49.8682 12.3029Z" fill="url(#paint7_linear_4957_61)"></path><path d="M55.3394 10.8417L54.4377 10.9439L54.7081 13.3311L53.8461 13.4288L53.5757 11.0416L52.6696 11.1443L52.5845 10.3928L55.2542 10.0902L55.3394 10.8417Z" fill="url(#paint8_linear_4957_61)"></path><path d="M57.7544 13.3966C57.516 13.3667 57.3055 13.294 57.1227 13.1784C56.94 13.0627 56.7887 12.9227 56.6689 12.7582C56.5494 12.5907 56.4634 12.4066 56.411 12.2057C56.3585 12.0048 56.345 11.8028 56.3705 11.5997C56.3963 11.3937 56.461 11.2001 56.5644 11.0188C56.6679 10.8375 56.7993 10.6836 56.9587 10.5571C57.1213 10.428 57.3051 10.333 57.51 10.2721C57.7182 10.2085 57.9386 10.1913 58.1711 10.2205C58.4094 10.2504 58.6199 10.3232 58.8027 10.4388C58.9855 10.5544 59.1366 10.6959 59.256 10.8634C59.3755 11.0308 59.46 11.2148 59.5095 11.4153C59.562 11.6162 59.5757 11.8167 59.5506 12.0169C59.5247 12.2229 59.46 12.4165 59.3566 12.5978C59.2535 12.7762 59.1221 12.9301 58.9624 13.0595C58.803 13.186 58.6192 13.281 58.411 13.3445C58.2057 13.4085 57.9868 13.4258 57.7544 13.3966ZM57.2433 11.7183C57.23 11.8242 57.2318 11.9291 57.2486 12.0328C57.2659 12.1336 57.2991 12.226 57.3483 12.3099C57.3976 12.3938 57.4634 12.4648 57.5457 12.523C57.6311 12.5815 57.7355 12.6186 57.8591 12.6341C57.9827 12.6496 58.093 12.6395 58.1902 12.6039C58.2877 12.5653 58.3692 12.5113 58.4347 12.4418C58.5035 12.3697 58.5574 12.2853 58.5965 12.1886C58.6385 12.0922 58.6659 11.9925 58.6789 11.8895C58.6922 11.7836 58.6902 11.6802 58.673 11.5794C58.6561 11.4756 58.6214 11.3831 58.5688 11.3018C58.5196 11.2179 58.4521 11.1481 58.3665 11.0925C58.2841 11.0343 58.1826 10.9977 58.0619 10.9825C57.9384 10.967 57.828 10.9771 57.7309 11.0127C57.6367 11.0487 57.5552 11.1028 57.4863 11.1748C57.4179 11.244 57.3627 11.3267 57.3207 11.4231C57.282 11.5169 57.2562 11.6153 57.2433 11.7183Z" fill="url(#paint9_linear_4957_61)"></path><path d="M61.4004 14.2281L62.751 11.3726L64.7093 12.299L64.3859 12.9827L63.2117 12.4272L62.9873 12.9018L63.9443 13.3546L63.6438 13.99L62.6867 13.5373L62.1845 14.599L61.4004 14.2281Z" fill="url(#paint10_linear_4957_61)"></path><path d="M65.1187 16.4043C64.9305 16.2551 64.7882 16.0837 64.6918 15.89C64.5955 15.6964 64.5388 15.4982 64.5216 15.2954C64.5063 15.0903 64.5283 14.8882 64.5876 14.6892C64.6468 14.4902 64.74 14.3105 64.8671 14.1501C64.996 13.9873 65.1517 13.8553 65.3342 13.7539C65.5166 13.6525 65.7088 13.5891 65.9106 13.5636C66.1166 13.5376 66.323 13.5516 66.5298 13.6058C66.7408 13.6595 66.9381 13.759 67.1217 13.9045C67.31 14.0537 67.4523 14.2251 67.5486 14.4188C67.645 14.6124 67.7008 14.8118 67.7161 15.0169C67.7314 15.222 67.7083 15.4232 67.6467 15.6204C67.5874 15.8194 67.4951 15.9979 67.3699 16.156C67.241 16.3187 67.0853 16.4508 66.9028 16.5522C66.7222 16.6512 66.53 16.7147 66.3264 16.7425C66.1246 16.768 65.9182 16.7539 65.7072 16.7003C65.4985 16.6484 65.3024 16.5498 65.1187 16.4043ZM65.5519 14.7041C65.4856 14.7878 65.4328 14.8783 65.3934 14.9758C65.3559 15.0709 65.3364 15.1672 65.335 15.2644C65.3336 15.3617 65.353 15.4566 65.3933 15.549C65.4359 15.6433 65.506 15.7292 65.6036 15.8065C65.7013 15.8839 65.8008 15.9325 65.9024 15.9524C66.0057 15.97 66.1034 15.966 66.1955 15.9406C66.2917 15.9147 66.3816 15.8705 66.4651 15.808C66.551 15.7474 66.6261 15.6764 66.6906 15.595C66.7569 15.5113 66.8088 15.4219 66.8464 15.3268C66.8857 15.2293 66.904 15.1322 66.9013 15.0354C66.9027 14.9381 66.8811 14.8435 66.8367 14.7515C66.7964 14.659 66.7287 14.5751 66.6334 14.4995C66.5357 14.4222 66.4362 14.3736 66.3346 14.3537C66.2354 14.3356 66.1377 14.3395 66.0415 14.3655C65.9471 14.3891 65.857 14.4312 65.7712 14.4918C65.6895 14.552 65.6164 14.6227 65.5519 14.7041Z" fill="url(#paint11_linear_4957_61)"></path><path d="M68.402 18.6283C68.4626 18.709 68.532 18.7644 68.6103 18.7946C68.6886 18.8248 68.7696 18.8363 68.8532 18.8292C68.9392 18.8202 69.0264 18.7956 69.1147 18.7552C69.2031 18.7148 69.2888 18.6634 69.3718 18.6011L70.6702 17.626L71.1911 18.3198L69.8926 19.2948C69.7171 19.4266 69.5354 19.5279 69.3474 19.5986C69.1618 19.6675 68.9776 19.6964 68.7949 19.6852C68.6123 19.674 68.4346 19.6201 68.2619 19.5235C68.0911 19.4293 67.9326 19.285 67.7866 19.0905C67.6353 18.8889 67.5385 18.6908 67.4963 18.4963C67.4582 18.3023 67.4614 18.1163 67.5058 17.9384C67.5502 17.7604 67.631 17.5939 67.7484 17.439C67.8681 17.2824 68.0122 17.1408 68.1806 17.0144L69.479 16.0393L69.9998 16.733L68.7014 17.7081C68.6184 17.7704 68.544 17.8393 68.4782 17.9147C68.4148 17.9883 68.3668 18.0651 68.3342 18.1452C68.304 18.2235 68.2916 18.3033 68.2969 18.3846C68.3065 18.4664 68.3415 18.5477 68.402 18.6283Z" fill="url(#paint12_linear_4957_61)"></path><path d="M70.9323 21.2476L69.4957 21.8364L69.1668 21.0336L72.0894 19.8358L72.3457 20.4616L71.3404 22.2438L72.8264 21.6348L73.1553 22.4376L70.2327 23.6354L69.9713 22.9973L70.9323 21.2476Z" fill="url(#paint13_linear_4957_61)"></path><path d="M70.5155 24.5965L73.6437 24.1603L73.8113 25.3633C73.8473 25.6218 73.8379 25.8552 73.7831 26.0634C73.7283 26.2717 73.6396 26.4518 73.5171 26.6037C73.3945 26.7555 73.2425 26.8785 73.061 26.9727C72.8824 27.0665 72.6859 27.1283 72.4715 27.1582C72.2336 27.1914 72.0124 27.1833 71.8079 27.134C71.6067 27.0872 71.4275 27.0043 71.2702 26.8855C71.1158 26.7663 70.987 26.6151 70.8836 26.4318C70.7831 26.2482 70.7163 26.0374 70.6832 25.7995L70.5155 24.5965ZM72.3499 26.2858C72.4703 26.269 72.5782 26.2375 72.6736 26.1912C72.7689 26.145 72.8476 26.0861 72.9095 26.0146C72.9718 25.946 73.0159 25.865 73.0418 25.7715C73.0706 25.6777 73.0775 25.5764 73.0623 25.4677L73.0144 25.124L71.3843 25.3513L71.4322 25.695C71.4477 25.8066 71.4822 25.9037 71.5356 25.9861C71.589 26.0684 71.6565 26.1339 71.7381 26.1824C71.8202 26.2339 71.9131 26.2673 72.0171 26.2828C72.1215 26.3011 72.2324 26.3021 72.3499 26.2858Z" fill="url(#paint14_linear_4957_61)"></path><path d="M71.461 30.5045L70.7076 30.4392L70.9021 28.1964L74.0487 28.4693L73.8576 30.6722L73.1042 30.6069L73.2203 29.2683L72.7771 29.2298L72.6779 30.3734L71.9777 30.3127L72.0769 29.1691L71.5806 29.1261L71.461 30.5045Z" fill="url(#paint15_linear_4957_61)"></path><path d="M70.5795 31.2324L73.5919 32.1816L73.156 33.5649C73.1097 33.712 73.0358 33.838 72.9344 33.9429C72.8357 34.0486 72.7231 34.1298 72.5965 34.1863C72.4718 34.2465 72.3378 34.282 72.1945 34.2928C72.054 34.3045 71.9201 34.2903 71.7928 34.2502C71.6174 34.195 71.4654 34.1051 71.3367 33.9806C71.2109 33.857 71.1213 33.7121 71.0679 33.546L69.76 33.8336L70.0541 32.9001L71.1461 32.6611L71.2437 32.3513L70.3188 32.0599L70.5795 31.2324ZM71.965 32.5786L71.8006 33.1005C71.7845 33.1514 71.7981 33.207 71.8413 33.2673C71.8836 33.3304 71.9557 33.378 72.0575 33.41C72.1622 33.443 72.2494 33.4425 72.3192 33.4085C72.3918 33.3754 72.4361 33.3334 72.4521 33.2825L72.6099 32.7818L71.965 32.5786Z" fill="url(#paint16_linear_4957_61)"></path><path d="M70.3321 37.1981C70.423 37.1481 70.5102 37.0925 70.5939 37.0313C70.6649 36.98 70.7386 36.9182 70.815 36.846C70.8924 36.7778 70.955 36.7027 71.0027 36.6207C71.0415 36.554 71.0626 36.4942 71.0659 36.4413C71.0678 36.3909 71.0444 36.3515 70.9957 36.3232C70.9598 36.3023 70.9236 36.2967 70.8871 36.3063C70.8506 36.316 70.8094 36.3366 70.7636 36.3682C70.7203 36.4014 70.6717 36.4435 70.618 36.4946C70.5628 36.5482 70.4992 36.6073 70.4273 36.6719C70.3158 36.7751 70.2079 36.8633 70.1035 36.9364C69.9977 37.0121 69.8919 37.0672 69.7861 37.1016C69.6828 37.1376 69.5751 37.1487 69.463 37.135C69.3509 37.1212 69.2308 37.077 69.1026 37.0024C68.9386 36.907 68.8181 36.7956 68.7411 36.6685C68.6652 36.5454 68.623 36.4144 68.6146 36.2757C68.6046 36.1395 68.6208 35.9996 68.6632 35.8561C68.7066 35.7166 68.7648 35.5841 68.8379 35.4585C68.8961 35.3585 68.9635 35.2604 69.04 35.1643C69.1166 35.0681 69.1995 34.9757 69.2889 34.887C69.3767 34.8009 69.4682 34.7203 69.5634 34.6453C69.657 34.5728 69.7521 34.5097 69.8485 34.456L70.318 35.1617C70.2094 35.2186 70.1049 35.2831 70.0047 35.3551C69.9185 35.4148 69.8302 35.4869 69.7397 35.5716C69.6478 35.6588 69.5705 35.7562 69.5079 35.8639C69.4601 35.9459 69.4376 36.0083 69.4402 36.051C69.4438 36.0977 69.4636 36.1315 69.4995 36.1524C69.538 36.1748 69.5797 36.1768 69.6247 36.1584C69.6708 36.144 69.7205 36.1146 69.7738 36.0701C69.8272 36.0257 69.8857 35.9723 69.9495 35.9098C70.0118 35.85 70.0809 35.7873 70.1568 35.7216C70.2679 35.625 70.3719 35.5466 70.4688 35.4863C70.5682 35.4275 70.6638 35.387 70.7556 35.3649C70.8499 35.3443 70.9437 35.3423 71.037 35.3589C71.1288 35.378 71.2247 35.4166 71.3247 35.4748C71.4759 35.5628 71.5935 35.6673 71.6775 35.7883C71.76 35.9118 71.8121 36.0434 71.8338 36.183C71.8555 36.3226 71.8506 36.4638 71.8189 36.6067C71.7883 36.7536 71.7335 36.895 71.6544 37.0309C71.5962 37.1309 71.5293 37.2223 71.4536 37.3052C71.3804 37.3896 71.3031 37.4665 71.2216 37.5357C71.1412 37.609 71.0607 37.6737 70.9801 37.7297C70.902 37.7872 70.8297 37.8378 70.7631 37.8814L70.3321 37.1981Z" fill="url(#paint17_linear_4957_61)"></path><ellipse cx="61.5353" cy="20.8984" rx="1.82271" ry="1.7619" fill="#2E3192"></ellipse><path fill-rule="evenodd" clip-rule="evenodd" d="M62.7857 30.2553C62.7858 30.2553 62.7859 30.2553 62.786 30.2553V32.6434C62.786 32.959 63.0418 33.2148 63.3574 33.2148H64.6537C64.9692 33.2148 65.2251 32.959 65.2251 32.6434V26.9256L65.2252 26.8989C65.2252 24.9292 63.5734 23.3325 61.5357 23.3325C59.5105 23.3325 57.8663 24.9099 57.8465 26.8631C57.8462 26.8698 57.8461 26.8765 57.8461 26.8833V32.6434C57.8461 32.959 58.102 33.2148 58.4175 33.2148H59.7138C60.0243 33.2148 60.277 32.967 60.285 32.6584V26.933H60.2861C60.3141 26.2985 60.8627 25.7922 61.5354 25.7922C62.2081 25.7922 62.7567 26.2985 62.7846 26.933H62.7857V26.979L62.7857 26.9839L62.7857 26.9887V30.2553ZM64.0056 26.3118L64.0157 26.3119H63.9955L64.0056 26.3118ZM59.0657 26.3118L59.0758 26.3119H59.0556L59.0657 26.3118Z" fill="#2E3192"></path><g opacity="0.75"><ellipse cx="56.5589" cy="20.8984" rx="1.77127" ry="1.7619" fill="#00ADEF"></ellipse><path fill-rule="evenodd" clip-rule="evenodd" d="M55.3331 32.6569V26.9887L55.3331 26.9839L55.3331 26.979V26.933H55.3342C55.3622 26.2985 55.9108 25.7922 56.5835 25.7922C57.2561 25.7922 57.8047 26.2985 57.8327 26.933H57.8338V30.2552C57.8339 30.2552 57.834 30.2552 57.8341 30.2551V27.5314L57.8341 27.522V32.6434C57.8341 32.959 58.0899 33.2148 58.4055 33.2148H59.7017C60.0173 33.2148 60.2732 32.959 60.2732 32.6434V26.8833C60.2732 26.8757 60.273 26.8681 60.2727 26.8606C60.2515 24.9086 58.6079 23.3325 56.5835 23.3325C54.5459 23.3325 52.8941 24.9292 52.8941 26.8989L52.8942 26.9294V32.6434C52.8942 32.959 53.1501 33.2148 53.4656 33.2148H54.7619C55.0729 33.2148 55.326 32.9662 55.3331 32.6569ZM54.1137 26.3118L54.1252 26.3119H54.1023L54.1137 26.3118ZM59.0536 26.3118L59.065 26.3119H59.0422L59.0536 26.3118Z" fill="#00ADEF"></path></g><g opacity="0.75"><ellipse cx="51.6319" cy="20.8984" rx="1.82271" ry="1.7619" fill="#99DEF9"></ellipse><path fill-rule="evenodd" clip-rule="evenodd" d="M50.3815 30.2552V26.9887L50.3815 26.9839L50.3815 26.979V26.933H50.3826C50.4106 26.2985 50.9592 25.7922 51.6318 25.7922C52.3045 25.7922 52.8531 26.2985 52.8811 26.933H52.8822V30.2552C52.8822 30.2552 52.8822 30.2552 52.8822 30.2552V32.6433C52.8822 32.9589 53.1381 33.2148 53.4537 33.2148H54.7499C55.0655 33.2148 55.3213 32.9589 55.3213 32.6433V26.8833L55.3211 26.8675C55.3037 24.9123 53.6586 23.3325 51.6318 23.3325C49.6029 23.3325 47.9565 24.9156 47.9424 26.8736L47.9424 26.8833V26.8904L47.9424 26.8989L47.9424 26.9073V32.6433C47.9424 32.9589 48.1982 33.2148 48.5138 33.2148H49.81C50.1256 33.2148 50.3815 32.9589 50.3815 32.6433V30.2552C50.3815 30.2552 50.3815 30.2552 50.3815 30.2552Z" fill="#99DEF9"></path></g><defs><linearGradient id="paint0_linear_4957_61" x1="35.0047" y1="41.753" x2="79.4391" y2="37.4716" gradientUnits="userSpaceOnUse"><stop stop-color="#00ADEF"></stop><stop offset="1" stop-color="#2E3192"></stop></linearGradient><linearGradient id="paint1_linear_4957_61" x1="35.0047" y1="41.753" x2="79.4391" y2="37.4716" gradientUnits="userSpaceOnUse"><stop stop-color="#00ADEF"></stop><stop offset="1" stop-color="#2E3192"></stop></linearGradient><linearGradient id="paint2_linear_4957_61" x1="35.0047" y1="41.753" x2="79.4391" y2="37.4716" gradientUnits="userSpaceOnUse"><stop stop-color="#00ADEF"></stop><stop offset="1" stop-color="#2E3192"></stop></linearGradient><linearGradient id="paint3_linear_4957_61" x1="35.0047" y1="41.753" x2="79.4391" y2="37.4716" gradientUnits="userSpaceOnUse"><stop stop-color="#00ADEF"></stop><stop offset="1" stop-color="#2E3192"></stop></linearGradient><linearGradient id="paint4_linear_4957_61" x1="35.0047" y1="41.753" x2="79.4391" y2="37.4716" gradientUnits="userSpaceOnUse"><stop stop-color="#00ADEF"></stop><stop offset="1" stop-color="#2E3192"></stop></linearGradient><linearGradient id="paint5_linear_4957_61" x1="35.0047" y1="41.753" x2="79.4391" y2="37.4716" gradientUnits="userSpaceOnUse"><stop stop-color="#00ADEF"></stop><stop offset="1" stop-color="#2E3192"></stop></linearGradient><linearGradient id="paint6_linear_4957_61" x1="35.0047" y1="41.753" x2="79.4391" y2="37.4716" gradientUnits="userSpaceOnUse"><stop stop-color="#00ADEF"></stop><stop offset="1" stop-color="#2E3192"></stop></linearGradient><linearGradient id="paint7_linear_4957_61" x1="35.0047" y1="41.753" x2="79.4391" y2="37.4716" gradientUnits="userSpaceOnUse"><stop stop-color="#00ADEF"></stop><stop offset="1" stop-color="#2E3192"></stop></linearGradient><linearGradient id="paint8_linear_4957_61" x1="35.0047" y1="41.753" x2="79.4391" y2="37.4716" gradientUnits="userSpaceOnUse"><stop stop-color="#00ADEF"></stop><stop offset="1" stop-color="#2E3192"></stop></linearGradient><linearGradient id="paint9_linear_4957_61" x1="35.0047" y1="41.753" x2="79.4391" y2="37.4716" gradientUnits="userSpaceOnUse"><stop stop-color="#00ADEF"></stop><stop offset="1" stop-color="#2E3192"></stop></linearGradient><linearGradient id="paint10_linear_4957_61" x1="35.0047" y1="41.753" x2="79.4391" y2="37.4716" gradientUnits="userSpaceOnUse"><stop stop-color="#00ADEF"></stop><stop offset="1" stop-color="#2E3192"></stop></linearGradient><linearGradient id="paint11_linear_4957_61" x1="35.0047" y1="41.753" x2="79.4391" y2="37.4716" gradientUnits="userSpaceOnUse"><stop stop-color="#00ADEF"></stop><stop offset="1" stop-color="#2E3192"></stop></linearGradient><linearGradient id="paint12_linear_4957_61" x1="35.0047" y1="41.753" x2="79.4391" y2="37.4716" gradientUnits="userSpaceOnUse"><stop stop-color="#00ADEF"></stop><stop offset="1" stop-color="#2E3192"></stop></linearGradient><linearGradient id="paint13_linear_4957_61" x1="35.0047" y1="41.753" x2="79.4391" y2="37.4716" gradientUnits="userSpaceOnUse"><stop stop-color="#00ADEF"></stop><stop offset="1" stop-color="#2E3192"></stop></linearGradient><linearGradient id="paint14_linear_4957_61" x1="35.0047" y1="41.753" x2="79.4391" y2="37.4716" gradientUnits="userSpaceOnUse"><stop stop-color="#00ADEF"></stop><stop offset="1" stop-color="#2E3192"></stop></linearGradient><linearGradient id="paint15_linear_4957_61" x1="35.0047" y1="41.753" x2="79.4391" y2="37.4716" gradientUnits="userSpaceOnUse"><stop stop-color="#00ADEF"></stop><stop offset="1" stop-color="#2E3192"></stop></linearGradient><linearGradient id="paint16_linear_4957_61" x1="35.0047" y1="41.753" x2="79.4391" y2="37.4716" gradientUnits="userSpaceOnUse"><stop stop-color="#00ADEF"></stop><stop offset="1" stop-color="#2E3192"></stop></linearGradient><linearGradient id="paint17_linear_4957_61" x1="35.0047" y1="41.753" x2="79.4391" y2="37.4716" gradientUnits="userSpaceOnUse"><stop stop-color="#00ADEF"></stop><stop offset="1" stop-color="#2E3192"></stop></linearGradient></defs></svg>