<svg xmlns="http://www.w3.org/2000/svg" width="72" height="15" viewBox="0 0 72 15" fill="none"><path d="M21.4403 12V3.48H25.0523C25.4443 3.48 25.8043 3.56 26.1323 3.72C26.4603 3.88 26.7443 4.096 26.9843 4.368C27.2323 4.64 27.4243 4.944 27.5603 5.28C27.6963 5.616 27.7643 5.96 27.7643 6.312C27.7643 6.792 27.6523 7.248 27.4283 7.68C27.2043 8.112 26.8963 8.464 26.5043 8.736C26.1123 9.008 25.6483 9.144 25.1123 9.144H23.0963V12H21.4403ZM23.0963 7.692H25.0163C25.2163 7.692 25.3963 7.636 25.5563 7.524C25.7163 7.412 25.8443 7.252 25.9403 7.044C26.0363 6.828 26.0843 6.584 26.0843 6.312C26.0843 6.016 26.0283 5.764 25.9163 5.556C25.8123 5.348 25.6723 5.192 25.4963 5.088C25.3283 4.984 25.1443 4.932 24.9443 4.932H23.0963V7.692ZM38.4809 3.48V12H36.8369V8.364H32.9729V12H31.3169V3.48H32.9729V6.924H36.8369V3.48H38.4809ZM46.2943 12.06C45.6703 12.06 45.1023 11.94 44.5903 11.7C44.0863 11.46 43.6503 11.136 43.2823 10.728C42.9223 10.312 42.6423 9.848 42.4423 9.336C42.2423 8.816 42.1423 8.284 42.1423 7.74C42.1423 7.172 42.2463 6.632 42.4543 6.12C42.6703 5.6 42.9623 5.14 43.3303 4.74C43.7063 4.332 44.1463 4.012 44.6503 3.78C45.1623 3.54 45.7223 3.42 46.3303 3.42C46.9463 3.42 47.5063 3.544 48.0103 3.792C48.5223 4.04 48.9583 4.372 49.3183 4.788C49.6783 5.204 49.9583 5.668 50.1583 6.18C50.3583 6.692 50.4583 7.22 50.4583 7.764C50.4583 8.324 50.3543 8.864 50.1463 9.384C49.9383 9.896 49.6463 10.356 49.2703 10.764C48.9023 11.164 48.4623 11.48 47.9503 11.712C47.4463 11.944 46.8943 12.06 46.2943 12.06ZM43.8223 7.74C43.8223 8.108 43.8783 8.464 43.9903 8.808C44.1023 9.152 44.2623 9.46 44.4703 9.732C44.6863 9.996 44.9463 10.208 45.2503 10.368C45.5623 10.52 45.9143 10.596 46.3063 10.596C46.7063 10.596 47.0623 10.516 47.3743 10.356C47.6863 10.188 47.9463 9.968 48.1543 9.696C48.3623 9.416 48.5183 9.108 48.6223 8.772C48.7343 8.428 48.7903 8.084 48.7903 7.74C48.7903 7.372 48.7303 7.02 48.6103 6.684C48.4983 6.34 48.3343 6.036 48.1183 5.772C47.9103 5.5 47.6503 5.288 47.3383 5.136C47.0343 4.976 46.6903 4.896 46.3063 4.896C45.8983 4.896 45.5383 4.98 45.2263 5.148C44.9223 5.308 44.6663 5.524 44.4583 5.796C44.2503 6.068 44.0903 6.372 43.9783 6.708C43.8743 7.044 43.8223 7.388 43.8223 7.74ZM55.7846 6.528V12H54.1286V3.48H55.4486L59.8526 9.096V3.492H61.5086V12H60.1286L55.7846 6.528ZM71.597 10.548V12H65.681V3.48H71.489V4.932H67.337V6.984H70.925V8.328H67.337V10.548H71.597Z" fill="#0084FF"></path><path d="M15.0053 10.2048C14.8848 11.1201 14.4353 11.9602 13.7407 12.5683C13.0461 13.1764 12.1539 13.5109 11.2307 13.5092C5.86746 13.5092 1.50391 9.14569 1.50391 3.78248C1.50226 2.85931 1.83671 1.96711 2.4448 1.27251C3.05289 0.577907 3.89304 0.128409 4.80832 0.00796892C5.03978 -0.020292 5.27416 0.0270589 5.47649 0.142953C5.67882 0.258848 5.83824 0.437069 5.93096 0.651014L7.35756 3.83584V3.84395C7.42854 4.00772 7.45786 4.18652 7.44289 4.36438C7.42792 4.54224 7.36913 4.71363 7.27177 4.86323C7.25961 4.88147 7.24678 4.89835 7.23327 4.91524L5.82694 6.58229C6.33287 7.61035 7.40822 8.67624 8.4498 9.18352L10.0939 7.78463C10.11 7.77105 10.127 7.75842 10.1446 7.7468C10.294 7.6471 10.466 7.58624 10.6449 7.56973C10.8238 7.55322 11.004 7.58158 11.1692 7.65223L11.178 7.65629L14.3602 9.0822C14.5745 9.17458 14.7532 9.33386 14.8694 9.53622C14.9857 9.73858 15.0334 9.97314 15.0053 10.2048Z" fill="#0084FF"></path><path fill-rule="evenodd" clip-rule="evenodd" d="M12.3936 13.7462C11.8786 13.9959 11.3098 14.128 10.7287 14.127C5.36549 14.127 1.00194 9.76347 1.00194 4.40026C1.00074 3.7297 1.17687 3.07548 1.50639 2.50146C1.30182 2.6506 1.11215 2.82025 0.940894 3.00863C0.332803 3.67751 -0.00164878 4.53667 6.11211e-06 5.42564C6.11211e-06 10.5902 4.36356 14.7921 9.72681 14.7921C10.65 14.7937 11.5422 14.4717 12.2368 13.8861C12.2905 13.8408 12.3428 13.7941 12.3936 13.7462Z" fill="#F97E29"></path></svg>