<svg xmlns="http://www.w3.org/2000/svg" width="68" height="13" viewBox="0 0 68 13" fill="none"><path d="M29.1103 8.548V10H23.1943V1.48H29.0023V2.932H24.8503V4.984H28.4383V6.328H24.8503V8.548H29.1103ZM39.7493 10V4.408L37.5653 8.572H36.6413L34.4573 4.408V10H32.8013V1.48H34.5773L37.0973 6.328L39.6413 1.48H41.4053V10H39.7493ZM47.9001 1.48H49.5801L52.7121 10H51.0081L50.2161 7.876H47.2401L46.4601 10H44.7561L47.9001 1.48ZM49.9161 6.712L48.7401 3.196L47.5161 6.712H49.9161ZM56.0466 10V1.48H57.7026V10H56.0466ZM61.8802 10V1.48H63.5362V8.548H67.8802V10H61.8802Z" fill="#0084FF"></path><path d="M15.4261 2.99364L9.50922 6.7357L3.59237 2.99364V1.49682L9.50922 5.23888L15.4261 1.49682M15.4261 0H3.59237C2.77141 0 2.11316 0.666086 2.11316 1.49682V10.4778C2.11316 10.8747 2.269 11.2555 2.54641 11.5362C2.82382 11.8169 3.20006 11.9746 3.59237 11.9746H15.4261C15.8184 11.9746 16.1946 11.8169 16.472 11.5362C16.7494 11.2555 16.9053 10.8747 16.9053 10.4778V1.49682C16.9053 1.09984 16.7494 0.719118 16.472 0.438409C16.1946 0.1577 15.8184 0 15.4261 0Z" fill="#0084FF"></path><path fill-rule="evenodd" clip-rule="evenodd" d="M2.26318 0.0037529C2.26318 0.0019499 2.26172 0.000488281 2.25992 0.000488281H1.13159C0.506631 0.000488281 0 0.507119 0 1.13208V10.9392C0 11.5642 0.50663 12.0708 1.13159 12.0708H2.25982C2.26168 12.0708 2.26318 12.0693 2.26318 12.0674V12.0674C2.26318 12.0657 2.26189 12.0643 2.26019 12.0641C1.97313 12.0311 1.703 11.8781 1.49739 11.6289C1.26396 11.3459 1.13281 10.9622 1.13281 10.562V1.50928C1.13281 0.71987 1.62508 0.077959 2.26026 0.00700354C2.26192 0.00681856 2.26318 0.00541914 2.26318 0.0037529V0.0037529Z" fill="#F9751B"></path></svg>