<svg xmlns="http://www.w3.org/2000/svg" width="200" height="54" viewBox="0 0 200 54" fill="none"><rect y="6" width="194" height="48" rx="5" fill="url(#paint0_linear_5140_39)"></rect><path d="M47.616 24.832V32.672C47.616 33.76 47.3013 34.608 46.672 35.216C46.0427 35.8133 45.2 36.112 44.144 36.112C43.0773 36.112 42.2133 35.8027 41.552 35.184C40.9013 34.5653 40.576 33.7013 40.576 32.592H42.816C42.8267 33.072 42.9387 33.4453 43.152 33.712C43.376 33.9787 43.696 34.112 44.112 34.112C44.5173 34.112 44.8267 33.984 45.04 33.728C45.2533 33.472 45.36 33.12 45.36 32.672V24.832H47.616ZM53.365 36.144C52.5117 36.144 51.7437 35.9573 51.061 35.584C50.3783 35.2 49.8397 34.6613 49.445 33.968C49.061 33.2747 48.869 32.4747 48.869 31.568C48.869 30.6613 49.0663 29.8613 49.461 29.168C49.8663 28.4747 50.4157 27.9413 51.109 27.568C51.8023 27.184 52.5757 26.992 53.429 26.992C54.2823 26.992 55.0557 27.184 55.749 27.568C56.4423 27.9413 56.9863 28.4747 57.381 29.168C57.7863 29.8613 57.989 30.6613 57.989 31.568C57.989 32.4747 57.781 33.2747 57.365 33.968C56.9597 34.6613 56.405 35.2 55.701 35.584C55.0077 35.9573 54.229 36.144 53.365 36.144ZM53.365 34.192C53.7703 34.192 54.149 34.096 54.501 33.904C54.8637 33.7013 55.1517 33.4027 55.365 33.008C55.5783 32.6133 55.685 32.1333 55.685 31.568C55.685 30.7253 55.461 30.08 55.013 29.632C54.5757 29.1733 54.037 28.944 53.397 28.944C52.757 28.944 52.2183 29.1733 51.781 29.632C51.3543 30.08 51.141 30.7253 51.141 31.568C51.141 32.4107 51.349 33.0613 51.765 33.52C52.1917 33.968 52.725 34.192 53.365 34.192ZM59.9681 26.08C59.5735 26.08 59.2428 25.9573 58.9761 25.712C58.7201 25.456 58.5921 25.1413 58.5921 24.768C58.5921 24.3947 58.7201 24.0853 58.9761 23.84C59.2428 23.584 59.5735 23.456 59.9681 23.456C60.3628 23.456 60.6881 23.584 60.9441 23.84C61.2108 24.0853 61.3441 24.3947 61.3441 24.768C61.3441 25.1413 61.2108 25.456 60.9441 25.712C60.6881 25.9573 60.3628 26.08 59.9681 26.08ZM61.0721 27.136V36H58.8321V27.136H61.0721ZM67.3973 27.008C68.4533 27.008 69.3066 27.344 69.9573 28.016C70.6079 28.6773 70.9333 29.6053 70.9333 30.8V36H68.6933V31.104C68.6933 30.4 68.5173 29.8613 68.1653 29.488C67.8133 29.104 67.3333 28.912 66.7253 28.912C66.1066 28.912 65.6159 29.104 65.2533 29.488C64.9013 29.8613 64.7253 30.4 64.7253 31.104V36H62.4853V27.136H64.7253V28.24C65.0239 27.856 65.4026 27.5573 65.8613 27.344C66.3306 27.12 66.8426 27.008 67.3973 27.008ZM87.5639 27.136L84.9719 36H82.5559L80.9399 29.808L79.3239 36H76.8919L74.2839 27.136H76.5559L78.1239 33.888L79.8199 27.136H82.1879L83.8519 33.872L85.4199 27.136H87.5639ZM87.3999 31.536C87.3999 30.64 87.5759 29.8453 87.9279 29.152C88.2905 28.4587 88.7759 27.9253 89.3839 27.552C90.0025 27.1787 90.6905 26.992 91.4479 26.992C92.1092 26.992 92.6852 27.1253 93.1759 27.392C93.6772 27.6587 94.0772 27.9947 94.3759 28.4V27.136H96.6319V36H94.3759V34.704C94.0879 35.12 93.6879 35.4667 93.1759 35.744C92.6745 36.0107 92.0932 36.144 91.4319 36.144C90.6852 36.144 90.0025 35.952 89.3839 35.568C88.7759 35.184 88.2905 34.6453 87.9279 33.952C87.5759 33.248 87.3999 32.4427 87.3999 31.536ZM94.3759 31.568C94.3759 31.024 94.2692 30.56 94.0559 30.176C93.8425 29.7813 93.5545 29.4827 93.1919 29.28C92.8292 29.0667 92.4399 28.96 92.0239 28.96C91.6079 28.96 91.2239 29.0613 90.8719 29.264C90.5199 29.4667 90.2319 29.7653 90.0079 30.16C89.7945 30.544 89.6879 31.0027 89.6879 31.536C89.6879 32.0693 89.7945 32.5387 90.0079 32.944C90.2319 33.3387 90.5199 33.6427 90.8719 33.856C91.2345 34.0693 91.6185 34.176 92.0239 34.176C92.4399 34.176 92.8292 34.0747 93.1919 33.872C93.5545 33.6587 93.8425 33.36 94.0559 32.976C94.2692 32.5813 94.3759 32.112 94.3759 31.568ZM99.1556 26.08C98.761 26.08 98.4303 25.9573 98.1636 25.712C97.9076 25.456 97.7796 25.1413 97.7796 24.768C97.7796 24.3947 97.9076 24.0853 98.1636 23.84C98.4303 23.584 98.761 23.456 99.1556 23.456C99.5503 23.456 99.8756 23.584 100.132 23.84C100.398 24.0853 100.532 24.3947 100.532 24.768C100.532 25.1413 100.398 25.456 100.132 25.712C99.8756 25.9573 99.5503 26.08 99.1556 26.08ZM100.26 27.136V36H98.0196V27.136H100.26ZM104.281 28.976V33.264C104.281 33.5627 104.35 33.7813 104.489 33.92C104.638 34.048 104.883 34.112 105.225 34.112H106.265V36H104.857C102.969 36 102.025 35.0827 102.025 33.248V28.976H100.969V27.136H102.025V24.944H104.281V27.136H106.265V28.976H104.281ZM108.212 26.08C107.817 26.08 107.487 25.9573 107.22 25.712C106.964 25.456 106.836 25.1413 106.836 24.768C106.836 24.3947 106.964 24.0853 107.22 23.84C107.487 23.584 107.817 23.456 108.212 23.456C108.607 23.456 108.932 23.584 109.188 23.84C109.455 24.0853 109.588 24.3947 109.588 24.768C109.588 25.1413 109.455 25.456 109.188 25.712C108.932 25.9573 108.607 26.08 108.212 26.08ZM109.316 27.136V36H107.076V27.136H109.316ZM115.641 27.008C116.697 27.008 117.55 27.344 118.201 28.016C118.852 28.6773 119.177 29.6053 119.177 30.8V36H116.937V31.104C116.937 30.4 116.761 29.8613 116.409 29.488C116.057 29.104 115.577 28.912 114.969 28.912C114.35 28.912 113.86 29.104 113.497 29.488C113.145 29.8613 112.969 30.4 112.969 31.104V36H110.729V27.136H112.969V28.24C113.268 27.856 113.646 27.5573 114.105 27.344C114.574 27.12 115.086 27.008 115.641 27.008ZM123.979 26.992C124.64 26.992 125.222 27.1253 125.723 27.392C126.224 27.648 126.619 27.984 126.907 28.4V27.136H129.163V36.064C129.163 36.8853 128.998 37.616 128.667 38.256C128.336 38.9067 127.84 39.4187 127.179 39.792C126.518 40.176 125.718 40.368 124.779 40.368C123.52 40.368 122.486 40.0747 121.675 39.488C120.875 38.9013 120.422 38.1013 120.315 37.088H122.539C122.656 37.4933 122.907 37.8133 123.291 38.048C123.686 38.2933 124.16 38.416 124.715 38.416C125.366 38.416 125.894 38.2187 126.299 37.824C126.704 37.44 126.907 36.8533 126.907 36.064V34.688C126.619 35.104 126.219 35.4507 125.707 35.728C125.206 36.0053 124.63 36.144 123.979 36.144C123.232 36.144 122.55 35.952 121.931 35.568C121.312 35.184 120.822 34.6453 120.459 33.952C120.107 33.248 119.931 32.4427 119.931 31.536C119.931 30.64 120.107 29.8453 120.459 29.152C120.822 28.4587 121.307 27.9253 121.915 27.552C122.534 27.1787 123.222 26.992 123.979 26.992ZM126.907 31.568C126.907 31.024 126.8 30.56 126.587 30.176C126.374 29.7813 126.086 29.4827 125.723 29.28C125.36 29.0667 124.971 28.96 124.555 28.96C124.139 28.96 123.755 29.0613 123.403 29.264C123.051 29.4667 122.763 29.7653 122.539 30.16C122.326 30.544 122.219 31.0027 122.219 31.536C122.219 32.0693 122.326 32.5387 122.539 32.944C122.763 33.3387 123.051 33.6427 123.403 33.856C123.766 34.0693 124.15 34.176 124.555 34.176C124.971 34.176 125.36 34.0747 125.723 33.872C126.086 33.6587 126.374 33.36 126.587 32.976C126.8 32.5813 126.907 32.112 126.907 31.568ZM135.803 24.16V36H133.563V24.16H135.803ZM138.353 26.08C137.958 26.08 137.627 25.9573 137.361 25.712C137.105 25.456 136.977 25.1413 136.977 24.768C136.977 24.3947 137.105 24.0853 137.361 23.84C137.627 23.584 137.958 23.456 138.353 23.456C138.747 23.456 139.073 23.584 139.329 23.84C139.595 24.0853 139.729 24.3947 139.729 24.768C139.729 25.1413 139.595 25.456 139.329 25.712C139.073 25.9573 138.747 26.08 138.353 26.08ZM139.457 27.136V36H137.217V27.136H139.457ZM144.262 36.144C143.536 36.144 142.886 36.016 142.31 35.76C141.734 35.4933 141.275 35.136 140.934 34.688C140.603 34.24 140.422 33.744 140.39 33.2H142.646C142.688 33.5413 142.854 33.824 143.142 34.048C143.44 34.272 143.808 34.384 144.246 34.384C144.672 34.384 145.003 34.2987 145.238 34.128C145.483 33.9573 145.606 33.7387 145.606 33.472C145.606 33.184 145.456 32.9707 145.158 32.832C144.87 32.6827 144.406 32.5227 143.766 32.352C143.104 32.192 142.56 32.0267 142.134 31.856C141.718 31.6853 141.355 31.424 141.046 31.072C140.747 30.72 140.598 30.2453 140.598 29.648C140.598 29.1573 140.736 28.7093 141.014 28.304C141.302 27.8987 141.707 27.5787 142.23 27.344C142.763 27.1093 143.387 26.992 144.102 26.992C145.158 26.992 146 27.2587 146.63 27.792C147.259 28.3147 147.606 29.024 147.67 29.92H145.526C145.494 29.568 145.344 29.2907 145.078 29.088C144.822 28.8747 144.475 28.768 144.038 28.768C143.632 28.768 143.318 28.8427 143.094 28.992C142.88 29.1413 142.774 29.3493 142.774 29.616C142.774 29.9147 142.923 30.144 143.222 30.304C143.52 30.4533 143.984 30.608 144.614 30.768C145.254 30.928 145.782 31.0933 146.198 31.264C146.614 31.4347 146.971 31.7013 147.27 32.064C147.579 32.416 147.739 32.8853 147.75 33.472C147.75 33.984 147.606 34.4427 147.318 34.848C147.04 35.2533 146.635 35.5733 146.102 35.808C145.579 36.032 144.966 36.144 144.262 36.144ZM151.396 28.976V33.264C151.396 33.5627 151.466 33.7813 151.604 33.92C151.754 34.048 151.999 34.112 152.34 34.112H153.38V36H151.972C150.084 36 149.14 35.0827 149.14 33.248V28.976H148.084V27.136H149.14V24.944H151.396V27.136H153.38V28.976H151.396Z" fill="black"></path><rect x="6" width="194" height="48" rx="5" fill="white"></rect><path d="M53.6723 18.832V26.672C53.6723 27.76 53.3576 28.608 52.7283 29.216C52.0989 29.8133 51.2563 30.112 50.2003 30.112C49.1336 30.112 48.2696 29.8027 47.6083 29.184C46.9576 28.5653 46.6323 27.7013 46.6323 26.592H48.8723C48.8829 27.072 48.9949 27.4453 49.2083 27.712C49.4323 27.9787 49.7523 28.112 50.1683 28.112C50.5736 28.112 50.8829 27.984 51.0963 27.728C51.3096 27.472 51.4163 27.12 51.4163 26.672V18.832H53.6723ZM59.4213 30.144C58.5679 30.144 57.7999 29.9573 57.1173 29.584C56.4346 29.2 55.8959 28.6613 55.5013 27.968C55.1173 27.2747 54.9253 26.4747 54.9253 25.568C54.9253 24.6613 55.1226 23.8613 55.5173 23.168C55.9226 22.4747 56.4719 21.9413 57.1653 21.568C57.8586 21.184 58.6319 20.992 59.4853 20.992C60.3386 20.992 61.1119 21.184 61.8053 21.568C62.4986 21.9413 63.0426 22.4747 63.4373 23.168C63.8426 23.8613 64.0453 24.6613 64.0453 25.568C64.0453 26.4747 63.8373 27.2747 63.4213 27.968C63.0159 28.6613 62.4613 29.2 61.7573 29.584C61.0639 29.9573 60.2853 30.144 59.4213 30.144ZM59.4213 28.192C59.8266 28.192 60.2053 28.096 60.5573 27.904C60.9199 27.7013 61.2079 27.4027 61.4213 27.008C61.6346 26.6133 61.7413 26.1333 61.7413 25.568C61.7413 24.7253 61.5173 24.08 61.0693 23.632C60.6319 23.1733 60.0933 22.944 59.4533 22.944C58.8133 22.944 58.2746 23.1733 57.8373 23.632C57.4106 24.08 57.1973 24.7253 57.1973 25.568C57.1973 26.4107 57.4053 27.0613 57.8213 27.52C58.2479 27.968 58.7813 28.192 59.4213 28.192ZM66.0244 20.08C65.6297 20.08 65.299 19.9573 65.0324 19.712C64.7764 19.456 64.6484 19.1413 64.6484 18.768C64.6484 18.3947 64.7764 18.0853 65.0324 17.84C65.299 17.584 65.6297 17.456 66.0244 17.456C66.419 17.456 66.7444 17.584 67.0004 17.84C67.267 18.0853 67.4004 18.3947 67.4004 18.768C67.4004 19.1413 67.267 19.456 67.0004 19.712C66.7444 19.9573 66.419 20.08 66.0244 20.08ZM67.1284 21.136V30H64.8884V21.136H67.1284ZM73.4535 21.008C74.5095 21.008 75.3628 21.344 76.0135 22.016C76.6642 22.6773 76.9895 23.6053 76.9895 24.8V30H74.7495V25.104C74.7495 24.4 74.5735 23.8613 74.2215 23.488C73.8695 23.104 73.3895 22.912 72.7815 22.912C72.1628 22.912 71.6722 23.104 71.3095 23.488C70.9575 23.8613 70.7815 24.4 70.7815 25.104V30H68.5415V21.136H70.7815V22.24C71.0802 21.856 71.4588 21.5573 71.9175 21.344C72.3868 21.12 72.8988 21.008 73.4535 21.008ZM93.6201 21.136L91.0281 30H88.6121L86.9961 23.808L85.3801 30H82.9481L80.3401 21.136H82.6121L84.1801 27.888L85.8761 21.136H88.2441L89.9081 27.872L91.4761 21.136H93.6201ZM93.4561 25.536C93.4561 24.64 93.6321 23.8453 93.9841 23.152C94.3468 22.4587 94.8321 21.9253 95.4401 21.552C96.0588 21.1787 96.7468 20.992 97.5041 20.992C98.1655 20.992 98.7415 21.1253 99.2321 21.392C99.7335 21.6587 100.133 21.9947 100.432 22.4V21.136H102.688V30H100.432V28.704C100.144 29.12 99.7441 29.4667 99.2321 29.744C98.7308 30.0107 98.1495 30.144 97.4881 30.144C96.7415 30.144 96.0588 29.952 95.4401 29.568C94.8321 29.184 94.3468 28.6453 93.9841 27.952C93.6321 27.248 93.4561 26.4427 93.4561 25.536ZM100.432 25.568C100.432 25.024 100.325 24.56 100.112 24.176C99.8988 23.7813 99.6108 23.4827 99.2481 23.28C98.8855 23.0667 98.4961 22.96 98.0801 22.96C97.6641 22.96 97.2801 23.0613 96.9281 23.264C96.5761 23.4667 96.2881 23.7653 96.0641 24.16C95.8508 24.544 95.7441 25.0027 95.7441 25.536C95.7441 26.0693 95.8508 26.5387 96.0641 26.944C96.2881 27.3387 96.5761 27.6427 96.9281 27.856C97.2908 28.0693 97.6748 28.176 98.0801 28.176C98.4961 28.176 98.8855 28.0747 99.2481 27.872C99.6108 27.6587 99.8988 27.36 100.112 26.976C100.325 26.5813 100.432 26.112 100.432 25.568ZM105.212 20.08C104.817 20.08 104.487 19.9573 104.22 19.712C103.964 19.456 103.836 19.1413 103.836 18.768C103.836 18.3947 103.964 18.0853 104.22 17.84C104.487 17.584 104.817 17.456 105.212 17.456C105.607 17.456 105.932 17.584 106.188 17.84C106.455 18.0853 106.588 18.3947 106.588 18.768C106.588 19.1413 106.455 19.456 106.188 19.712C105.932 19.9573 105.607 20.08 105.212 20.08ZM106.316 21.136V30H104.076V21.136H106.316ZM110.337 22.976V27.264C110.337 27.5627 110.406 27.7813 110.545 27.92C110.694 28.048 110.94 28.112 111.281 28.112H112.321V30H110.913C109.025 30 108.081 29.0827 108.081 27.248V22.976H107.025V21.136H108.081V18.944H110.337V21.136H112.321V22.976H110.337ZM114.268 20.08C113.873 20.08 113.543 19.9573 113.276 19.712C113.02 19.456 112.892 19.1413 112.892 18.768C112.892 18.3947 113.02 18.0853 113.276 17.84C113.543 17.584 113.873 17.456 114.268 17.456C114.663 17.456 114.988 17.584 115.244 17.84C115.511 18.0853 115.644 18.3947 115.644 18.768C115.644 19.1413 115.511 19.456 115.244 19.712C114.988 19.9573 114.663 20.08 114.268 20.08ZM115.372 21.136V30H113.132V21.136H115.372ZM121.697 21.008C122.753 21.008 123.607 21.344 124.257 22.016C124.908 22.6773 125.233 23.6053 125.233 24.8V30H122.993V25.104C122.993 24.4 122.817 23.8613 122.465 23.488C122.113 23.104 121.633 22.912 121.025 22.912C120.407 22.912 119.916 23.104 119.553 23.488C119.201 23.8613 119.025 24.4 119.025 25.104V30H116.785V21.136H119.025V22.24C119.324 21.856 119.703 21.5573 120.161 21.344C120.631 21.12 121.143 21.008 121.697 21.008ZM130.035 20.992C130.697 20.992 131.278 21.1253 131.779 21.392C132.281 21.648 132.675 21.984 132.963 22.4V21.136H135.219V30.064C135.219 30.8853 135.054 31.616 134.723 32.256C134.393 32.9067 133.897 33.4187 133.235 33.792C132.574 34.176 131.774 34.368 130.835 34.368C129.577 34.368 128.542 34.0747 127.731 33.488C126.931 32.9013 126.478 32.1013 126.371 31.088H128.595C128.713 31.4933 128.963 31.8133 129.347 32.048C129.742 32.2933 130.217 32.416 130.771 32.416C131.422 32.416 131.95 32.2187 132.355 31.824C132.761 31.44 132.963 30.8533 132.963 30.064V28.688C132.675 29.104 132.275 29.4507 131.763 29.728C131.262 30.0053 130.686 30.144 130.035 30.144C129.289 30.144 128.606 29.952 127.987 29.568C127.369 29.184 126.878 28.6453 126.515 27.952C126.163 27.248 125.987 26.4427 125.987 25.536C125.987 24.64 126.163 23.8453 126.515 23.152C126.878 22.4587 127.363 21.9253 127.971 21.552C128.59 21.1787 129.278 20.992 130.035 20.992ZM132.963 25.568C132.963 25.024 132.857 24.56 132.643 24.176C132.43 23.7813 132.142 23.4827 131.779 23.28C131.417 23.0667 131.027 22.96 130.611 22.96C130.195 22.96 129.811 23.0613 129.459 23.264C129.107 23.4667 128.819 23.7653 128.595 24.16C128.382 24.544 128.275 25.0027 128.275 25.536C128.275 26.0693 128.382 26.5387 128.595 26.944C128.819 27.3387 129.107 27.6427 129.459 27.856C129.822 28.0693 130.206 28.176 130.611 28.176C131.027 28.176 131.417 28.0747 131.779 27.872C132.142 27.6587 132.43 27.36 132.643 26.976C132.857 26.5813 132.963 26.112 132.963 25.568ZM141.86 18.16V30H139.62V18.16H141.86ZM144.409 20.08C144.014 20.08 143.683 19.9573 143.417 19.712C143.161 19.456 143.033 19.1413 143.033 18.768C143.033 18.3947 143.161 18.0853 143.417 17.84C143.683 17.584 144.014 17.456 144.409 17.456C144.803 17.456 145.129 17.584 145.385 17.84C145.651 18.0853 145.785 18.3947 145.785 18.768C145.785 19.1413 145.651 19.456 145.385 19.712C145.129 19.9573 144.803 20.08 144.409 20.08ZM145.513 21.136V30H143.273V21.136H145.513ZM150.318 30.144C149.593 30.144 148.942 30.016 148.366 29.76C147.79 29.4933 147.331 29.136 146.99 28.688C146.659 28.24 146.478 27.744 146.446 27.2H148.702C148.745 27.5413 148.91 27.824 149.198 28.048C149.497 28.272 149.865 28.384 150.302 28.384C150.729 28.384 151.059 28.2987 151.294 28.128C151.539 27.9573 151.662 27.7387 151.662 27.472C151.662 27.184 151.513 26.9707 151.214 26.832C150.926 26.6827 150.462 26.5227 149.822 26.352C149.161 26.192 148.617 26.0267 148.19 25.856C147.774 25.6853 147.411 25.424 147.102 25.072C146.803 24.72 146.654 24.2453 146.654 23.648C146.654 23.1573 146.793 22.7093 147.07 22.304C147.358 21.8987 147.763 21.5787 148.286 21.344C148.819 21.1093 149.443 20.992 150.158 20.992C151.214 20.992 152.057 21.2587 152.686 21.792C153.315 22.3147 153.662 23.024 153.726 23.92H151.582C151.55 23.568 151.401 23.2907 151.134 23.088C150.878 22.8747 150.531 22.768 150.094 22.768C149.689 22.768 149.374 22.8427 149.15 22.992C148.937 23.1413 148.83 23.3493 148.83 23.616C148.83 23.9147 148.979 24.144 149.278 24.304C149.577 24.4533 150.041 24.608 150.67 24.768C151.31 24.928 151.838 25.0933 152.254 25.264C152.67 25.4347 153.027 25.7013 153.326 26.064C153.635 26.416 153.795 26.8853 153.806 27.472C153.806 27.984 153.662 28.4427 153.374 28.848C153.097 29.2533 152.691 29.5733 152.158 29.808C151.635 30.032 151.022 30.144 150.318 30.144ZM157.453 22.976V27.264C157.453 27.5627 157.522 27.7813 157.661 27.92C157.81 28.048 158.055 28.112 158.397 28.112H159.437V30H158.029C156.141 30 155.197 29.0827 155.197 27.248V22.976H154.141V21.136H155.197V18.944H157.453V21.136H159.437V22.976H157.453Z" fill="black"></path><defs><linearGradient id="paint0_linear_5140_39" x1="201" y1="54" x2="43.4823" y2="75.674" gradientUnits="userSpaceOnUse"><stop stop-color="#FF0E12"></stop><stop offset="1" stop-color="#FFAB0E"></stop></linearGradient></defs></svg>