<svg xmlns="http://www.w3.org/2000/svg" width="208" height="54" viewBox="0 0 208 54" fill="none"><rect y="6" width="201" height="48" rx="5" fill="url(#paint0_linear_5140_44)"></rect><path d="M47.616 24.832V32.672C47.616 33.76 47.3013 34.608 46.672 35.216C46.0427 35.8133 45.2 36.112 44.144 36.112C43.0773 36.112 42.2133 35.8027 41.552 35.184C40.9013 34.5653 40.576 33.7013 40.576 32.592H42.816C42.8267 33.072 42.9387 33.4453 43.152 33.712C43.376 33.9787 43.696 34.112 44.112 34.112C44.5173 34.112 44.8267 33.984 45.04 33.728C45.2533 33.472 45.36 33.12 45.36 32.672V24.832H47.616ZM53.365 36.144C52.5117 36.144 51.7437 35.9573 51.061 35.584C50.3783 35.2 49.8397 34.6613 49.445 33.968C49.061 33.2747 48.869 32.4747 48.869 31.568C48.869 30.6613 49.0663 29.8613 49.461 29.168C49.8663 28.4747 50.4157 27.9413 51.109 27.568C51.8023 27.184 52.5757 26.992 53.429 26.992C54.2823 26.992 55.0557 27.184 55.749 27.568C56.4423 27.9413 56.9863 28.4747 57.381 29.168C57.7863 29.8613 57.989 30.6613 57.989 31.568C57.989 32.4747 57.781 33.2747 57.365 33.968C56.9597 34.6613 56.405 35.2 55.701 35.584C55.0077 35.9573 54.229 36.144 53.365 36.144ZM53.365 34.192C53.7703 34.192 54.149 34.096 54.501 33.904C54.8637 33.7013 55.1517 33.4027 55.365 33.008C55.5783 32.6133 55.685 32.1333 55.685 31.568C55.685 30.7253 55.461 30.08 55.013 29.632C54.5757 29.1733 54.037 28.944 53.397 28.944C52.757 28.944 52.2183 29.1733 51.781 29.632C51.3543 30.08 51.141 30.7253 51.141 31.568C51.141 32.4107 51.349 33.0613 51.765 33.52C52.1917 33.968 52.725 34.192 53.365 34.192ZM59.9681 26.08C59.5735 26.08 59.2428 25.9573 58.9761 25.712C58.7201 25.456 58.5921 25.1413 58.5921 24.768C58.5921 24.3947 58.7201 24.0853 58.9761 23.84C59.2428 23.584 59.5735 23.456 59.9681 23.456C60.3628 23.456 60.6881 23.584 60.9441 23.84C61.2108 24.0853 61.3441 24.3947 61.3441 24.768C61.3441 25.1413 61.2108 25.456 60.9441 25.712C60.6881 25.9573 60.3628 26.08 59.9681 26.08ZM61.0721 27.136V36H58.8321V27.136H61.0721ZM67.3973 27.008C68.4533 27.008 69.3066 27.344 69.9573 28.016C70.6079 28.6773 70.9333 29.6053 70.9333 30.8V36H68.6933V31.104C68.6933 30.4 68.5173 29.8613 68.1653 29.488C67.8133 29.104 67.3333 28.912 66.7253 28.912C66.1066 28.912 65.6159 29.104 65.2533 29.488C64.9013 29.8613 64.7253 30.4 64.7253 31.104V36H62.4853V27.136H64.7253V28.24C65.0239 27.856 65.4026 27.5573 65.8613 27.344C66.3306 27.12 66.8426 27.008 67.3973 27.008ZM74.6999 31.568C74.6999 30.6507 74.8865 29.8507 75.2599 29.168C75.6332 28.4747 76.1505 27.9413 76.8119 27.568C77.4732 27.184 78.2305 26.992 79.0839 26.992C80.1825 26.992 81.0892 27.2693 81.8039 27.824C82.5292 28.368 83.0145 29.136 83.2599 30.128H80.8439C80.7159 29.744 80.4972 29.4453 80.1879 29.232C79.8892 29.008 79.5159 28.896 79.0679 28.896C78.4279 28.896 77.9212 29.1307 77.5479 29.6C77.1745 30.0587 76.9879 30.7147 76.9879 31.568C76.9879 32.4107 77.1745 33.0667 77.5479 33.536C77.9212 33.9947 78.4279 34.224 79.0679 34.224C79.9745 34.224 80.5665 33.8187 80.8439 33.008H83.2599C83.0145 33.968 82.5292 34.7307 81.8039 35.296C81.0785 35.8613 80.1719 36.144 79.0839 36.144C78.2305 36.144 77.4732 35.9573 76.8119 35.584C76.1505 35.2 75.6332 34.6667 75.2599 33.984C74.8865 33.2907 74.6999 32.4853 74.6999 31.568ZM86.3409 24.16V36H84.1009V24.16H86.3409ZM91.69 36.144C90.8367 36.144 90.0687 35.9573 89.386 35.584C88.7033 35.2 88.1647 34.6613 87.77 33.968C87.386 33.2747 87.194 32.4747 87.194 31.568C87.194 30.6613 87.3913 29.8613 87.786 29.168C88.1913 28.4747 88.7407 27.9413 89.434 27.568C90.1273 27.184 90.9007 26.992 91.754 26.992C92.6073 26.992 93.3807 27.184 94.074 27.568C94.7673 27.9413 95.3113 28.4747 95.706 29.168C96.1113 29.8613 96.314 30.6613 96.314 31.568C96.314 32.4747 96.106 33.2747 95.69 33.968C95.2847 34.6613 94.73 35.2 94.026 35.584C93.3327 35.9573 92.554 36.144 91.69 36.144ZM91.69 34.192C92.0953 34.192 92.474 34.096 92.826 33.904C93.1887 33.7013 93.4767 33.4027 93.69 33.008C93.9033 32.6133 94.01 32.1333 94.01 31.568C94.01 30.7253 93.786 30.08 93.338 29.632C92.9007 29.1733 92.362 28.944 91.722 28.944C91.082 28.944 90.5433 29.1733 90.106 29.632C89.6793 30.08 89.466 30.7253 89.466 31.568C89.466 32.4107 89.674 33.0613 90.09 33.52C90.5167 33.968 91.05 34.192 91.69 34.192ZM100.549 36.144C99.8238 36.144 99.1731 36.016 98.5971 35.76C98.0211 35.4933 97.5625 35.136 97.2211 34.688C96.8905 34.24 96.7091 33.744 96.6771 33.2H98.9331C98.9758 33.5413 99.1411 33.824 99.4291 34.048C99.7278 34.272 100.096 34.384 100.533 34.384C100.96 34.384 101.29 34.2987 101.525 34.128C101.77 33.9573 101.893 33.7387 101.893 33.472C101.893 33.184 101.744 32.9707 101.445 32.832C101.157 32.6827 100.693 32.5227 100.053 32.352C99.3918 32.192 98.8478 32.0267 98.4211 31.856C98.0051 31.6853 97.6425 31.424 97.3331 31.072C97.0345 30.72 96.8851 30.2453 96.8851 29.648C96.8851 29.1573 97.0238 28.7093 97.3011 28.304C97.5891 27.8987 97.9945 27.5787 98.5171 27.344C99.0505 27.1093 99.6745 26.992 100.389 26.992C101.445 26.992 102.288 27.2587 102.917 27.792C103.546 28.3147 103.893 29.024 103.957 29.92H101.813C101.781 29.568 101.632 29.2907 101.365 29.088C101.109 28.8747 100.762 28.768 100.325 28.768C99.9198 28.768 99.6051 28.8427 99.3811 28.992C99.1678 29.1413 99.0611 29.3493 99.0611 29.616C99.0611 29.9147 99.2105 30.144 99.5091 30.304C99.8078 30.4533 100.272 30.608 100.901 30.768C101.541 30.928 102.069 31.0933 102.485 31.264C102.901 31.4347 103.258 31.7013 103.557 32.064C103.866 32.416 104.026 32.8853 104.037 33.472C104.037 33.984 103.893 34.4427 103.605 34.848C103.328 35.2533 102.922 35.5733 102.389 35.808C101.866 36.032 101.253 36.144 100.549 36.144ZM113.316 31.376C113.316 31.696 113.295 31.984 113.252 32.24H106.772C106.825 32.88 107.049 33.3813 107.444 33.744C107.839 34.1067 108.324 34.288 108.9 34.288C109.732 34.288 110.324 33.9307 110.676 33.216H113.092C112.836 34.0693 112.345 34.7733 111.62 35.328C110.895 35.872 110.004 36.144 108.948 36.144C108.095 36.144 107.327 35.9573 106.644 35.584C105.972 35.2 105.444 34.6613 105.06 33.968C104.687 33.2747 104.5 32.4747 104.5 31.568C104.5 30.6507 104.687 29.8453 105.06 29.152C105.433 28.4587 105.956 27.9253 106.628 27.552C107.3 27.1787 108.073 26.992 108.948 26.992C109.791 26.992 110.543 27.1733 111.204 27.536C111.876 27.8987 112.393 28.416 112.756 29.088C113.129 29.7493 113.316 30.512 113.316 31.376ZM110.996 30.736C110.985 30.16 110.777 29.7013 110.372 29.36C109.967 29.008 109.471 28.832 108.884 28.832C108.329 28.832 107.86 29.0027 107.476 29.344C107.103 29.6747 106.873 30.1387 106.788 30.736H110.996ZM113.575 31.536C113.575 30.64 113.751 29.8453 114.103 29.152C114.466 28.4587 114.956 27.9253 115.575 27.552C116.194 27.1787 116.882 26.992 117.639 26.992C118.215 26.992 118.764 27.12 119.287 27.376C119.81 27.6213 120.226 27.952 120.535 28.368V24.16H122.807V36H120.535V34.688C120.258 35.1253 119.868 35.4773 119.367 35.744C118.866 36.0107 118.284 36.144 117.623 36.144C116.876 36.144 116.194 35.952 115.575 35.568C114.956 35.184 114.466 34.6453 114.103 33.952C113.751 33.248 113.575 32.4427 113.575 31.536ZM120.551 31.568C120.551 31.024 120.444 30.56 120.231 30.176C120.018 29.7813 119.73 29.4827 119.367 29.28C119.004 29.0667 118.615 28.96 118.199 28.96C117.783 28.96 117.399 29.0613 117.047 29.264C116.695 29.4667 116.407 29.7653 116.183 30.16C115.97 30.544 115.863 31.0027 115.863 31.536C115.863 32.0693 115.97 32.5387 116.183 32.944C116.407 33.3387 116.695 33.6427 117.047 33.856C117.41 34.0693 117.794 34.176 118.199 34.176C118.615 34.176 119.004 34.0747 119.367 33.872C119.73 33.6587 120.018 33.36 120.231 32.976C120.444 32.5813 120.551 32.112 120.551 31.568ZM133.543 30.272C134.172 30.3893 134.69 30.704 135.095 31.216C135.5 31.728 135.703 32.3147 135.703 32.976C135.703 33.5733 135.554 34.1013 135.255 34.56C134.967 35.008 134.546 35.36 133.991 35.616C133.436 35.872 132.78 36 132.023 36H127.207V24.832H131.815C132.572 24.832 133.223 24.9547 133.767 25.2C134.322 25.4453 134.738 25.7867 135.015 26.224C135.303 26.6613 135.447 27.1573 135.447 27.712C135.447 28.3627 135.271 28.9067 134.919 29.344C134.578 29.7813 134.119 30.0907 133.543 30.272ZM129.447 29.44H131.495C132.028 29.44 132.439 29.3227 132.727 29.088C133.015 28.8427 133.159 28.496 133.159 28.048C133.159 27.6 133.015 27.2533 132.727 27.008C132.439 26.7627 132.028 26.64 131.495 26.64H129.447V29.44ZM131.703 34.176C132.247 34.176 132.668 34.048 132.967 33.792C133.276 33.536 133.431 33.1733 133.431 32.704C133.431 32.224 133.271 31.8507 132.951 31.584C132.631 31.3067 132.199 31.168 131.655 31.168H129.447V34.176H131.703ZM144.928 31.376C144.928 31.696 144.907 31.984 144.864 32.24H138.384C138.438 32.88 138.662 33.3813 139.056 33.744C139.451 34.1067 139.936 34.288 140.512 34.288C141.344 34.288 141.936 33.9307 142.288 33.216H144.704C144.448 34.0693 143.958 34.7733 143.232 35.328C142.507 35.872 141.616 36.144 140.56 36.144C139.707 36.144 138.939 35.9573 138.256 35.584C137.584 35.2 137.056 34.6613 136.672 33.968C136.299 33.2747 136.112 32.4747 136.112 31.568C136.112 30.6507 136.299 29.8453 136.672 29.152C137.046 28.4587 137.568 27.9253 138.24 27.552C138.912 27.1787 139.686 26.992 140.56 26.992C141.403 26.992 142.155 27.1733 142.816 27.536C143.488 27.8987 144.006 28.416 144.368 29.088C144.742 29.7493 144.928 30.512 144.928 31.376ZM142.608 30.736C142.598 30.16 142.39 29.7013 141.984 29.36C141.579 29.008 141.083 28.832 140.496 28.832C139.942 28.832 139.472 29.0027 139.088 29.344C138.715 29.6747 138.486 30.1387 138.4 30.736H142.608ZM148.371 28.976V33.264C148.371 33.5627 148.441 33.7813 148.579 33.92C148.729 34.048 148.974 34.112 149.315 34.112H150.355V36H148.947C147.059 36 146.115 35.0827 146.115 33.248V28.976H145.059V27.136H146.115V24.944H148.371V27.136H150.355V28.976H148.371ZM150.59 31.536C150.59 30.64 150.766 29.8453 151.118 29.152C151.481 28.4587 151.967 27.9253 152.575 27.552C153.193 27.1787 153.881 26.992 154.639 26.992C155.3 26.992 155.876 27.1253 156.367 27.392C156.868 27.6587 157.268 27.9947 157.567 28.4V27.136H159.823V36H157.567V34.704C157.279 35.12 156.879 35.4667 156.367 35.744C155.865 36.0107 155.284 36.144 154.623 36.144C153.876 36.144 153.193 35.952 152.575 35.568C151.967 35.184 151.481 34.6453 151.118 33.952C150.766 33.248 150.59 32.4427 150.59 31.536ZM157.567 31.568C157.567 31.024 157.46 30.56 157.247 30.176C157.033 29.7813 156.745 29.4827 156.383 29.28C156.02 29.0667 155.631 28.96 155.215 28.96C154.799 28.96 154.415 29.0613 154.062 29.264C153.711 29.4667 153.423 29.7653 153.199 30.16C152.985 30.544 152.879 31.0027 152.879 31.536C152.879 32.0693 152.985 32.5387 153.199 32.944C153.423 33.3387 153.711 33.6427 154.062 33.856C154.425 34.0693 154.809 34.176 155.215 34.176C155.631 34.176 156.02 34.0747 156.383 33.872C156.745 33.6587 157.033 33.36 157.247 32.976C157.46 32.5813 157.567 32.112 157.567 31.568Z" fill="black"></path><rect x="6" width="202" height="48" rx="5" fill="white"></rect><path d="M53.8816 18.832V26.672C53.8816 27.76 53.567 28.608 52.9376 29.216C52.3083 29.8133 51.4656 30.112 50.4096 30.112C49.343 30.112 48.479 29.8027 47.8176 29.184C47.167 28.5653 46.8416 27.7013 46.8416 26.592H49.0816C49.0923 27.072 49.2043 27.4453 49.4176 27.712C49.6416 27.9787 49.9616 28.112 50.3776 28.112C50.783 28.112 51.0923 27.984 51.3056 27.728C51.519 27.472 51.6256 27.12 51.6256 26.672V18.832H53.8816ZM59.6306 30.144C58.7773 30.144 58.0093 29.9573 57.3266 29.584C56.644 29.2 56.1053 28.6613 55.7106 27.968C55.3266 27.2747 55.1346 26.4747 55.1346 25.568C55.1346 24.6613 55.332 23.8613 55.7266 23.168C56.132 22.4747 56.6813 21.9413 57.3746 21.568C58.068 21.184 58.8413 20.992 59.6946 20.992C60.548 20.992 61.3213 21.184 62.0146 21.568C62.708 21.9413 63.252 22.4747 63.6466 23.168C64.052 23.8613 64.2546 24.6613 64.2546 25.568C64.2546 26.4747 64.0466 27.2747 63.6306 27.968C63.2253 28.6613 62.6706 29.2 61.9666 29.584C61.2733 29.9573 60.4946 30.144 59.6306 30.144ZM59.6306 28.192C60.036 28.192 60.4146 28.096 60.7666 27.904C61.1293 27.7013 61.4173 27.4027 61.6306 27.008C61.844 26.6133 61.9506 26.1333 61.9506 25.568C61.9506 24.7253 61.7266 24.08 61.2786 23.632C60.8413 23.1733 60.3026 22.944 59.6626 22.944C59.0226 22.944 58.484 23.1733 58.0466 23.632C57.62 24.08 57.4066 24.7253 57.4066 25.568C57.4066 26.4107 57.6146 27.0613 58.0306 27.52C58.4573 27.968 58.9906 28.192 59.6306 28.192ZM66.2337 20.08C65.8391 20.08 65.5084 19.9573 65.2417 19.712C64.9857 19.456 64.8577 19.1413 64.8577 18.768C64.8577 18.3947 64.9857 18.0853 65.2417 17.84C65.5084 17.584 65.8391 17.456 66.2337 17.456C66.6284 17.456 66.9537 17.584 67.2097 17.84C67.4764 18.0853 67.6097 18.3947 67.6097 18.768C67.6097 19.1413 67.4764 19.456 67.2097 19.712C66.9537 19.9573 66.6284 20.08 66.2337 20.08ZM67.3377 21.136V30H65.0977V21.136H67.3377ZM73.6629 21.008C74.7189 21.008 75.5722 21.344 76.2229 22.016C76.8735 22.6773 77.1989 23.6053 77.1989 24.8V30H74.9589V25.104C74.9589 24.4 74.7829 23.8613 74.4309 23.488C74.0789 23.104 73.5989 22.912 72.9909 22.912C72.3722 22.912 71.8815 23.104 71.5189 23.488C71.1669 23.8613 70.9909 24.4 70.9909 25.104V30H68.7509V21.136H70.9909V22.24C71.2895 21.856 71.6682 21.5573 72.1269 21.344C72.5962 21.12 73.1082 21.008 73.6629 21.008ZM80.9655 25.568C80.9655 24.6507 81.1522 23.8507 81.5255 23.168C81.8988 22.4747 82.4162 21.9413 83.0775 21.568C83.7388 21.184 84.4962 20.992 85.3495 20.992C86.4482 20.992 87.3548 21.2693 88.0695 21.824C88.7948 22.368 89.2802 23.136 89.5255 24.128H87.1095C86.9815 23.744 86.7628 23.4453 86.4535 23.232C86.1548 23.008 85.7815 22.896 85.3335 22.896C84.6935 22.896 84.1868 23.1307 83.8135 23.6C83.4402 24.0587 83.2535 24.7147 83.2535 25.568C83.2535 26.4107 83.4402 27.0667 83.8135 27.536C84.1868 27.9947 84.6935 28.224 85.3335 28.224C86.2402 28.224 86.8322 27.8187 87.1095 27.008H89.5255C89.2802 27.968 88.7948 28.7307 88.0695 29.296C87.3442 29.8613 86.4375 30.144 85.3495 30.144C84.4962 30.144 83.7388 29.9573 83.0775 29.584C82.4162 29.2 81.8988 28.6667 81.5255 27.984C81.1522 27.2907 80.9655 26.4853 80.9655 25.568ZM92.6065 18.16V30H90.3665V18.16H92.6065ZM97.9556 30.144C97.1023 30.144 96.3343 29.9573 95.6516 29.584C94.969 29.2 94.4303 28.6613 94.0356 27.968C93.6516 27.2747 93.4596 26.4747 93.4596 25.568C93.4596 24.6613 93.657 23.8613 94.0516 23.168C94.457 22.4747 95.0063 21.9413 95.6996 21.568C96.393 21.184 97.1663 20.992 98.0196 20.992C98.873 20.992 99.6463 21.184 100.34 21.568C101.033 21.9413 101.577 22.4747 101.972 23.168C102.377 23.8613 102.58 24.6613 102.58 25.568C102.58 26.4747 102.372 27.2747 101.956 27.968C101.55 28.6613 100.996 29.2 100.292 29.584C99.5983 29.9573 98.8196 30.144 97.9556 30.144ZM97.9556 28.192C98.361 28.192 98.7396 28.096 99.0916 27.904C99.4543 27.7013 99.7423 27.4027 99.9556 27.008C100.169 26.6133 100.276 26.1333 100.276 25.568C100.276 24.7253 100.052 24.08 99.6036 23.632C99.1663 23.1733 98.6276 22.944 97.9876 22.944C97.3476 22.944 96.809 23.1733 96.3716 23.632C95.945 24.08 95.7316 24.7253 95.7316 25.568C95.7316 26.4107 95.9396 27.0613 96.3556 27.52C96.7823 27.968 97.3156 28.192 97.9556 28.192ZM106.815 30.144C106.089 30.144 105.439 30.016 104.863 29.76C104.287 29.4933 103.828 29.136 103.487 28.688C103.156 28.24 102.975 27.744 102.943 27.2H105.199C105.241 27.5413 105.407 27.824 105.695 28.048C105.993 28.272 106.361 28.384 106.799 28.384C107.225 28.384 107.556 28.2987 107.791 28.128C108.036 27.9573 108.159 27.7387 108.159 27.472C108.159 27.184 108.009 26.9707 107.711 26.832C107.423 26.6827 106.959 26.5227 106.319 26.352C105.657 26.192 105.113 26.0267 104.687 25.856C104.271 25.6853 103.908 25.424 103.599 25.072C103.3 24.72 103.151 24.2453 103.151 23.648C103.151 23.1573 103.289 22.7093 103.567 22.304C103.855 21.8987 104.26 21.5787 104.783 21.344C105.316 21.1093 105.94 20.992 106.655 20.992C107.711 20.992 108.553 21.2587 109.183 21.792C109.812 22.3147 110.159 23.024 110.223 23.92H108.079C108.047 23.568 107.897 23.2907 107.631 23.088C107.375 22.8747 107.028 22.768 106.591 22.768C106.185 22.768 105.871 22.8427 105.647 22.992C105.433 23.1413 105.327 23.3493 105.327 23.616C105.327 23.9147 105.476 24.144 105.775 24.304C106.073 24.4533 106.537 24.608 107.167 24.768C107.807 24.928 108.335 25.0933 108.751 25.264C109.167 25.4347 109.524 25.7013 109.823 26.064C110.132 26.416 110.292 26.8853 110.303 27.472C110.303 27.984 110.159 28.4427 109.871 28.848C109.593 29.2533 109.188 29.5733 108.655 29.808C108.132 30.032 107.519 30.144 106.815 30.144ZM119.582 25.376C119.582 25.696 119.56 25.984 119.518 26.24H113.038C113.091 26.88 113.315 27.3813 113.71 27.744C114.104 28.1067 114.59 28.288 115.166 28.288C115.998 28.288 116.59 27.9307 116.942 27.216H119.358C119.102 28.0693 118.611 28.7733 117.886 29.328C117.16 29.872 116.27 30.144 115.214 30.144C114.36 30.144 113.592 29.9573 112.91 29.584C112.238 29.2 111.71 28.6613 111.326 27.968C110.952 27.2747 110.766 26.4747 110.766 25.568C110.766 24.6507 110.952 23.8453 111.326 23.152C111.699 22.4587 112.222 21.9253 112.894 21.552C113.566 21.1787 114.339 20.992 115.214 20.992C116.056 20.992 116.808 21.1733 117.47 21.536C118.142 21.8987 118.659 22.416 119.022 23.088C119.395 23.7493 119.582 24.512 119.582 25.376ZM117.262 24.736C117.251 24.16 117.043 23.7013 116.638 23.36C116.232 23.008 115.736 22.832 115.15 22.832C114.595 22.832 114.126 23.0027 113.742 23.344C113.368 23.6747 113.139 24.1387 113.054 24.736H117.262ZM119.84 25.536C119.84 24.64 120.016 23.8453 120.368 23.152C120.731 22.4587 121.222 21.9253 121.841 21.552C122.459 21.1787 123.147 20.992 123.905 20.992C124.481 20.992 125.03 21.12 125.553 21.376C126.075 21.6213 126.491 21.952 126.801 22.368V18.16H129.073V30H126.801V28.688C126.523 29.1253 126.134 29.4773 125.633 29.744C125.131 30.0107 124.55 30.144 123.889 30.144C123.142 30.144 122.459 29.952 121.841 29.568C121.222 29.184 120.731 28.6453 120.368 27.952C120.016 27.248 119.84 26.4427 119.84 25.536ZM126.817 25.568C126.817 25.024 126.71 24.56 126.497 24.176C126.283 23.7813 125.995 23.4827 125.633 23.28C125.27 23.0667 124.881 22.96 124.465 22.96C124.049 22.96 123.665 23.0613 123.312 23.264C122.961 23.4667 122.673 23.7653 122.449 24.16C122.235 24.544 122.129 25.0027 122.129 25.536C122.129 26.0693 122.235 26.5387 122.449 26.944C122.673 27.3387 122.961 27.6427 123.312 27.856C123.675 28.0693 124.059 28.176 124.465 28.176C124.881 28.176 125.27 28.0747 125.633 27.872C125.995 27.6587 126.283 27.36 126.497 26.976C126.71 26.5813 126.817 26.112 126.817 25.568ZM135.713 22.432C136.001 22.0053 136.395 21.6587 136.897 21.392C137.409 21.1253 137.99 20.992 138.641 20.992C139.398 20.992 140.081 21.1787 140.689 21.552C141.307 21.9253 141.793 22.4587 142.145 23.152C142.507 23.8347 142.689 24.6293 142.689 25.536C142.689 26.4427 142.507 27.248 142.145 27.952C141.793 28.6453 141.307 29.184 140.689 29.568C140.081 29.952 139.398 30.144 138.641 30.144C137.979 30.144 137.398 30.016 136.897 29.76C136.406 29.4933 136.011 29.152 135.713 28.736V30H133.473V18.16H135.713V22.432ZM140.401 25.536C140.401 25.0027 140.289 24.544 140.065 24.16C139.851 23.7653 139.563 23.4667 139.201 23.264C138.849 23.0613 138.465 22.96 138.049 22.96C137.643 22.96 137.259 23.0667 136.897 23.28C136.545 23.4827 136.257 23.7813 136.033 24.176C135.819 24.5707 135.713 25.0347 135.713 25.568C135.713 26.1013 135.819 26.5653 136.033 26.96C136.257 27.3547 136.545 27.6587 136.897 27.872C137.259 28.0747 137.643 28.176 138.049 28.176C138.465 28.176 138.849 28.0693 139.201 27.856C139.563 27.6427 139.851 27.3387 140.065 26.944C140.289 26.5493 140.401 26.08 140.401 25.536ZM151.756 25.376C151.756 25.696 151.735 25.984 151.692 26.24H145.212C145.266 26.88 145.49 27.3813 145.884 27.744C146.279 28.1067 146.764 28.288 147.34 28.288C148.172 28.288 148.764 27.9307 149.116 27.216H151.532C151.276 28.0693 150.786 28.7733 150.06 29.328C149.335 29.872 148.444 30.144 147.388 30.144C146.535 30.144 145.767 29.9573 145.084 29.584C144.412 29.2 143.884 28.6613 143.5 27.968C143.127 27.2747 142.94 26.4747 142.94 25.568C142.94 24.6507 143.127 23.8453 143.5 23.152C143.874 22.4587 144.396 21.9253 145.068 21.552C145.74 21.1787 146.514 20.992 147.388 20.992C148.231 20.992 148.983 21.1733 149.644 21.536C150.316 21.8987 150.834 22.416 151.196 23.088C151.57 23.7493 151.756 24.512 151.756 25.376ZM149.436 24.736C149.426 24.16 149.218 23.7013 148.812 23.36C148.407 23.008 147.911 22.832 147.324 22.832C146.77 22.832 146.3 23.0027 145.916 23.344C145.543 23.6747 145.314 24.1387 145.228 24.736H149.436ZM155.2 22.976V27.264C155.2 27.5627 155.269 27.7813 155.408 27.92C155.557 28.048 155.802 28.112 156.144 28.112H157.184V30H155.776C153.888 30 152.944 29.0827 152.944 27.248V22.976H151.888V21.136H152.944V18.944H155.2V21.136H157.184V22.976H155.2ZM157.419 25.536C157.419 24.64 157.595 23.8453 157.947 23.152C158.309 22.4587 158.795 21.9253 159.403 21.552C160.021 21.1787 160.709 20.992 161.467 20.992C162.128 20.992 162.704 21.1253 163.195 21.392C163.696 21.6587 164.096 21.9947 164.395 22.4V21.136H166.651V30H164.395V28.704C164.107 29.12 163.707 29.4667 163.195 29.744C162.693 30.0107 162.112 30.144 161.451 30.144C160.704 30.144 160.021 29.952 159.403 29.568C158.795 29.184 158.309 28.6453 157.947 27.952C157.595 27.248 157.419 26.4427 157.419 25.536ZM164.395 25.568C164.395 25.024 164.288 24.56 164.075 24.176C163.861 23.7813 163.573 23.4827 163.211 23.28C162.848 23.0667 162.459 22.96 162.043 22.96C161.627 22.96 161.243 23.0613 160.891 23.264C160.539 23.4667 160.251 23.7653 160.027 24.16C159.813 24.544 159.707 25.0027 159.707 25.536C159.707 26.0693 159.813 26.5387 160.027 26.944C160.251 27.3387 160.539 27.6427 160.891 27.856C161.253 28.0693 161.637 28.176 162.043 28.176C162.459 28.176 162.848 28.0747 163.211 27.872C163.573 27.6587 163.861 27.36 164.075 26.976C164.288 26.5813 164.395 26.112 164.395 25.568Z" fill="black"></path><defs><linearGradient id="paint0_linear_5140_44" x1="-0.208676" y1="53.6819" x2="188.754" y2="-23.6509" gradientUnits="userSpaceOnUse"><stop offset="0.180452" stop-color="#FF0E12"></stop><stop offset="1" stop-color="#FFAB0E"></stop></linearGradient></defs></svg>