<svg width="379" height="31" viewBox="0 0 379 31" fill="none" xmlns="http://www.w3.org/2000/svg">
<path d="M0.0126953 31V1.1672H25.7457C33.0294 1.1672 37.042 4.74364 37.042 10.2828C37.042 14.5571 34.6432 17.2612 30.6306 18.308C34.5123 19.442 36.3005 22.0153 36.3005 25.2864V31H31.3284V25.1992C31.3284 22.8003 29.8019 20.4887 25.5712 20.4887H4.81037V31H0.0126953ZM4.81037 16.2144H26.0946C30.6306 16.2144 32.1135 13.2486 32.1135 10.8062C32.1135 8.36371 30.6742 5.44149 26.0946 5.44149H4.81037V16.2144ZM71.4524 7.01164L83.4465 31H78.2999L74.2437 22.8876H50.9096L46.8534 31H41.7068L53.701 7.01164C55.62 3.12988 57.9316 0.774658 62.5549 0.774658C67.2217 0.774658 69.4897 3.12988 71.4524 7.01164ZM72.0194 18.6133L66.7419 8.01478C65.826 6.18294 64.692 5.04895 62.5549 5.04895C60.4613 5.04895 59.3273 6.18294 58.4114 8.01478L53.0904 18.6133H72.0194ZM89.4562 1.1672H94.2539V31H89.4562V1.1672ZM101.535 26.6821H127.879C132.153 26.6821 133.898 25.2428 133.898 22.844C133.898 20.3143 131.848 18.9622 126.919 18.5697L112.308 17.3921C105.635 16.8687 101.884 14.4698 101.884 9.236C101.884 3.39157 106.638 1.1672 112.613 1.1672H136.82V5.4851H112.177C108.732 5.4851 106.769 6.57549 106.769 9.10517C106.769 11.4168 108.339 12.638 113.529 13.0305L127.617 14.1645C134.639 14.7315 138.87 16.9559 138.87 22.6695C138.87 27.6416 135.555 31 127.573 31H101.535V26.6821ZM181.965 5.74679H158.456C151.827 5.74679 149.472 8.53817 149.123 13.9465H181.354V18.2644H149.123C149.472 23.629 151.827 26.3768 158.456 26.3768H181.965V31H158.456C148.076 31 144.238 25.9843 144.238 16.0836C144.238 6.18294 148.076 1.1672 158.456 1.1672H181.965V5.74679ZM204.7 31H202.737V2.95542H186.207V1.1672H221.23V2.95542H204.7V31ZM247.732 6.88079L259.203 31H257.109L252.53 21.361H226.579L221.999 31H219.905L231.376 6.88079C233.383 2.65012 235.825 0.818273 239.532 0.818273C243.283 0.818273 245.726 2.65012 247.732 6.88079ZM251.657 19.6164L245.813 7.36056C244.461 4.48195 242.716 2.56289 239.532 2.56289C236.392 2.56289 234.647 4.48195 233.295 7.36056L227.451 19.6164H251.657ZM264.836 1.1672H266.755V19.5292C266.755 26.2459 270.244 29.0809 278.574 29.0809H297.765V31H278.574C269.11 31 264.836 27.5108 264.836 19.5292V1.1672ZM338.378 31H335.761L328.565 22.1025C326.646 19.7037 323.723 16.8251 320.06 16.8251H305.754V31H303.835V1.1672H305.754V15.0368H319.842C323.505 15.0368 326.776 12.2455 328.39 10.0211L334.932 1.1672H337.462L330.047 10.8934C328.259 13.2486 325.73 15.0805 323.113 15.8655C325.773 16.6506 328.128 18.5697 330.266 21.143L338.378 31ZM342.219 29.2118H368.214C373.796 29.2118 376.675 27.1619 376.675 23.2801C376.675 19.5728 374.058 17.6974 367.821 17.174L352.905 15.9091C346.319 15.3421 343.091 12.9433 343.091 8.32009C343.091 3.43519 346.711 1.1672 352.25 1.1672H376.457V2.95542H352.12C347.627 2.95542 345.054 4.65641 345.054 8.27647C345.054 11.7657 347.54 13.6411 353.341 14.1209L368.083 15.3421C375.148 15.9528 378.681 18.2644 378.681 23.2365C378.681 28.1214 375.279 31 368.126 31H342.219V29.2118Z" fill="url(#paint0_linear_161_3)"/>
<defs>
<linearGradient id="paint0_linear_161_3" x1="448" y1="31.1906" x2="2.30472" y2="73.0774" gradientUnits="userSpaceOnUse">
<stop stop-color="#010621"/>
<stop offset="1" stop-color="#0162D8"/>
</linearGradient>
</defs>
</svg>
