<svg width="379" height="31" viewBox="0 0 379 31" fill="none" xmlns="http://www.w3.org/2000/svg">
<path d="M0.0126953 30.5V0.667195H25.7457C33.0294 0.667195 37.042 4.24364 37.042 9.78279C37.042 14.0571 34.6432 16.7612 30.6306 17.808C34.5123 18.942 36.3005 21.5153 36.3005 24.7864V30.5H31.3284V24.6992C31.3284 22.3003 29.8019 19.9887 25.5712 19.9887H4.81037V30.5H0.0126953ZM4.81037 15.7144H26.0946C30.6306 15.7144 32.1135 12.7486 32.1135 10.3062C32.1135 7.86371 30.6742 4.94149 26.0946 4.94149H4.81037V15.7144ZM71.4524 6.51164L83.4465 30.5H78.2999L74.2437 22.3876H50.9096L46.8534 30.5H41.7068L53.701 6.51164C55.62 2.62988 57.9316 0.274658 62.5549 0.274658C67.2217 0.274658 69.4897 2.62988 71.4524 6.51164ZM72.0194 18.1133L66.7419 7.51478C65.826 5.68294 64.692 4.54895 62.5549 4.54895C60.4613 4.54895 59.3273 5.68294 58.4114 7.51478L53.0904 18.1133H72.0194ZM89.4562 0.667195H94.2539V30.5H89.4562V0.667195ZM101.535 26.1821H127.879C132.153 26.1821 133.898 24.7428 133.898 22.344C133.898 19.8143 131.848 18.4622 126.919 18.0697L112.308 16.8921C105.635 16.3687 101.884 13.9698 101.884 8.736C101.884 2.89157 106.638 0.667195 112.613 0.667195H136.82V4.9851H112.177C108.732 4.9851 106.769 6.07549 106.769 8.60517C106.769 10.9168 108.339 12.138 113.529 12.5305L127.617 13.6645C134.639 14.2315 138.87 16.4559 138.87 22.1695C138.87 27.1416 135.555 30.5 127.573 30.5H101.535V26.1821ZM181.965 5.24679H158.456C151.827 5.24679 149.472 8.03817 149.123 13.4465H181.354V17.7644H149.123C149.472 23.129 151.827 25.8768 158.456 25.8768H181.965V30.5H158.456C148.076 30.5 144.238 25.4843 144.238 15.5836C144.238 5.68294 148.076 0.667195 158.456 0.667195H181.965V5.24679ZM204.7 30.5H202.737V2.45542H186.207V0.667195H221.23V2.45542H204.7V30.5ZM247.732 6.38079L259.203 30.5H257.109L252.53 20.861H226.579L221.999 30.5H219.905L231.376 6.38079C233.383 2.15012 235.825 0.318273 239.532 0.318273C243.283 0.318273 245.726 2.15012 247.732 6.38079ZM251.657 19.1164L245.813 6.86056C244.461 3.98195 242.716 2.06289 239.532 2.06289C236.392 2.06289 234.647 3.98195 233.295 6.86056L227.451 19.1164H251.657ZM264.836 0.667195H266.755V19.0292C266.755 25.7459 270.244 28.5809 278.574 28.5809H297.765V30.5H278.574C269.11 30.5 264.836 27.0108 264.836 19.0292V0.667195ZM338.378 30.5H335.761L328.565 21.6025C326.646 19.2037 323.723 16.3251 320.06 16.3251H305.754V30.5H303.835V0.667195H305.754V14.5368H319.842C323.505 14.5368 326.776 11.7455 328.39 9.5211L334.932 0.667195H337.462L330.047 10.3934C328.259 12.7486 325.73 14.5805 323.113 15.3655C325.773 16.1506 328.128 18.0697 330.266 20.643L338.378 30.5ZM342.219 28.7118H368.214C373.796 28.7118 376.675 26.6619 376.675 22.7801C376.675 19.0728 374.058 17.1974 367.821 16.674L352.905 15.4091C346.319 14.8421 343.091 12.4433 343.091 7.82009C343.091 2.93519 346.711 0.667195 352.25 0.667195H376.457V2.45542H352.12C347.627 2.45542 345.054 4.15641 345.054 7.77647C345.054 11.2657 347.54 13.1411 353.341 13.6209L368.083 14.8421C375.148 15.4528 378.681 17.7644 378.681 22.7365C378.681 27.6214 375.279 30.5 368.126 30.5H342.219V28.7118Z" fill="white"/>
</svg>
