<svg width="200" height="200" viewBox="0 0 200 200" fill="none" xmlns="http://www.w3.org/2000/svg">
<g clip-path="url(#clip0_2423_2868)">
<rect width="200" height="200" rx="50" fill="url(#paint0_linear_2423_2868)"/>
<path d="M116.507 113.019C117.401 113.369 118.252 113.438 118.993 113.184C120.343 112.723 121.082 111.246 121.021 109.132L120.365 86.2187C120.275 83.0806 118.416 79.1745 115.845 76.7194C114.384 75.3263 112.86 74.5771 111.549 74.6133L95.2864 75.0489C94.1738 75.0782 93.3301 75.6454 92.8441 76.6873C91.706 79.1308 92.8102 83.5814 95.4131 87.0389L112.332 109.517C113.645 111.261 115.125 112.478 116.507 113.019ZM113.001 75.4397C113.798 75.7523 114.642 76.3192 115.474 77.1142C117.946 79.4747 119.734 83.2204 119.82 86.2242L120.476 109.138C120.53 111.026 119.938 112.277 118.81 112.664C117.153 113.23 114.779 111.867 112.764 109.19L95.8451 86.7122C93.0109 82.9468 92.4378 78.86 93.337 76.9265C93.7359 76.0678 94.4007 75.6208 95.3082 75.5957L111.572 75.1608C112.02 75.1497 112.501 75.244 113.001 75.4397Z" fill="white" stroke="url(#paint1_linear_2423_2868)"/>
<path d="M116.104 115.639C116.946 115.968 117.757 116.052 118.491 115.855C119.95 115.465 120.806 114.043 120.897 111.854L121.927 87.6542C122.166 82.0603 117.315 74.7872 113.13 74.4649L95.1595 73.0821C93.9219 72.9875 92.9441 73.5023 92.3342 74.5727C90.9329 77.027 91.8205 81.8144 94.399 85.7069L111.339 111.287C112.791 113.485 114.499 115.009 116.104 115.639ZM114.261 75.2925C117.832 76.6914 121.584 82.8994 121.383 87.6216L120.353 111.821C120.271 113.756 119.557 114.999 118.342 115.325C116.47 115.826 113.837 114.085 111.79 110.993L94.8498 85.4125C92.0354 81.1622 91.6978 76.8018 92.8063 74.8577C93.3151 73.9669 94.0953 73.5554 95.1274 73.6348L113.098 75.0176C113.48 75.0441 113.871 75.1395 114.261 75.2925Z" fill="white" stroke="white" stroke-width="2"/>
<path d="M115.493 118.356C116.274 118.662 117.034 118.761 117.733 118.626C119.287 118.323 120.286 116.934 120.548 114.714L123.538 89.3528C124.228 83.4983 119.452 75.3097 114.876 74.4977L95.1605 71.0091C93.7839 70.7658 92.6596 71.2195 91.9076 72.321C90.2095 74.8094 90.8282 79.8056 93.376 84.2019L110.103 113.054C111.653 115.726 113.632 117.627 115.493 118.356ZM115.648 75.2847C119.638 76.848 123.604 84.1444 122.998 89.2799L120.009 114.641C119.776 116.609 118.929 117.833 117.621 118.088C115.844 118.434 112.975 116.929 110.572 112.784L93.8475 83.9347C91.1038 79.2021 91.034 74.5844 92.3611 72.641C92.9869 71.7247 93.9268 71.3487 95.08 71.5525L114.796 75.0411C115.077 75.0898 115.363 75.173 115.648 75.2847Z" fill="white" stroke="url(#paint2_linear_2423_2868)"/>
<path d="M114.591 121.15C115.315 121.433 116.027 121.545 116.702 121.463C118.355 121.261 119.512 119.918 119.957 117.682L125.199 91.3185C126.407 85.241 121.782 76.0914 116.81 74.726L95.3312 68.8218C93.8029 68.4019 92.5122 68.7809 91.5998 69.9159C89.6209 72.3794 89.9477 77.6717 92.3784 82.4997L108.616 114.767C110.241 117.997 112.463 120.316 114.591 121.15ZM117.173 75.4201C121.635 77.1683 125.759 85.6777 124.662 91.2007L119.42 117.564C119.025 119.554 118.032 120.744 116.626 120.916C114.607 121.164 111.496 119.283 109.101 114.525L92.8633 82.2588C90.2443 77.0532 90.4764 72.1954 92.0246 70.267C92.7946 69.3089 93.8912 68.9923 95.1962 69.3517L116.675 75.2558C116.841 75.2998 117.007 75.3551 117.173 75.4201Z" fill="white" stroke="white" stroke-width="2"/>
<path d="M113.382 123.991C114.043 124.249 114.701 124.371 115.338 124.34C117.101 124.253 118.424 122.973 119.067 120.737L126.866 93.5746C128.663 87.3188 124.299 77.162 118.91 75.1792L95.6699 66.5331C93.9774 65.9027 92.5016 66.1901 91.406 67.3632C89.1404 69.7861 89.1366 75.3498 91.398 80.5949L106.838 116.404C108.495 120.248 110.959 123.041 113.382 123.991ZM118.821 75.7293C123.822 77.6886 128.03 87.5401 126.345 93.4125L118.545 120.575C117.971 122.574 116.82 123.716 115.304 123.79C112.6 123.923 109.324 120.798 107.338 116.19L91.8979 80.381C89.43 74.6568 89.9846 69.6899 91.8073 67.7417C92.7453 66.7396 94.0191 66.4999 95.4913 67.046L118.731 75.6921C118.761 75.7056 118.791 75.7175 118.821 75.7293Z" fill="white" stroke="url(#paint3_linear_2423_2868)"/>
<path d="M111.856 126.854C112.445 127.085 113.036 127.212 113.62 127.228C115.498 127.275 117.006 126.078 117.863 123.856L128.548 96.1364C131.008 89.7572 126.956 78.5952 121.201 75.89L96.2265 64.1573C94.3845 63.2913 92.6587 63.4694 91.3662 64.6601C88.7642 67.0618 88.3951 72.7417 90.4698 78.4728L104.76 117.926C106.394 122.441 109.101 125.774 111.856 126.854ZM95.6295 64.493C95.7536 64.5416 95.8775 64.5959 96.0036 64.6549L120.978 76.3876C126.407 78.9378 130.366 89.8965 128.039 95.9292L117.354 123.649C116.572 125.673 115.283 126.721 113.624 126.677C110.581 126.599 107.146 122.927 105.271 117.745L90.9822 78.2926C88.7494 72.1282 89.673 66.9734 91.7394 65.0681C92.7892 64.1017 94.1282 63.9048 95.6295 64.493Z" fill="white"/>
<path d="M96.2265 64.1573L121.201 75.89C126.956 78.5952 131.008 89.7572 128.548 96.1364L117.863 123.856C117.006 126.078 115.498 127.275 113.62 127.228C113.036 127.212 112.445 127.085 111.856 126.854C109.101 125.774 106.394 122.441 104.76 117.926L90.4698 78.4728C88.3951 72.7417 88.7642 67.0618 91.3662 64.6601C92.6587 63.4694 94.3845 63.2913 96.2265 64.1573ZM96.2265 64.1573L96.115 64.4061M95.6295 64.493C95.7536 64.5416 95.8775 64.5959 96.0036 64.6549L120.978 76.3876C126.407 78.9378 130.366 89.8965 128.039 95.9292L117.354 123.649C116.572 125.673 115.283 126.721 113.624 126.677C110.581 126.599 107.146 122.927 105.271 117.745L90.9822 78.2926C88.7494 72.1281 89.673 66.9734 91.7394 65.0681C92.7892 64.1017 94.1282 63.9047 95.6295 64.493Z" stroke="white" stroke-width="2"/>
<path d="M110.029 129.707C110.514 129.896 111 130.02 111.485 130.069C113.491 130.276 115.197 129.183 116.286 126.991L130.197 99.019C133.397 92.5865 129.793 80.3864 123.662 76.895L97.0157 61.7171C94.9883 60.5628 93.0268 60.5987 91.4958 61.8213C88.5845 64.1445 87.8085 70.0312 89.6108 76.1352L102.347 119.288C103.874 124.46 106.897 128.479 110.029 129.707ZM96.7527 62.1933L123.399 77.3712C129.2 80.6755 132.737 92.6724 129.707 98.7654L115.797 126.74C114.8 128.747 113.324 129.71 111.53 129.523C108.129 129.172 104.567 124.901 102.867 119.139L90.1308 75.9868C88.3911 70.092 89.0923 64.4435 91.8371 62.2533C93.2046 61.161 94.9066 61.1409 96.7527 62.1933Z" fill="white"/>
<path d="M96.8837 61.954L96.7527 62.1933M96.7527 62.1933L123.399 77.3712C129.2 80.6755 132.737 92.6724 129.707 98.7654L115.797 126.74C114.8 128.747 113.324 129.71 111.53 129.523C108.129 129.172 104.567 124.901 102.867 119.139L90.1308 75.9868C88.3911 70.092 89.0923 64.4435 91.8371 62.2533C93.2046 61.161 94.9066 61.1409 96.7527 62.1933ZM110.029 129.707C110.514 129.896 111 130.02 111.485 130.069C113.491 130.276 115.197 129.183 116.286 126.991L130.197 99.019C133.397 92.5865 129.793 80.3864 123.662 76.895L97.0157 61.7171C94.9883 60.5628 93.0268 60.5987 91.4958 61.8213C88.5845 64.1445 87.8085 70.0312 89.6108 76.1352L102.347 119.288C103.874 124.46 106.897 128.479 110.029 129.707Z" stroke="url(#paint4_linear_2423_2868)"/>
<path d="M107.758 132.496C108.132 132.642 108.511 132.752 108.888 132.823C111.034 133.221 112.957 132.26 114.304 130.114L131.787 102.237C135.805 95.8299 132.773 82.5883 126.288 78.2249L98.0616 59.2309C95.8408 57.7372 93.622 57.6011 91.8106 58.8487C88.5799 61.0741 87.355 67.13 88.8322 73.573L99.5744 120.442C100.932 126.368 104.198 131.101 107.758 132.496ZM97.914 59.4579L97.7658 59.6866L125.992 78.6806C132.145 82.8214 135.136 95.8622 131.327 101.937L113.844 129.815C112.604 131.79 110.923 132.645 108.98 132.283C105.209 131.582 101.561 126.667 100.108 120.33L89.3647 73.4583C87.9376 67.2274 89.0713 61.4071 92.1256 59.3051C93.7665 58.1754 95.7173 58.3085 97.7675 59.6872L97.914 59.4579Z" fill="white" stroke="white" stroke-width="2"/>
<path d="M105.089 135.192C105.322 135.283 105.556 135.361 105.792 135.425C108.093 136.055 110.257 135.255 111.886 133.174L133.306 105.804C135.491 103.011 136.364 98.4737 135.698 93.3549C134.961 87.6768 132.429 82.5291 129.091 79.9222L99.4131 56.7327C96.9962 54.8446 94.4902 54.498 92.3563 55.7599C88.7389 57.8976 87.0588 63.9375 88.1791 70.7897L96.4371 121.349C97.5343 128.061 101.035 133.603 105.089 135.192ZM97.0369 55.9634C97.7181 56.2303 98.4039 56.6299 99.0848 57.1623L128.762 80.3517C131.988 82.8724 134.439 87.8783 135.157 93.4143C135.794 98.3159 134.941 102.819 132.876 105.457L111.458 132.827C109.949 134.755 108.037 135.471 105.928 134.893C101.781 133.757 98.1029 128.155 96.9771 121.266L88.7197 70.705C87.6543 64.1766 89.2651 58.225 92.6414 56.2296C93.9785 55.4427 95.4915 55.358 97.0369 55.9634Z" fill="white"/>
<path d="M99.4131 56.7327L129.091 79.9222C132.429 82.5291 134.961 87.6768 135.698 93.3549C136.364 98.4737 135.491 103.011 133.306 105.804L111.886 133.174C110.257 135.255 108.093 136.055 105.792 135.425C105.556 135.361 105.322 135.283 105.089 135.192C101.035 133.603 97.5343 128.061 96.4371 121.349L88.1791 70.7897C87.0588 63.9375 88.7389 57.8976 92.3563 55.7599C94.4902 54.498 96.9962 54.8446 99.4131 56.7327ZM99.4131 56.7327L99.2483 56.9492M97.0369 55.9634C97.7181 56.2303 98.4039 56.6299 99.0848 57.1623L128.762 80.3517C131.988 82.8724 134.439 87.8783 135.157 93.4143C135.794 98.3159 134.941 102.819 132.876 105.457L111.458 132.827C109.949 134.755 108.037 135.471 105.928 134.893C101.781 133.757 98.1029 128.155 96.9771 121.266L88.7197 70.705C87.6543 64.1766 89.2651 58.225 92.6414 56.2296C93.9785 55.4427 95.4915 55.358 97.0369 55.9634Z" stroke="url(#paint5_linear_2423_2868)"/>
<path d="M101.981 137.748C102.029 137.767 102.078 137.787 102.129 137.805C104.601 138.717 107.033 138.118 108.978 136.12L134.699 109.728C137.221 107.142 138.54 102.66 138.319 97.4313C138.053 91.1599 135.649 85.2557 132.042 82.0197L101.087 54.2483C98.4755 51.9047 95.6569 51.3067 93.1501 52.5632C89.182 54.5523 86.9802 60.6674 87.6673 67.7815L92.9028 121.947C93.63 129.472 97.3527 135.935 101.981 137.748ZM100.908 54.4555L100.729 54.6587L131.685 82.4301C135.182 85.5673 137.516 91.3229 137.774 97.4472C137.988 102.526 136.725 106.861 134.308 109.342L108.587 135.734C106.772 137.598 104.601 138.136 102.31 137.29C97.8025 135.619 94.1622 129.301 93.4478 121.903L88.2127 67.7411C87.5464 60.8507 89.6323 54.9501 93.402 53.0603C95.6961 51.911 98.2993 52.4785 100.731 54.6593L100.908 54.4555Z" fill="white" stroke="white" stroke-width="2"/>
<path d="M98.3875 140.1C100.873 141.074 103.396 140.655 105.548 138.894L135.937 114.02C138.82 111.661 140.612 107.258 140.854 101.94C141.164 95.1444 138.973 88.4862 135.137 84.5633L103.123 51.8257C100.324 48.9618 97.1656 48.0613 94.23 49.2867C89.8314 51.1247 87.1261 57.1201 87.3347 64.5612L88.9602 122.175C89.187 130.22 92.8448 137.498 97.854 139.87C98.032 139.955 98.2097 140.031 98.3875 140.1ZM99.2406 49.779C100.435 50.2471 101.615 51.0616 102.737 52.2095L134.751 84.9454C138.481 88.7612 140.61 95.2586 140.308 101.905C140.073 107.068 138.352 111.328 135.587 113.59L105.2 138.465C103.033 140.24 100.573 140.55 98.0787 139.373C93.2508 137.087 89.7257 130.012 89.5045 122.169L87.8801 64.5574C87.6794 57.4524 90.3185 51.5215 94.4463 49.7969C96.0024 49.1456 97.6362 49.1504 99.2406 49.779Z" fill="white"/>
<path d="M103.123 51.8257L135.137 84.5633C138.973 88.4862 141.164 95.1444 140.854 101.94C140.612 107.258 138.82 111.661 135.937 114.02L105.548 138.894C103.396 140.655 100.873 141.074 98.3875 140.1C98.2097 140.031 98.032 139.955 97.854 139.87C92.8448 137.498 89.187 130.22 88.9602 122.175L87.3347 64.5612C87.1261 57.1201 89.8314 51.1247 94.23 49.2867C97.1656 48.0613 100.324 48.9618 103.123 51.8257ZM103.123 51.8257L102.931 52.0179M99.2406 49.779C100.435 50.2471 101.615 51.0616 102.737 52.2095L134.751 84.9454C138.481 88.7612 140.61 95.2586 140.308 101.905C140.073 107.068 138.352 111.328 135.587 113.59L105.2 138.465C103.033 140.24 100.573 140.55 98.0787 139.373C93.2508 137.087 89.7257 130.012 89.5045 122.169L87.8801 64.5574C87.6794 57.4524 90.3185 51.5215 94.4463 49.7969C96.0024 49.1456 97.6362 49.1504 99.2406 49.779Z" stroke="url(#paint6_linear_2423_2868)"/>
<path d="M94.2905 142.191C96.7358 143.149 99.2684 142.892 101.554 141.425L136.975 118.676C140.252 116.57 142.55 112.266 143.276 106.864C144.234 99.7409 142.301 92.1762 138.352 87.5912L105.552 49.5048C102.622 46.1024 99.0062 44.8071 95.6316 45.9512C90.8467 47.5707 87.5426 53.5322 87.2158 61.1375L84.5927 121.971C84.2313 130.369 87.6518 138.407 92.9133 141.515C93.3673 141.784 93.8273 142.01 94.2905 142.191ZM105.142 49.86L137.943 87.9471C141.793 92.4162 143.674 99.8103 142.736 106.782C142.031 112.027 139.822 116.192 136.677 118.213L101.256 140.962C98.6809 142.616 95.889 142.644 93.1835 141.045C88.0944 138.037 84.7848 130.208 85.1385 122.007L87.7594 61.1695C88.0775 53.7899 91.2374 48.0203 95.8119 46.4704C99.0128 45.3854 102.328 46.5897 105.142 49.86Z" fill="white"/>
<path d="M105.346 49.6821L105.142 49.86M105.142 49.86L137.943 87.9471C141.793 92.4162 143.674 99.8103 142.736 106.782C142.031 112.027 139.822 116.192 136.677 118.213L101.256 140.962C98.6809 142.616 95.889 142.644 93.1835 141.045C88.0944 138.037 84.7848 130.208 85.1385 122.007L87.7594 61.1695C88.0775 53.7899 91.2374 48.0203 95.8119 46.4704C99.0128 45.3854 102.328 46.5897 105.142 49.86ZM94.2905 142.191C96.7358 143.149 99.2684 142.892 101.554 141.425L136.975 118.676C140.252 116.57 142.55 112.266 143.276 106.864C144.234 99.7409 142.301 92.1762 138.352 87.5912L105.552 49.5048C102.622 46.1024 99.0062 44.8071 95.6316 45.9512C90.8467 47.5707 87.5426 53.5322 87.2158 61.1375L84.5927 121.971C84.2313 130.369 87.6518 138.407 92.9133 141.515C93.3673 141.784 93.8273 142.01 94.2905 142.191Z" stroke="white" stroke-width="2"/>
<path d="M89.6778 143.961C92.0661 144.896 94.5765 144.798 96.952 143.638L137.76 123.696C141.478 121.88 144.323 117.686 145.562 112.192C147.244 104.742 145.713 96.4773 141.66 91.1392L108.403 47.3335C105.328 43.2833 101.314 41.5489 97.3894 42.5779C92.1986 43.9385 88.2543 49.8016 87.341 57.5164L79.7899 121.264C78.7666 129.908 81.8364 138.69 87.2571 142.62C88.0417 143.189 88.852 143.637 89.6778 143.961ZM107.973 47.6637L141.23 91.4694C145.187 96.6815 146.678 104.765 145.031 112.063C143.827 117.396 141.088 121.455 137.516 123.202L96.7084 143.144C93.7013 144.613 90.457 144.27 87.5706 142.178C82.3076 138.363 79.3299 129.794 80.332 121.342L87.8831 57.594C88.7713 50.1024 92.5588 44.4185 97.5353 43.1125C101.235 42.1398 105.04 43.8001 107.973 47.6637Z" fill="white"/>
<path d="M108.403 47.3335L141.66 91.1392C145.713 96.4773 147.244 104.742 145.562 112.192C144.323 117.686 141.478 121.88 137.76 123.696L96.952 143.638C94.5765 144.798 92.0661 144.896 89.6778 143.961C88.852 143.637 88.0417 143.189 87.2571 142.62C81.8364 138.69 78.7666 129.908 79.7899 121.264L87.341 57.5164C88.2543 49.8016 92.1986 43.9385 97.3894 42.5779C101.314 41.5489 105.328 43.2833 108.403 47.3335ZM108.403 47.3335L108.188 47.4977M107.973 47.6637L141.23 91.4694C145.187 96.6815 146.678 104.765 145.031 112.063C143.827 117.396 141.088 121.455 137.516 123.202L96.7084 143.144C93.7013 144.613 90.457 144.27 87.5706 142.178C82.3076 138.363 79.3299 129.794 80.332 121.342L87.8831 57.594C88.7713 50.1024 92.5588 44.4185 97.5353 43.1125C101.235 42.1398 105.04 43.8001 107.973 47.6637Z" stroke="url(#paint7_linear_2423_2868)"/>
<path d="M84.5437 145.333C86.8533 146.237 89.3073 146.286 91.7165 145.44L138.25 129.062C142.464 127.578 145.912 123.515 147.707 117.913C150.164 110.242 149.119 101.344 145.043 95.244L111.721 45.3663C108.535 40.5987 104.103 38.3521 99.5611 39.2009C93.8578 40.2685 89.3367 45.8309 87.7647 53.7153L74.5539 119.969C72.7775 128.877 75.3112 138.146 80.8603 143.037C82.0196 144.063 83.2596 144.83 84.5437 145.333ZM104.98 40.2533C107.33 41.1739 109.496 43.0142 111.27 45.6668L144.591 95.5446C148.576 101.509 149.594 110.219 147.186 117.736C145.444 123.176 142.117 127.115 138.061 128.543L91.5282 144.921C87.9733 146.172 84.3093 145.358 81.2118 142.628C75.8092 137.866 73.3472 128.807 75.0861 120.089L88.2969 53.8352C89.8259 46.1707 94.1827 40.7712 99.6676 39.7432C101.48 39.402 103.278 39.5866 104.98 40.2533Z" fill="white"/>
<path d="M111.721 45.3663L145.043 95.244C149.119 101.344 150.164 110.242 147.707 117.913C145.912 123.515 142.464 127.578 138.25 129.062L91.7165 145.44C89.3073 146.286 86.8533 146.237 84.5437 145.333C83.2596 144.83 82.0196 144.063 80.8603 143.037C75.3112 138.146 72.7775 128.877 74.5539 119.969L87.7647 53.7153C89.3367 45.8309 93.8578 40.2685 99.5611 39.2009C104.103 38.3521 108.535 40.5987 111.721 45.3663ZM111.721 45.3663L111.496 45.5169M104.98 40.2533C107.33 41.1739 109.496 43.0142 111.27 45.6668L144.591 95.5446C148.576 101.509 149.594 110.219 147.186 117.736C145.444 123.176 142.117 127.115 138.061 128.543L91.5282 144.921C87.9733 146.172 84.3093 145.358 81.2118 142.628C75.8092 137.866 73.3472 128.807 75.0862 120.089L88.2969 53.8352C89.8259 46.1707 94.1827 40.7712 99.6676 39.7432C101.48 39.402 103.278 39.5866 104.98 40.2533Z" stroke="white" stroke-width="2"/>
<path d="M78.8633 146.249C81.0655 147.112 83.4188 147.293 85.7998 146.751L138.373 134.775C143.152 133.686 147.272 129.774 149.676 124.043C152.94 116.262 152.457 106.806 148.448 99.9546L115.519 43.6779C112.272 38.1298 107.412 35.286 102.182 35.8732C96.0181 36.5659 90.7809 41.8922 88.5129 49.7718L68.869 118.024C66.3076 126.923 68.243 136.811 73.6862 142.631C75.2506 144.307 77.0035 145.521 78.8633 146.249ZM115.284 43.8148L115.05 43.9524L147.98 100.227C151.903 106.932 152.371 116.194 149.174 123.821C146.837 129.392 142.854 133.188 138.244 134.239L85.6709 146.217C81.4773 147.173 77.3596 145.768 74.079 142.261C68.7666 136.581 66.8824 126.908 69.3918 118.191L89.0356 49.9381C91.2421 42.2712 96.3054 37.0924 102.251 36.4239C107.255 35.8598 111.919 38.6055 115.049 43.9541L115.284 43.8148Z" fill="white" stroke="url(#paint8_linear_2423_2868)"/>
<path d="M72.6463 146.616C74.7042 147.422 76.9102 147.714 79.1874 147.457L138.083 140.797C143.504 140.183 148.383 136.457 151.468 130.573C155.549 122.789 155.697 112.867 151.848 105.294L119.846 42.3284C116.601 35.9455 111.311 32.4138 105.331 32.6357C98.6789 32.8829 92.6697 37.8912 89.6511 45.7057L62.7602 115.332C59.3267 124.224 60.5033 134.39 65.7589 141.234C67.72 143.789 70.0682 145.606 72.6463 146.616ZM119.604 42.4513L119.361 42.5735L151.366 105.538C155.136 112.955 154.987 122.679 150.987 130.309C147.986 136.034 143.257 139.657 138.014 140.25L79.1191 146.911C74.1857 147.467 69.5937 145.335 66.1895 140.902C61.0507 134.21 59.9039 124.254 63.2702 115.538L90.1611 45.9113C93.101 38.2989 98.9249 33.4221 105.361 33.1826C111.119 32.9698 116.221 36.3914 119.362 42.5701L119.604 42.4513Z" fill="white" stroke="white" stroke-width="2"/>
<path d="M65.9987 146.365C67.8579 147.094 69.836 147.47 71.8754 147.459L137.317 147.109C143.466 147.076 149.205 143.586 153.06 137.53C158.027 129.731 158.846 119.684 155.197 111.314L124.733 41.4276C121.618 34.2805 115.767 29.8517 109.084 29.5855C101.799 29.2934 95.1302 33.7792 91.243 41.584L56.2653 111.818C51.9776 120.428 52.3157 130.982 57.1293 138.706C59.4076 142.363 62.4917 144.991 65.9987 146.365ZM124.237 41.643L154.699 111.527C158.276 119.73 157.471 129.578 152.6 137.227C148.843 143.125 143.269 146.527 137.306 146.56L71.8644 146.908C66.1727 146.938 60.9701 143.845 57.5895 138.418C52.8776 130.856 52.5493 120.514 56.7544 112.069L91.7308 41.8387C95.5214 34.227 102.003 29.8526 109.072 30.1353C115.539 30.3954 121.208 34.6973 124.237 41.643Z" fill="white"/>
<path d="M124.485 41.5365L124.237 41.643M124.237 41.643L154.699 111.527C158.276 119.73 157.471 129.578 152.6 137.227C148.843 143.125 143.269 146.527 137.306 146.56L71.8644 146.908C66.1727 146.938 60.9701 143.845 57.5895 138.418C52.8776 130.856 52.5493 120.514 56.7544 112.069L91.7308 41.8387C95.5214 34.227 102.003 29.8526 109.072 30.1353C115.539 30.3954 121.208 34.6973 124.237 41.643ZM65.9987 146.365C67.8579 147.094 69.836 147.47 71.8754 147.459L137.317 147.109C143.466 147.076 149.205 143.586 153.06 137.53C158.027 129.731 158.846 119.684 155.197 111.314L124.733 41.4276C121.618 34.2805 115.767 29.8517 109.084 29.5855C101.799 29.2934 95.1302 33.7792 91.243 41.584L56.2653 111.818C51.9776 120.428 52.3157 130.982 57.1293 138.706C59.4076 142.363 62.4917 144.991 65.9987 146.365Z" stroke="url(#paint9_linear_2423_2868)"/>
<path d="M58.8185 145.436C60.4054 146.058 62.0823 146.463 63.8215 146.632L135.996 153.667C142.966 154.346 149.679 151.157 154.416 144.92C160.188 137.317 161.726 127.013 158.429 118.026L130.194 41.0322C127.25 33.0071 121.01 27.6756 113.5 26.7731C105.644 25.827 98.0977 29.8114 93.3144 37.4279L49.375 107.387C44.141 115.722 43.5444 126.27 47.8204 134.915C50.3185 139.966 54.192 143.623 58.8185 145.436ZM129.939 41.1246L129.684 41.2154L157.919 118.211C161.15 127.022 159.641 137.128 153.982 144.584C149.36 150.671 142.821 153.783 136.041 153.122L63.8658 146.088C57.2445 145.443 51.5745 141.283 48.3082 134.677C44.1183 126.204 44.7034 115.863 49.838 107.688L93.7757 37.728C98.4465 30.2905 105.8 26.4002 113.444 27.3187C120.744 28.1967 126.813 33.3921 129.682 41.2164L129.939 41.1246Z" fill="white" stroke="white" stroke-width="2"/>
<path d="M51.2027 143.731C52.4252 144.21 53.6989 144.582 55.0199 144.842L134.052 160.408C141.94 161.962 149.759 159.17 155.502 152.748C162.048 145.43 164.34 134.969 161.487 125.444L136.252 41.2244C133.587 32.329 127.017 25.9977 118.673 24.2904C110.199 22.5554 101.695 25.9162 95.9258 33.2782L42.1265 101.932C35.999 109.752 34.3813 120.405 37.908 129.734C40.4407 136.434 45.179 141.371 51.2027 143.731ZM122.092 25.8687C128.54 28.3952 133.514 33.9761 135.731 41.3761L160.965 125.595C163.763 134.937 161.514 145.198 155.093 152.376C149.477 158.654 141.843 161.385 134.147 159.868L55.1145 144.302C47.4785 142.799 41.3947 137.42 38.4179 129.545C34.9604 120.397 36.5452 109.947 42.5579 102.276L96.3572 33.6223C101.999 26.4221 110.305 23.1355 118.576 24.8275C119.787 25.0771 120.962 25.4259 122.092 25.8687Z" fill="white"/>
<path d="M136.252 41.2244L161.487 125.444C164.34 134.969 162.048 145.43 155.502 152.748C149.759 159.17 141.94 161.962 134.052 160.408L55.0199 144.842C53.6989 144.582 52.4252 144.21 51.2027 143.731C45.179 141.371 40.4407 136.434 37.908 129.734C34.3813 120.405 35.999 109.752 42.1265 101.932L95.9258 33.2782C101.695 25.9162 110.199 22.5554 118.673 24.2904C127.017 25.9977 133.587 32.329 136.252 41.2244ZM136.252 41.2244L135.992 41.2994M122.092 25.8687C128.54 28.3952 133.514 33.9761 135.731 41.3761L160.965 125.595C163.763 134.937 161.514 145.198 155.093 152.376C149.477 158.654 141.843 161.385 134.147 159.868L55.1145 144.302C47.4785 142.799 41.3947 137.42 38.4179 129.545C34.9604 120.397 36.5452 109.947 42.5579 102.276L96.3572 33.6223C101.999 26.4221 110.305 23.1355 118.576 24.8275C119.787 25.0771 120.962 25.4259 122.092 25.8687Z" stroke="url(#paint10_linear_2423_2868)"/>
<path d="M43.3396 141.243C44.0286 141.513 44.7322 141.754 45.4486 141.966L131.389 167.285C140.16 169.87 149.455 167.537 156.253 161.044C163.646 153.984 166.649 143.724 164.284 133.601L142.912 42.1148C140.64 32.3873 133.825 24.971 124.683 22.2772C115.54 19.5833 105.983 22.1756 99.1167 29.2106L34.5487 95.3755C27.403 102.697 24.7554 113.06 27.4629 123.097C29.7505 131.572 35.6067 138.211 43.3396 141.243ZM126.633 23.522C134.521 26.6126 140.335 33.4623 142.383 42.2324L163.756 133.717C166.075 143.649 163.129 153.714 155.877 160.641C149.219 167 140.119 169.286 131.535 166.758L45.5943 141.438C37.0128 138.909 30.4296 132.004 27.9905 122.963C25.3339 113.116 27.9319 102.949 34.9415 95.766L99.5079 29.6004C106.233 22.7082 115.59 20.1683 124.537 22.8047C125.25 23.0149 125.949 23.254 126.633 23.522Z" fill="white"/>
<path d="M142.912 42.1148L164.284 133.601C166.649 143.724 163.646 153.984 156.253 161.044C149.455 167.537 140.16 169.87 131.389 167.285L45.4486 141.966C44.7322 141.754 44.0286 141.513 43.3396 141.243C35.6067 138.211 29.7505 131.572 27.4629 123.097C24.7554 113.06 27.403 102.697 34.5487 95.3755L99.1168 29.2106C105.983 22.1756 115.54 19.5833 124.683 22.2772C133.825 24.971 140.64 32.3873 142.912 42.1148ZM142.912 42.1148L142.647 42.1724M126.633 23.522C134.521 26.6126 140.335 33.4623 142.383 42.2324L163.756 133.717C166.075 143.649 163.129 153.714 155.877 160.641C149.219 167 140.119 169.286 131.535 166.758L45.5943 141.438C37.0128 138.909 30.4296 132.004 27.9905 122.963C25.3339 113.116 27.9319 102.949 34.9415 95.766L99.5079 29.6004C106.233 22.7082 115.59 20.1683 124.537 22.8047C125.25 23.0149 125.949 23.254 126.633 23.522Z" stroke="white" stroke-width="2"/>
<path d="M35.1144 137.851L127.924 174.215C137.784 178.079 148.507 176.432 156.609 169.811C164.71 163.189 168.497 152.976 166.737 142.491L150.178 43.8009C148.42 33.3166 141.481 24.7493 131.621 20.8861C121.762 17.023 111.038 18.6697 102.938 25.2915L26.6857 87.617C18.5841 94.2382 14.7978 104.452 16.5576 114.936C18.3174 125.421 25.2531 133.987 35.1144 137.851ZM149.91 43.8418L149.641 43.8827L166.2 142.573C167.927 152.862 164.212 162.883 156.262 169.38C148.311 175.878 137.789 177.494 128.114 173.703L35.3043 137.339C25.629 133.548 18.822 125.142 17.0952 114.853C15.3685 104.564 19.0839 94.5417 27.0335 88.0455L103.286 25.72C111.236 19.2222 121.758 17.6062 131.434 21.3971C141.109 25.188 147.916 33.594 149.643 43.8833L149.91 43.8418Z" fill="white" stroke="url(#paint11_linear_2423_2868)"/>
<path d="M99.8325 22.7747C119.956 6.15058 150.53 17.5451 154.865 43.2847L171.081 139.572C175.416 165.312 150.262 186.092 125.803 176.976L34.3074 142.877C9.8487 133.761 4.42989 101.586 24.5536 84.9622L99.8325 22.7747Z" fill="black" fill-opacity="0.01"/>
<path d="M116.505 113.019C117.399 113.369 118.25 113.438 118.991 113.184C120.341 112.723 121.08 111.246 121.019 109.132L120.363 86.2187C120.273 83.0806 118.414 79.1745 115.843 76.7194C114.382 75.3263 112.858 74.5771 111.547 74.6133L95.2844 75.0489C94.1719 75.0782 93.3282 75.6454 92.8421 76.6873C91.704 79.1308 92.8083 83.5814 95.4111 87.0389L112.33 109.517C113.643 111.261 115.123 112.478 116.505 113.019ZM112.999 75.4397C113.796 75.7523 114.64 76.3192 115.472 77.1142C117.944 79.4747 119.732 83.2204 119.818 86.2242L120.474 109.138C120.528 111.026 119.936 112.277 118.808 112.664C117.151 113.23 114.777 111.867 112.762 109.19L95.8432 86.7122C93.009 82.9468 92.4359 78.86 93.335 76.9265C93.734 76.0678 94.3987 75.6208 95.3062 75.5957L111.57 75.1608C112.018 75.1497 112.499 75.244 112.999 75.4397Z" fill="white" stroke="url(#paint12_linear_2423_2868)"/>
<path d="M116.104 115.64C116.946 115.969 117.757 116.053 118.491 115.856C119.95 115.466 120.806 114.044 120.897 111.855L121.927 87.6552C122.166 82.0612 117.315 74.7882 113.13 74.4658L95.1595 73.0831C93.9219 72.9885 92.9441 73.5033 92.3342 74.5737C90.9329 77.028 91.8205 81.8154 94.399 85.7079L111.339 111.288C112.791 113.486 114.499 115.01 116.104 115.64ZM114.261 75.2935C117.832 76.6923 121.584 82.9004 121.383 87.6226L120.353 111.822C120.271 113.757 119.557 115 118.342 115.326C116.47 115.827 113.837 114.086 111.79 110.994L94.8498 85.4135C92.0354 81.1632 91.6978 76.8028 92.8063 74.8587C93.3151 73.9678 94.0953 73.5564 95.1274 73.6358L113.098 75.0185C113.48 75.0451 113.871 75.1405 114.261 75.2935Z" fill="white" stroke="white" stroke-width="2"/>
<path d="M115.493 118.357C116.274 118.663 117.034 118.762 117.733 118.627C119.287 118.324 120.286 116.935 120.548 114.715L123.538 89.3537C124.228 83.4993 119.452 75.3106 114.876 74.4986L95.1605 71.01C93.7839 70.7668 92.6596 71.2205 91.9076 72.322C90.2095 74.8104 90.8282 79.8066 93.376 84.2029L110.103 113.055C111.653 115.727 113.632 117.628 115.493 118.357ZM115.648 75.2857C119.638 76.8489 123.604 84.1453 122.998 89.2809L120.009 114.642C119.776 116.61 118.929 117.834 117.621 118.089C115.844 118.435 112.975 116.93 110.572 112.785L93.8475 83.9357C91.1038 79.203 91.034 74.5854 92.3611 72.642C92.9869 71.7256 93.9268 71.3497 95.08 71.5535L114.796 75.0421C115.077 75.0908 115.363 75.174 115.648 75.2857Z" fill="white" stroke="url(#paint13_linear_2423_2868)"/>
<path d="M114.591 121.15C115.315 121.433 116.027 121.545 116.702 121.463C118.355 121.261 119.512 119.918 119.957 117.682L125.199 91.3185C126.407 85.241 121.782 76.0914 116.81 74.726L95.3312 68.8218C93.8029 68.4019 92.5122 68.7809 91.5998 69.9159C89.6209 72.3794 89.9477 77.6717 92.3784 82.4997L108.616 114.767C110.241 117.997 112.463 120.316 114.591 121.15ZM117.173 75.4201C121.635 77.1683 125.759 85.6777 124.662 91.2007L119.42 117.564C119.025 119.554 118.032 120.744 116.626 120.916C114.607 121.164 111.496 119.283 109.101 114.525L92.8633 82.2588C90.2443 77.0532 90.4764 72.1954 92.0246 70.267C92.7946 69.3089 93.8912 68.9923 95.1962 69.3517L116.675 75.2558C116.841 75.2998 117.007 75.3551 117.173 75.4201Z" fill="white" stroke="white" stroke-width="2"/>
<path d="M113.38 123.991C114.041 124.249 114.699 124.371 115.336 124.34C117.099 124.253 118.422 122.973 119.065 120.737L126.864 93.5746C128.661 87.3188 124.297 77.162 118.908 75.1792L95.668 66.5331C93.9755 65.9027 92.4996 66.1901 91.4041 67.3632C89.1385 69.7861 89.1346 75.3498 91.396 80.5949L106.836 116.404C108.493 120.248 110.957 123.041 113.38 123.991ZM118.819 75.7293C123.82 77.6886 128.028 87.5401 126.343 93.4125L118.543 120.575C117.969 122.574 116.818 123.716 115.302 123.79C112.598 123.923 109.322 120.798 107.336 116.19L91.8959 80.381C89.428 74.6568 89.9827 69.6899 91.8053 67.7417C92.7434 66.7396 94.0172 66.4999 95.4894 67.046L118.729 75.6921C118.759 75.7056 118.789 75.7175 118.819 75.7293Z" fill="white" stroke="url(#paint14_linear_2423_2868)"/>
<path d="M111.856 126.855C112.445 127.086 113.036 127.213 113.62 127.228C115.498 127.276 117.006 126.079 117.863 123.857L128.548 96.1373C131.008 89.7582 126.956 78.5962 121.201 75.8909L96.2265 64.1583C94.3845 63.2923 92.6587 63.4704 91.3662 64.6611C88.7642 67.0628 88.3951 72.7427 90.4698 78.4738L104.76 117.927C106.394 122.442 109.101 125.775 111.856 126.855ZM95.6295 64.4939C95.7536 64.5426 95.8775 64.5969 96.0036 64.6559L120.978 76.3886C126.407 78.9388 130.366 89.8975 128.039 95.9302L117.354 123.65C116.572 125.674 115.283 126.722 113.624 126.678C110.581 126.6 107.146 122.928 105.271 117.746L90.9822 78.2936C88.7494 72.1291 89.673 66.9744 91.7394 65.069C92.7892 64.1027 94.1282 63.9057 95.6295 64.4939Z" fill="white"/>
<path d="M96.2265 64.1583L121.201 75.8909C126.956 78.5962 131.008 89.7582 128.548 96.1373L117.863 123.857C117.006 126.079 115.498 127.276 113.62 127.228C113.036 127.213 112.445 127.086 111.856 126.855C109.101 125.775 106.394 122.442 104.76 117.927L90.4698 78.4738C88.3951 72.7427 88.7642 67.0628 91.3662 64.6611C92.6587 63.4704 94.3845 63.2923 96.2265 64.1583ZM96.2265 64.1583L96.115 64.4071M95.6295 64.4939C95.7536 64.5426 95.8775 64.5969 96.0036 64.6559L120.978 76.3886C126.407 78.9388 130.366 89.8975 128.039 95.9302L117.354 123.65C116.572 125.674 115.283 126.722 113.624 126.678C110.581 126.6 107.146 122.928 105.271 117.746L90.9822 78.2936C88.7494 72.1291 89.673 66.9744 91.7394 65.069C92.7892 64.1027 94.1282 63.9057 95.6295 64.4939Z" stroke="white" stroke-width="2"/>
<path d="M110.027 129.707C110.512 129.897 110.998 130.021 111.483 130.07C113.489 130.277 115.195 129.184 116.284 126.992L130.195 99.02C133.395 92.5875 129.791 80.3874 123.66 76.896L97.0138 61.718C94.9863 60.5638 93.0249 60.5997 91.4938 61.8222C88.5826 64.1455 87.8065 70.0322 89.6088 76.1362L102.345 119.289C103.872 124.461 106.895 128.48 110.027 129.707ZM96.7508 62.1942L123.397 77.3721C129.198 80.6765 132.735 92.6733 129.705 98.7664L115.795 126.741C114.798 128.748 113.322 129.711 111.528 129.524C108.127 129.173 104.565 124.902 102.865 119.14L90.1288 75.9878C88.3891 70.093 89.0903 64.4445 91.8351 62.2542C93.2026 61.162 94.9046 61.1418 96.7508 62.1942Z" fill="white"/>
<path d="M96.8817 61.955L96.7508 62.1942M96.7508 62.1942L123.397 77.3721C129.198 80.6765 132.735 92.6733 129.705 98.7664L115.795 126.741C114.798 128.748 113.322 129.711 111.528 129.524C108.127 129.173 104.565 124.902 102.865 119.14L90.1288 75.9878C88.3891 70.093 89.0903 64.4445 91.8351 62.2542C93.2026 61.162 94.9046 61.1418 96.7508 62.1942ZM110.027 129.707C110.512 129.897 110.998 130.021 111.483 130.07C113.489 130.277 115.195 129.184 116.284 126.992L130.195 99.02C133.395 92.5875 129.791 80.3874 123.66 76.896L97.0138 61.718C94.9863 60.5638 93.0249 60.5997 91.4938 61.8222C88.5826 64.1455 87.8065 70.0322 89.6088 76.1362L102.345 119.289C103.872 124.461 106.895 128.48 110.027 129.707Z" stroke="url(#paint15_linear_2423_2868)"/>
<path d="M107.758 132.496C108.132 132.642 108.511 132.752 108.888 132.823C111.034 133.221 112.957 132.26 114.304 130.114L131.787 102.237C135.805 95.8299 132.773 82.5883 126.288 78.2249L98.0616 59.2309C95.8408 57.7372 93.622 57.6011 91.8106 58.8487C88.5799 61.0741 87.355 67.13 88.8322 73.573L99.5744 120.442C100.932 126.368 104.198 131.101 107.758 132.496ZM97.914 59.4579L97.7658 59.6866L125.992 78.6806C132.145 82.8214 135.136 95.8622 131.327 101.937L113.844 129.815C112.604 131.79 110.923 132.645 108.98 132.283C105.209 131.582 101.561 126.667 100.108 120.33L89.3647 73.4583C87.9376 67.2274 89.0713 61.4071 92.1256 59.3051C93.7665 58.1754 95.7173 58.3085 97.7675 59.6872L97.914 59.4579Z" fill="white" stroke="white" stroke-width="2"/>
<path d="M105.089 135.192C105.322 135.283 105.556 135.361 105.792 135.425C108.093 136.055 110.257 135.255 111.886 133.174L133.306 105.804C135.491 103.011 136.364 98.4737 135.698 93.3549C134.961 87.6768 132.429 82.5291 129.091 79.9222L99.4131 56.7327C96.9962 54.8446 94.4902 54.498 92.3563 55.7599C88.7389 57.8976 87.0588 63.9375 88.1791 70.7897L96.4371 121.349C97.5343 128.061 101.035 133.603 105.089 135.192ZM97.0369 55.9634C97.7181 56.2303 98.4039 56.6299 99.0848 57.1623L128.762 80.3517C131.988 82.8724 134.439 87.8783 135.157 93.4143C135.794 98.3159 134.941 102.819 132.876 105.457L111.458 132.827C109.949 134.755 108.037 135.471 105.928 134.893C101.781 133.757 98.1029 128.155 96.9771 121.266L88.7197 70.705C87.6543 64.1766 89.2651 58.225 92.6414 56.2296C93.9785 55.4427 95.4915 55.358 97.0369 55.9634Z" fill="white"/>
<path d="M99.4131 56.7327L129.091 79.9222C132.429 82.5291 134.961 87.6768 135.698 93.3549C136.364 98.4737 135.491 103.011 133.306 105.804L111.886 133.174C110.257 135.255 108.093 136.055 105.792 135.425C105.556 135.361 105.322 135.283 105.089 135.192C101.035 133.603 97.5343 128.061 96.4371 121.349L88.1791 70.7897C87.0588 63.9375 88.7389 57.8976 92.3563 55.7599C94.4902 54.498 96.9962 54.8446 99.4131 56.7327ZM99.4131 56.7327L99.2483 56.9492M97.0369 55.9634C97.7181 56.2303 98.4039 56.6299 99.0848 57.1623L128.762 80.3517C131.988 82.8724 134.439 87.8783 135.157 93.4143C135.794 98.3159 134.941 102.819 132.876 105.457L111.458 132.827C109.949 134.755 108.037 135.471 105.928 134.893C101.781 133.757 98.1029 128.155 96.9771 121.266L88.7197 70.705C87.6543 64.1766 89.2651 58.225 92.6414 56.2296C93.9785 55.4427 95.4915 55.358 97.0369 55.9634Z" stroke="url(#paint16_linear_2423_2868)"/>
<path d="M101.979 137.749C102.028 137.768 102.076 137.787 102.127 137.806C104.599 138.718 107.031 138.119 108.976 136.121L134.697 109.729C137.219 107.142 138.538 102.661 138.317 97.4323C138.051 91.1609 135.647 85.2566 132.04 82.0207L101.085 54.2493C98.4736 51.9057 95.655 51.3076 93.1481 52.5642C89.1801 54.5533 86.9782 60.6684 87.6653 67.7825L92.9008 121.948C93.628 129.473 97.3508 135.936 101.979 137.749ZM100.906 54.4565L100.727 54.6596L131.683 82.4311C135.18 85.5683 137.514 91.3239 137.773 97.4482C137.986 102.527 136.723 106.862 134.306 109.343L108.585 135.735C106.77 137.599 104.599 138.137 102.308 137.291C97.8006 135.62 94.1602 129.302 93.4458 121.904L88.2107 67.7421C87.5444 60.8517 89.6303 54.951 93.4001 53.0613C95.6942 51.912 98.2973 52.4795 100.729 54.6603L100.906 54.4565Z" fill="white" stroke="white" stroke-width="2"/>
<path d="M98.3875 140.101C100.873 141.075 103.396 140.656 105.548 138.895L135.937 114.021C138.82 111.662 140.612 107.259 140.854 101.941C141.164 95.1454 138.973 88.4872 135.137 84.5643L103.123 51.8267C100.324 48.9627 97.1656 48.0623 94.23 49.2876C89.8314 51.1257 87.1261 57.1211 87.3347 64.5622L88.9602 122.176C89.187 130.221 92.8448 137.499 97.854 139.871C98.032 139.956 98.2097 140.032 98.3875 140.101ZM99.2406 49.78C100.435 50.2481 101.615 51.0626 102.737 52.2104L134.751 84.9464C138.481 88.7621 140.61 95.2596 140.308 101.906C140.073 107.069 138.352 111.329 135.587 113.591L105.2 138.466C103.033 140.241 100.573 140.551 98.0787 139.374C93.2508 137.088 89.7257 130.013 89.5045 122.17L87.8801 64.5583C87.6794 57.4534 90.3185 51.5225 94.4463 49.7978C96.0024 49.1466 97.6362 49.1514 99.2406 49.78Z" fill="white"/>
<path d="M103.123 51.8267L135.137 84.5643C138.973 88.4872 141.164 95.1454 140.854 101.941C140.612 107.259 138.82 111.662 135.937 114.021L105.548 138.895C103.396 140.656 100.873 141.075 98.3875 140.101C98.2097 140.032 98.032 139.956 97.854 139.871C92.8448 137.499 89.187 130.221 88.9602 122.176L87.3347 64.5622C87.1261 57.1211 89.8314 51.1257 94.23 49.2876C97.1656 48.0623 100.324 48.9627 103.123 51.8267ZM103.123 51.8267L102.931 52.0189M99.2406 49.78C100.435 50.2481 101.615 51.0626 102.737 52.2104L134.751 84.9464C138.481 88.7621 140.61 95.2596 140.308 101.906C140.073 107.069 138.352 111.329 135.587 113.591L105.2 138.466C103.033 140.241 100.573 140.551 98.0787 139.374C93.2508 137.088 89.7257 130.013 89.5045 122.17L87.8801 64.5583C87.6794 57.4534 90.3185 51.5225 94.4463 49.7978C96.0024 49.1466 97.6362 49.1514 99.2406 49.78Z" stroke="url(#paint17_linear_2423_2868)"/>
<path d="M94.2886 142.192C96.7339 143.15 99.2665 142.893 101.552 141.426L136.973 118.677C140.25 116.571 142.548 112.267 143.274 106.865C144.232 99.7419 142.299 92.1772 138.35 87.5922L105.551 49.5058C102.62 46.1034 99.0042 44.8081 95.6296 45.9522C90.8447 47.5717 87.5407 53.5332 87.2138 61.1385L84.5908 121.972C84.2293 130.37 87.6498 138.408 92.9113 141.516C93.3654 141.784 93.8254 142.011 94.2886 142.192ZM105.14 49.861L137.941 87.948C141.791 92.4171 143.672 99.8113 142.734 106.783C142.029 112.028 139.82 116.193 136.675 118.214L101.254 140.963C98.6789 142.617 95.887 142.645 93.1816 141.046C88.0924 138.038 84.7828 130.209 85.1365 122.008L87.7574 61.1705C88.0756 53.7909 91.2354 48.0213 95.81 46.4714C99.0109 45.3863 102.326 46.5907 105.14 49.861Z" fill="white"/>
<path d="M105.345 49.6831L105.14 49.861M105.14 49.861L137.941 87.948C141.791 92.4171 143.672 99.8113 142.734 106.783C142.029 112.028 139.82 116.193 136.675 118.214L101.254 140.963C98.6789 142.617 95.887 142.645 93.1816 141.046C88.0924 138.038 84.7828 130.209 85.1365 122.008L87.7574 61.1705C88.0756 53.7909 91.2354 48.0213 95.81 46.4714C99.0109 45.3863 102.326 46.5907 105.14 49.861ZM94.2886 142.192C96.7339 143.15 99.2665 142.893 101.552 141.426L136.973 118.677C140.25 116.571 142.548 112.267 143.274 106.865C144.232 99.7419 142.299 92.1772 138.35 87.5922L105.551 49.5058C102.62 46.1034 99.0042 44.8081 95.6296 45.9522C90.8447 47.5717 87.5407 53.5332 87.2138 61.1385L84.5908 121.972C84.2293 130.37 87.6498 138.408 92.9113 141.516C93.3654 141.785 93.8254 142.011 94.2886 142.192Z" stroke="white" stroke-width="2"/>
<path d="M89.6778 143.962C92.0661 144.897 94.5765 144.799 96.952 143.639L137.76 123.697C141.478 121.881 144.323 117.687 145.562 112.193C147.244 104.743 145.713 96.4782 141.66 91.1402L108.403 47.3345C105.328 43.2843 101.314 41.5498 97.3894 42.5788C92.1986 43.9395 88.2543 49.8026 87.341 57.5173L79.7899 121.265C78.7666 129.909 81.8364 138.691 87.2571 142.621C88.0417 143.19 88.852 143.638 89.6778 143.962ZM107.973 47.6647L141.23 91.4704C145.187 96.6824 146.678 104.766 145.031 112.064C143.827 117.397 141.088 121.456 137.516 123.203L96.7084 143.145C93.7013 144.614 90.457 144.271 87.5706 142.179C82.3076 138.364 79.3299 129.795 80.332 121.343L87.8831 57.595C88.7713 50.1033 92.5588 44.4194 97.5353 43.1134C101.235 42.1408 105.04 43.8011 107.973 47.6647Z" fill="white"/>
<path d="M108.403 47.3345L141.66 91.1402C145.713 96.4782 147.244 104.743 145.562 112.193C144.323 117.687 141.478 121.881 137.76 123.697L96.952 143.639C94.5765 144.799 92.0661 144.897 89.6778 143.962C88.852 143.638 88.0417 143.19 87.2571 142.621C81.8364 138.691 78.7666 129.909 79.7899 121.265L87.341 57.5173C88.2543 49.8026 92.1986 43.9395 97.3894 42.5788C101.314 41.5498 105.328 43.2843 108.403 47.3345ZM108.403 47.3345L108.188 47.4987M107.973 47.6647L141.23 91.4704C145.187 96.6824 146.678 104.766 145.031 112.064C143.827 117.397 141.088 121.456 137.516 123.203L96.7084 143.145C93.7013 144.614 90.457 144.271 87.5706 142.179C82.3076 138.364 79.3299 129.795 80.332 121.343L87.8831 57.595C88.7713 50.1033 92.5588 44.4194 97.5353 43.1134C101.235 42.1408 105.04 43.8011 107.973 47.6647Z" stroke="url(#paint18_linear_2423_2868)"/>
<path d="M84.5437 145.334C86.8533 146.238 89.3073 146.287 91.7165 145.44L138.25 129.063C142.464 127.579 145.912 123.516 147.707 117.914C150.164 110.243 149.119 101.345 145.043 95.245L111.721 45.3673C108.535 40.5997 104.103 38.3531 99.5611 39.2019C93.8578 40.2695 89.3367 45.8318 87.7647 53.7163L74.5539 119.97C72.7775 128.878 75.3112 138.147 80.8603 143.038C82.0196 144.064 83.2596 144.831 84.5437 145.334ZM104.98 40.2543C107.33 41.1749 109.496 43.0152 111.27 45.6678L144.591 95.5455C148.576 101.51 149.594 110.22 147.186 117.737C145.444 123.177 142.117 127.116 138.061 128.544L91.5282 144.922C87.9733 146.173 84.3093 145.359 81.2118 142.629C75.8092 137.867 73.3472 128.808 75.0861 120.09L88.2969 53.8362C89.8259 46.1717 94.1827 40.7722 99.6676 39.7442C101.48 39.403 103.278 39.5875 104.98 40.2543Z" fill="white"/>
<path d="M111.721 45.3673L145.043 95.245C149.119 101.345 150.164 110.243 147.707 117.914C145.912 123.516 142.464 127.579 138.25 129.063L91.7165 145.44C89.3073 146.287 86.8533 146.238 84.5437 145.334C83.2596 144.831 82.0196 144.064 80.8603 143.038C75.3112 138.147 72.7775 128.878 74.5539 119.97L87.7647 53.7163C89.3367 45.8318 93.8578 40.2695 99.5611 39.2019C104.103 38.3531 108.535 40.5997 111.721 45.3673ZM111.721 45.3673L111.496 45.5179M104.98 40.2543C107.33 41.1749 109.496 43.0152 111.27 45.6678L144.591 95.5455C148.576 101.51 149.594 110.22 147.186 117.737C145.444 123.177 142.117 127.116 138.061 128.544L91.5282 144.922C87.9733 146.173 84.3093 145.359 81.2118 142.629C75.8092 137.867 73.3472 128.808 75.0862 120.09L88.2969 53.8362C89.8259 46.1717 94.1827 40.7722 99.6676 39.7442C101.48 39.403 103.278 39.5875 104.98 40.2543Z" stroke="white" stroke-width="2"/>
<path d="M78.8613 146.249C81.0636 147.112 83.4169 147.293 85.7978 146.751L138.371 134.775C143.15 133.686 147.27 129.774 149.674 124.043C152.938 116.262 152.455 106.806 148.446 99.9546L115.517 43.6779C112.27 38.1298 107.41 35.286 102.18 35.8732C96.0162 36.5659 90.779 41.8922 88.5109 49.7718L68.8671 118.024C66.3057 126.923 68.241 136.811 73.6843 142.631C75.2487 144.307 77.0015 145.521 78.8613 146.249ZM115.282 43.8148L115.048 43.9524L147.978 100.227C151.901 106.932 152.369 116.194 149.172 123.821C146.835 129.392 142.852 133.188 138.242 134.239L85.6689 146.217C81.4754 147.173 77.3577 145.768 74.0771 142.261C68.7646 136.581 66.8805 126.908 69.3898 118.191L89.0337 49.9381C91.2402 42.2712 96.3035 37.0924 102.249 36.4239C107.253 35.8598 111.917 38.6055 115.048 43.9541L115.282 43.8148Z" fill="white" stroke="url(#paint19_linear_2423_2868)"/>
<path d="M72.6463 146.616C74.7042 147.422 76.9102 147.714 79.1874 147.457L138.083 140.797C143.504 140.183 148.383 136.457 151.468 130.573C155.549 122.789 155.697 112.867 151.848 105.294L119.846 42.3284C116.601 35.9455 111.311 32.4138 105.331 32.6357C98.6789 32.8829 92.6697 37.8912 89.6511 45.7057L62.7602 115.332C59.3267 124.224 60.5033 134.39 65.7589 141.234C67.72 143.789 70.0682 145.606 72.6463 146.616ZM119.604 42.4513L119.361 42.5735L151.366 105.538C155.136 112.955 154.987 122.679 150.987 130.309C147.986 136.034 143.257 139.657 138.014 140.25L79.1191 146.911C74.1857 147.467 69.5937 145.335 66.1895 140.902C61.0507 134.21 59.9039 124.254 63.2702 115.538L90.1611 45.9113C93.101 38.2989 98.9249 33.4221 105.361 33.1826C111.119 32.9698 116.221 36.3914 119.362 42.5701L119.604 42.4513Z" fill="white" stroke="white" stroke-width="2"/>
<path d="M65.9967 146.366C67.856 147.095 69.8341 147.471 71.8734 147.46L137.315 147.11C143.464 147.077 149.203 143.587 153.058 137.531C158.025 129.732 158.844 119.685 155.195 111.315L124.731 41.4286C121.616 34.2815 115.765 29.8527 109.082 29.5864C101.797 29.2944 95.1282 33.7802 91.241 41.585L56.2633 111.819C51.9756 120.429 52.3137 130.983 57.1274 138.707C59.4057 142.364 62.4897 144.992 65.9967 146.366ZM124.235 41.6439L154.697 111.528C158.274 119.731 157.469 129.579 152.598 137.228C148.841 143.126 143.267 146.528 137.304 146.561L71.8625 146.909C66.1708 146.939 60.9681 143.846 57.5876 138.419C52.8756 130.857 52.5474 120.515 56.7524 112.07L91.7289 41.8396C95.5195 34.228 102.001 29.8536 109.07 30.1362C115.537 30.3964 121.206 34.6983 124.235 41.6439Z" fill="white"/>
<path d="M124.484 41.5375L124.235 41.6439M124.235 41.6439L154.697 111.528C158.274 119.731 157.469 129.579 152.598 137.228C148.841 143.126 143.267 146.528 137.304 146.561L71.8625 146.909C66.1708 146.939 60.9681 143.846 57.5876 138.419C52.8756 130.857 52.5474 120.515 56.7524 112.07L91.7289 41.8396C95.5195 34.228 102.001 29.8536 109.07 30.1362C115.537 30.3964 121.206 34.6983 124.235 41.6439ZM65.9967 146.366C67.856 147.095 69.8341 147.471 71.8734 147.46L137.315 147.11C143.464 147.077 149.203 143.587 153.058 137.531C158.025 129.732 158.844 119.685 155.195 111.315L124.731 41.4286C121.616 34.2815 115.765 29.8527 109.082 29.5864C101.797 29.2944 95.1282 33.7802 91.241 41.585L56.2633 111.819C51.9756 120.429 52.3137 130.983 57.1274 138.707C59.4057 142.364 62.4897 144.992 65.9967 146.366Z" stroke="url(#paint20_linear_2423_2868)"/>
<path d="M58.8185 145.436C60.4054 146.058 62.0823 146.463 63.8215 146.632L135.996 153.667C142.966 154.346 149.679 151.157 154.416 144.92C160.188 137.317 161.726 127.013 158.429 118.026L130.194 41.0322C127.25 33.0071 121.01 27.6756 113.5 26.7731C105.644 25.827 98.0977 29.8114 93.3144 37.4279L49.375 107.387C44.141 115.722 43.5444 126.27 47.8204 134.915C50.3185 139.966 54.192 143.623 58.8185 145.436ZM129.939 41.1246L129.684 41.2154L157.919 118.211C161.15 127.022 159.641 137.128 153.982 144.584C149.36 150.671 142.821 153.783 136.041 153.122L63.8658 146.088C57.2445 145.443 51.5745 141.283 48.3082 134.677C44.1183 126.204 44.7034 115.863 49.838 107.688L93.7757 37.728C98.4465 30.2905 105.8 26.4002 113.444 27.3187C120.744 28.1967 126.813 33.3921 129.682 41.2164L129.939 41.1246Z" fill="white" stroke="white" stroke-width="2"/>
<path d="M51.2027 143.731C52.4252 144.21 53.6989 144.582 55.0199 144.842L134.052 160.408C141.94 161.962 149.759 159.17 155.502 152.748C162.048 145.43 164.34 134.969 161.487 125.444L136.252 41.2244C133.587 32.329 127.017 25.9977 118.673 24.2904C110.199 22.5554 101.695 25.9162 95.9258 33.2782L42.1265 101.932C35.999 109.752 34.3813 120.405 37.908 129.734C40.4407 136.434 45.179 141.371 51.2027 143.731ZM122.092 25.8687C128.54 28.3952 133.514 33.9761 135.731 41.3761L160.965 125.595C163.763 134.937 161.514 145.198 155.093 152.376C149.477 158.654 141.843 161.385 134.147 159.868L55.1145 144.302C47.4785 142.799 41.3947 137.42 38.4179 129.545C34.9604 120.397 36.5452 109.947 42.5579 102.276L96.3572 33.6223C101.999 26.4221 110.305 23.1355 118.576 24.8275C119.787 25.0771 120.962 25.4259 122.092 25.8687Z" fill="white"/>
<path d="M136.252 41.2244L161.487 125.444C164.34 134.969 162.048 145.43 155.502 152.748C149.759 159.17 141.94 161.962 134.052 160.408L55.0199 144.842C53.6989 144.582 52.4252 144.21 51.2027 143.731C45.179 141.371 40.4407 136.434 37.908 129.734C34.3813 120.405 35.999 109.752 42.1265 101.932L95.9258 33.2782C101.695 25.9162 110.199 22.5554 118.673 24.2904C127.017 25.9977 133.587 32.329 136.252 41.2244ZM136.252 41.2244L135.992 41.2994M122.092 25.8687C128.54 28.3952 133.514 33.9761 135.731 41.3761L160.965 125.595C163.763 134.937 161.514 145.198 155.093 152.376C149.477 158.654 141.843 161.385 134.147 159.868L55.1145 144.302C47.4785 142.799 41.3947 137.42 38.4179 129.545C34.9604 120.397 36.5452 109.947 42.5579 102.276L96.3572 33.6223C101.999 26.4221 110.305 23.1355 118.576 24.8275C119.787 25.0771 120.962 25.4259 122.092 25.8687Z" stroke="url(#paint21_linear_2423_2868)"/>
<path d="M35.1125 137.851L127.922 174.215C137.782 178.079 148.505 176.432 156.607 169.811C164.708 163.189 168.495 152.976 166.735 142.491L150.176 43.8009C148.418 33.3166 141.479 24.7493 131.619 20.8861C121.76 17.023 111.036 18.6697 102.936 25.2915L26.6837 87.617C18.5822 94.2382 14.7958 104.452 16.5556 114.936C18.3154 125.421 25.2512 133.987 35.1125 137.851ZM149.908 43.8418L149.639 43.8827L166.198 142.573C167.925 152.862 164.21 162.883 156.26 169.38C148.309 175.878 137.787 177.494 128.112 173.703L35.3023 137.339C25.627 133.548 18.82 125.142 17.0933 114.853C15.3665 104.564 19.082 94.5417 27.0316 88.0455L103.284 25.72C111.234 19.2222 121.756 17.6062 131.432 21.3971C141.107 25.188 147.914 33.594 149.641 43.8833L149.908 43.8418Z" fill="white" stroke="url(#paint22_linear_2423_2868)"/>
<path d="M43.3376 141.243C44.0266 141.513 44.7302 141.754 45.4467 141.966L131.387 167.285C140.158 169.87 149.454 167.537 156.251 161.044C163.644 153.984 166.647 143.724 164.283 133.601L142.91 42.1148C140.638 32.3873 133.824 24.971 124.681 22.2772C115.538 19.5833 105.981 22.1756 99.1148 29.2106L34.5467 95.3755C27.4011 102.697 24.7535 113.06 27.4609 123.097C29.7485 131.572 35.6047 138.211 43.3376 141.243ZM126.631 23.522C134.519 26.6126 140.333 33.4623 142.381 42.2324L163.754 133.717C166.074 143.649 163.127 153.714 155.875 160.641C149.217 167 140.117 169.286 131.533 166.758L45.5924 141.438C37.0109 138.909 30.4276 132.004 27.9885 122.963C25.3319 113.116 27.9299 102.949 34.9396 95.766L99.506 29.6004C106.231 22.7082 115.588 20.1683 124.535 22.8047C125.248 23.0149 125.947 23.254 126.631 23.522Z" fill="white"/>
<path d="M142.91 42.1148L164.283 133.601C166.647 143.724 163.644 153.984 156.251 161.044C149.454 167.537 140.158 169.87 131.387 167.285L45.4467 141.966C44.7302 141.754 44.0266 141.513 43.3376 141.243C35.6047 138.211 29.7486 131.572 27.4609 123.097C24.7535 113.06 27.4011 102.697 34.5467 95.3755L99.1148 29.2106C105.981 22.1756 115.538 19.5833 124.681 22.2772C133.824 24.971 140.638 32.3873 142.91 42.1148ZM142.91 42.1148L142.645 42.1724M126.631 23.522C134.519 26.6126 140.333 33.4623 142.381 42.2324L163.754 133.717C166.074 143.649 163.127 153.714 155.875 160.641C149.217 167 140.117 169.286 131.533 166.758L45.5924 141.438C37.0109 138.909 30.4276 132.004 27.9885 122.963C25.3319 113.116 27.9299 102.949 34.9396 95.766L99.506 29.6004C106.231 22.7082 115.588 20.1683 124.535 22.8047C125.248 23.0149 125.947 23.254 126.631 23.522Z" stroke="white" stroke-width="2"/>
</g>
<defs>
<linearGradient id="paint0_linear_2423_2868" x1="-6.19358e-06" y1="234" x2="243.406" y2="172.781" gradientUnits="userSpaceOnUse">
<stop stop-color="#003687"/>
<stop offset="1" stop-color="#0077FF"/>
</linearGradient>
<linearGradient id="paint1_linear_2423_2868" x1="101.858" y1="107.28" x2="114.354" y2="75.3873" gradientUnits="userSpaceOnUse">
<stop stop-color="#DCDEE0"/>
<stop offset="1" stop-color="#7BB8FF"/>
</linearGradient>
<linearGradient id="paint2_linear_2423_2868" x1="99.4002" y1="112.05" x2="114.25" y2="74.151" gradientUnits="userSpaceOnUse">
<stop stop-color="#DCDEE0"/>
<stop offset="1" stop-color="#7BB8FF"/>
</linearGradient>
<linearGradient id="paint3_linear_2423_2868" x1="96.4053" y1="117.339" x2="113.721" y2="73.1449" gradientUnits="userSpaceOnUse">
<stop stop-color="#DCDEE0"/>
<stop offset="1" stop-color="#7BB8FF"/>
</linearGradient>
<linearGradient id="paint4_linear_2423_2868" x1="94.4051" y1="123.585" x2="115.795" y2="68.9911" gradientUnits="userSpaceOnUse">
<stop stop-color="#DCDEE0"/>
<stop offset="1" stop-color="#7BB8FF"/>
</linearGradient>
<linearGradient id="paint5_linear_2423_2868" x1="93.677" y1="130.721" x2="119.715" y2="64.2622" gradientUnits="userSpaceOnUse">
<stop stop-color="#DCDEE0"/>
<stop offset="1" stop-color="#7BB8FF"/>
</linearGradient>
<linearGradient id="paint6_linear_2423_2868" x1="93.3747" y1="138.136" x2="124.367" y2="59.0302" gradientUnits="userSpaceOnUse">
<stop stop-color="#DCDEE0"/>
<stop offset="1" stop-color="#7BB8FF"/>
</linearGradient>
<linearGradient id="paint7_linear_2423_2868" x1="93.6803" y1="145.529" x2="129.756" y2="53.4427" gradientUnits="userSpaceOnUse">
<stop stop-color="#DCDEE0"/>
<stop offset="1" stop-color="#7BB8FF"/>
</linearGradient>
<linearGradient id="paint8_linear_2423_2868" x1="94.754" y1="152.475" x2="135.843" y2="47.5903" gradientUnits="userSpaceOnUse">
<stop stop-color="#DCDEE0"/>
<stop offset="1" stop-color="#7BB8FF"/>
</linearGradient>
<linearGradient id="paint9_linear_2423_2868" x1="92.9501" y1="156.925" x2="138.666" y2="40.2381" gradientUnits="userSpaceOnUse">
<stop stop-color="#DCDEE0"/>
<stop offset="1" stop-color="#7BB8FF"/>
</linearGradient>
<linearGradient id="paint10_linear_2423_2868" x1="87.7462" y1="158.049" x2="137.415" y2="31.2859" gradientUnits="userSpaceOnUse">
<stop stop-color="#DCDEE0"/>
<stop offset="1" stop-color="#7BB8FF"/>
</linearGradient>
<linearGradient id="paint11_linear_2423_2868" x1="81.5192" y1="156.033" x2="134.092" y2="21.8544" gradientUnits="userSpaceOnUse">
<stop stop-color="#DCDEE0"/>
<stop offset="1" stop-color="#7BB8FF"/>
</linearGradient>
<linearGradient id="paint12_linear_2423_2868" x1="101.856" y1="107.28" x2="114.352" y2="75.3873" gradientUnits="userSpaceOnUse">
<stop stop-color="#DCDEE0"/>
<stop offset="1" stop-color="#7BB8FF"/>
</linearGradient>
<linearGradient id="paint13_linear_2423_2868" x1="99.4002" y1="112.051" x2="114.25" y2="74.152" gradientUnits="userSpaceOnUse">
<stop stop-color="#DCDEE0"/>
<stop offset="1" stop-color="#7BB8FF"/>
</linearGradient>
<linearGradient id="paint14_linear_2423_2868" x1="96.4034" y1="117.339" x2="113.719" y2="73.1449" gradientUnits="userSpaceOnUse">
<stop stop-color="#DCDEE0"/>
<stop offset="1" stop-color="#7BB8FF"/>
</linearGradient>
<linearGradient id="paint15_linear_2423_2868" x1="94.4032" y1="123.586" x2="115.793" y2="68.9921" gradientUnits="userSpaceOnUse">
<stop stop-color="#DCDEE0"/>
<stop offset="1" stop-color="#7BB8FF"/>
</linearGradient>
<linearGradient id="paint16_linear_2423_2868" x1="93.677" y1="130.721" x2="119.715" y2="64.2622" gradientUnits="userSpaceOnUse">
<stop stop-color="#DCDEE0"/>
<stop offset="1" stop-color="#7BB8FF"/>
</linearGradient>
<linearGradient id="paint17_linear_2423_2868" x1="93.3747" y1="138.137" x2="124.367" y2="59.0312" gradientUnits="userSpaceOnUse">
<stop stop-color="#DCDEE0"/>
<stop offset="1" stop-color="#7BB8FF"/>
</linearGradient>
<linearGradient id="paint18_linear_2423_2868" x1="93.6803" y1="145.53" x2="129.756" y2="53.4436" gradientUnits="userSpaceOnUse">
<stop stop-color="#DCDEE0"/>
<stop offset="1" stop-color="#7BB8FF"/>
</linearGradient>
<linearGradient id="paint19_linear_2423_2868" x1="94.7521" y1="152.475" x2="135.841" y2="47.5903" gradientUnits="userSpaceOnUse">
<stop stop-color="#DCDEE0"/>
<stop offset="1" stop-color="#7BB8FF"/>
</linearGradient>
<linearGradient id="paint20_linear_2423_2868" x1="92.9482" y1="156.926" x2="138.664" y2="40.239" gradientUnits="userSpaceOnUse">
<stop stop-color="#DCDEE0"/>
<stop offset="1" stop-color="#7BB8FF"/>
</linearGradient>
<linearGradient id="paint21_linear_2423_2868" x1="87.7462" y1="158.049" x2="137.415" y2="31.2859" gradientUnits="userSpaceOnUse">
<stop stop-color="#DCDEE0"/>
<stop offset="1" stop-color="#7BB8FF"/>
</linearGradient>
<linearGradient id="paint22_linear_2423_2868" x1="81.5172" y1="156.033" x2="134.09" y2="21.8544" gradientUnits="userSpaceOnUse">
<stop stop-color="#DCDEE0"/>
<stop offset="1" stop-color="#7BB8FF"/>
</linearGradient>
<clipPath id="clip0_2423_2868">
<rect width="200" height="200" rx="50" fill="white"/>
</clipPath>
</defs>
</svg>
