<svg width="452" height="31" viewBox="0 0 452 31" fill="none" xmlns="http://www.w3.org/2000/svg">
<path d="M4.0126 31V1.1672H29.7456C37.0293 1.1672 41.0419 4.74364 41.0419 10.2828C41.0419 14.5571 38.6431 17.2612 34.6305 18.308C38.5122 19.442 40.3004 22.0153 40.3004 25.2864V31H35.3283V25.1992C35.3283 22.8003 33.8018 20.4887 29.5711 20.4887H8.81027V31H4.0126ZM8.81027 16.2144H30.0945C34.6305 16.2144 36.1134 13.2486 36.1134 10.8062C36.1134 8.36371 34.6741 5.44149 30.0945 5.44149H8.81027V16.2144ZM75.4523 7.01164L87.4464 31H82.2998L78.2436 22.8876H54.9095L50.8533 31H45.7067L57.7009 7.01164C59.6199 3.12988 61.9315 0.774663 66.5548 0.774663C71.2216 0.774663 73.4896 3.12988 75.4523 7.01164ZM76.0193 18.6133L70.7418 8.01479C69.8259 6.18295 68.6919 5.04895 66.5548 5.04895C64.4612 5.04895 63.3272 6.18295 62.4113 8.01479L57.0903 18.6133H76.0193ZM93.4561 1.1672H98.2538V31H93.4561V1.1672ZM105.535 26.6821H131.879C136.153 26.6821 137.898 25.2428 137.898 22.844C137.898 20.3143 135.848 18.9622 130.919 18.5697L116.308 17.3921C109.635 16.8687 105.884 14.4698 105.884 9.23601C105.884 3.39158 110.638 1.1672 116.613 1.1672H140.82V5.4851H116.177C112.732 5.4851 110.769 6.57549 110.769 9.10517C110.769 11.4168 112.339 12.638 117.529 13.0305L131.617 14.1645C138.639 14.7315 142.87 16.9559 142.87 22.6695C142.87 27.6416 139.555 31 131.573 31H105.535V26.6821ZM185.965 5.74679H162.456C155.827 5.74679 153.472 8.53817 153.123 13.9465H185.354V18.2644H153.123C153.472 23.629 155.827 26.3768 162.456 26.3768H185.965V31H162.456C152.076 31 148.238 25.9843 148.238 16.0836C148.238 6.18295 152.076 1.1672 162.456 1.1672H185.965V5.74679ZM208.7 31H206.737V2.95542H190.207V1.1672H225.23V2.95542H208.7V31ZM251.732 6.88079L263.203 31H261.109L256.53 21.361H230.579L225.999 31H223.905L235.376 6.88079C237.383 2.65012 239.825 0.818278 243.532 0.818278C247.283 0.818278 249.726 2.65012 251.732 6.88079ZM255.657 19.6164L249.813 7.36056C248.461 4.48195 246.716 2.56289 243.532 2.56289C240.392 2.56289 238.647 4.48195 237.295 7.36056L231.451 19.6164H255.657ZM268.836 1.1672H270.755V19.5292C270.755 26.2459 274.244 29.0809 282.574 29.0809H301.765V31H282.574C273.11 31 268.836 27.5108 268.836 19.5292V1.1672ZM342.378 31H339.761L332.565 22.1025C330.646 19.7037 327.723 16.8251 324.06 16.8251H309.754V31H307.835V1.1672H309.754V15.0368H323.842C327.505 15.0368 330.776 12.2455 332.39 10.0211L338.932 1.1672H341.462L334.047 10.8934C332.259 13.2486 329.73 15.0805 327.113 15.8655C329.773 16.6506 332.128 18.5697 334.266 21.143L342.378 31ZM346.219 29.2118H372.214C377.796 29.2118 380.675 27.1619 380.675 23.2801C380.675 19.5728 378.058 17.6974 371.821 17.174L356.905 15.9091C350.319 15.3421 347.091 12.9433 347.091 8.32009C347.091 3.43519 350.711 1.1672 356.25 1.1672H380.457V2.95542H356.12C351.627 2.95542 349.054 4.65642 349.054 8.27648C349.054 11.7657 351.54 13.6411 357.341 14.1209L372.083 15.3421C379.148 15.9528 382.681 18.2644 382.681 23.2365C382.681 28.1214 379.279 31 372.126 31H346.219V29.2118ZM391.864 25.897V31H389.596V25.897H391.864ZM426.295 6.88079L437.766 31H435.672L431.093 21.361H405.142L400.562 31H398.469L409.939 6.88079C411.946 2.65012 414.388 0.818278 418.095 0.818278C421.846 0.818278 424.289 2.65012 426.295 6.88079ZM430.22 19.6164L424.376 7.36056C423.024 4.48195 421.279 2.56289 418.095 2.56289C414.955 2.56289 413.21 4.48195 411.858 7.36056L406.014 19.6164H430.22ZM445.023 1.1672H446.942V31H445.023V1.1672Z" fill="white"/>
</svg>
