<svg preserveAspectRatio="none" width="100%" height="100%" overflow="visible" style="display: block;" viewBox="0 0 227.384 14" fill="none" xmlns="http://www.w3.org/2000/svg">
<g id="Group 1321315422">
<path id="Vector" d="M0 14V0.181818H12.0509C15.4619 0.181818 17.341 1.83838 17.341 4.40405C17.341 6.38385 16.2176 7.63636 14.3385 8.12122C16.1563 8.64648 16.9938 9.8384 16.9938 11.3535V14H14.6653V11.3131C14.6653 10.202 13.9504 9.1313 11.9692 9.1313H2.24677V14H0ZM2.24677 7.15149H12.2143C14.3385 7.15149 15.033 5.77777 15.033 4.64648C15.033 3.51515 14.3589 2.16162 12.2143 2.16162H2.24677V7.15149ZM33.4556 2.88889L39.0725 14H36.6623L34.7627 10.2424H23.8353L21.9357 14H19.5255L25.1425 2.88889C26.0412 1.09091 27.1237 0 29.2888 0C31.4743 0 32.5364 1.09091 33.4556 2.88889ZM33.7211 8.26264L31.2496 3.35354C30.8207 2.50505 30.2896 1.9798 29.2888 1.9798C28.3084 1.9798 27.7773 2.50505 27.3484 3.35354L24.8565 8.26264H33.7211ZM41.8868 0.181818H44.1336V14H41.8868V0.181818ZM47.5434 12H59.8805C61.882 12 62.6992 11.3333 62.6992 10.2222C62.6992 9.05052 61.7392 8.42424 59.4309 8.24244L52.5885 7.69699C49.4635 7.45456 47.7069 6.34342 47.7069 3.91919C47.7069 1.21212 49.9332 0.181818 52.7313 0.181818H64.0676V2.18182H52.5271C50.9138 2.18182 49.9945 2.68687 49.9945 3.85859C49.9945 4.92931 50.7298 5.49495 53.1603 5.67675L59.7578 6.20201C63.0462 6.46463 65.0276 7.49495 65.0276 10.1414C65.0276 12.4444 63.4752 14 59.7372 14H47.5434V12ZM85.2092 2.30303H74.1998C71.0954 2.30303 69.9926 3.59596 69.8291 6.10103H84.9231V8.10103H69.8291C69.9926 10.5858 71.0954 11.8586 74.1998 11.8586H85.2092V14H74.1998C69.3388 14 67.5415 11.6768 67.5415 7.09091C67.5415 2.50505 69.3388 0.181818 74.1998 0.181818H85.2092V2.30303ZM95.8561 14H94.9368V1.0101H87.1957V0.181818H103.597V1.0101H95.8561V14ZM116.008 2.82828L121.38 14H120.399L118.255 9.53534H106.102L103.957 14H102.977L108.349 2.82828C109.288 0.868688 110.432 0.0202019 112.168 0.0202019C113.925 0.0202019 115.069 0.868688 116.008 2.82828ZM117.846 8.72726L115.11 3.05051C114.476 1.71717 113.659 0.828285 112.168 0.828285C110.698 0.828285 109.88 1.71717 109.247 3.05051L106.511 8.72726H117.846ZM124.018 0.181818H124.917V8.68687C124.917 11.798 126.551 13.1111 130.452 13.1111H139.439V14H130.452C126.02 14 124.018 12.3838 124.018 8.68687V0.181818ZM158.458 14H157.233L153.863 9.87879C152.964 8.7677 151.595 7.43436 149.88 7.43436H143.18V14H142.281V0.181818H143.18V6.60604H149.778C151.493 6.60604 153.025 5.31315 153.781 4.28283L156.844 0.181818H158.029L154.557 4.68687C153.719 5.77777 152.535 6.62629 151.309 6.98989C152.555 7.35354 153.658 8.24244 154.659 9.43436L158.458 14ZM160.257 13.1717H172.43C175.045 13.1717 176.393 12.2222 176.393 10.4242C176.393 8.70706 175.167 7.8384 172.246 7.59597L165.261 7.01008C162.177 6.74746 160.665 5.63636 160.665 3.49495C160.665 1.23232 162.361 0.181818 164.954 0.181818H176.291V1.0101H164.894C162.79 1.0101 161.585 1.79798 161.585 3.47475C161.585 5.09091 162.749 5.95957 165.465 6.18181L172.369 6.74746C175.678 7.03032 177.332 8.10103 177.332 10.404C177.332 12.6667 175.739 14 172.389 14H160.257V13.1717Z" fill="var(--fill-0, white)"/>
<g id="Group 1321315421">
<path id="Vector_2" d="M199.63 13.8381H198.71V0.848179H190.969V0.0198975H207.371V0.848179H199.63V13.8381Z" fill="var(--fill-0, white)"/>
<path id="Vector_3" d="M208.981 0.0195907L214.353 11.1913C215.292 13.1509 216.436 13.9994 218.193 13.9994C219.929 13.9994 221.073 13.1509 222.013 11.1913L227.384 0.0195923L226.404 0.0195922L223.851 5.29234L221.114 10.9691C220.481 12.3024 219.663 13.1913 218.193 13.1913C216.702 13.1913 215.885 12.3024 215.252 10.9691L212.515 5.29233L209.962 0.0195908L208.981 0.0195907Z" fill="var(--fill-0, white)"/>
</g>
</g>
</svg>
