<svg width="678" height="94" viewBox="0 0 678 94" fill="none" xmlns="http://www.w3.org/2000/svg">
<path d="M482.546 86.7715C480.688 86.7715 479.075 86.4754 477.707 85.8832C476.339 85.2706 475.175 84.4437 474.215 83.4023C473.378 82.4834 472.724 81.4318 472.255 80.2474C471.785 79.0631 471.55 77.7869 471.55 76.4188C471.55 74.9077 471.846 73.4988 472.438 72.1919C473.031 70.8851 473.847 69.7518 474.889 68.7921C475.808 67.9344 476.89 67.2708 478.135 66.8011C479.401 66.3111 480.872 66.066 482.546 66.066H493.726V71.5487H482.546C481.607 71.5487 480.831 71.6712 480.218 71.9162C479.606 72.1613 479.075 72.488 478.626 72.8964C478.156 73.3456 477.778 73.8765 477.492 74.4891C477.227 75.1017 477.094 75.7551 477.094 76.4494C477.094 77.0824 477.206 77.6848 477.431 78.2565C477.656 78.8079 477.972 79.2979 478.381 79.7267C478.83 80.2168 479.391 80.6252 480.065 80.9519C480.739 81.2582 481.566 81.4113 482.546 81.4113H487.845C488.11 81.4113 488.243 81.2684 488.243 80.9825V75.4386H493.756V85.4544C493.756 86.3325 493.317 86.7715 492.439 86.7715H482.546ZM518.463 66.066V71.5487H502.72C502.393 71.5487 502.23 71.7223 502.23 72.0694V74.4279H518.371V78.4097H502.23V80.9213C502.23 81.2888 502.393 81.4726 502.72 81.4726H518.463V86.7715H499.596C497.656 86.7715 496.686 85.8118 496.686 83.8923V68.8533C496.686 66.9951 497.666 66.066 499.626 66.066H518.463ZM543.883 66.066V71.5487H534.817V86.7715H529.242V71.5487H520.146V66.066H543.883ZM545.697 66.9849C545.615 66.8216 545.544 66.6684 545.483 66.5255C545.442 66.3825 545.401 66.2294 545.36 66.066H551.915C551.976 66.3315 552.048 66.5765 552.129 66.8011L558.316 81.1051C558.419 81.3297 558.541 81.493 558.684 81.5951C558.847 81.6972 559.021 81.7483 559.205 81.7483C559.388 81.7483 559.552 81.7074 559.695 81.6258C559.838 81.5237 559.96 81.3501 560.062 81.1051L566.188 66.8011C566.29 66.5765 566.372 66.3315 566.433 66.066H572.896C572.855 66.2294 572.804 66.3825 572.743 66.5255C572.702 66.6684 572.641 66.8216 572.559 66.9849L565.147 83.4023C564.555 84.6887 563.779 85.6484 562.819 86.2814C561.859 86.894 560.644 87.2003 559.174 87.2003C556.315 87.2003 554.314 85.9343 553.171 83.4023L545.697 66.9849ZM580.69 66.066V86.7715H575.115V66.066H580.69ZM605.444 71.5487H590.558C590.211 71.5487 589.935 71.5895 589.731 71.6712C589.547 71.7325 589.394 71.8244 589.271 71.9469C588.986 72.2328 588.843 72.5901 588.843 73.0189C588.843 73.4681 589.016 73.8357 589.363 74.1216C589.486 74.2237 589.629 74.3053 589.792 74.3666C589.976 74.4074 590.231 74.4279 590.558 74.4279H599.655C600.819 74.4279 601.799 74.6014 602.595 74.9486C603.412 75.2753 604.096 75.7245 604.647 76.2962C605.199 76.868 605.628 77.5214 605.934 78.2565C606.261 78.9916 606.424 79.7676 606.424 80.5844C606.424 81.3399 606.281 82.0648 605.995 82.759C605.73 83.4533 605.362 84.0761 604.892 84.6274C604.321 85.2809 603.606 85.8016 602.748 86.1895C601.911 86.5775 600.88 86.7715 599.655 86.7715H583.605V81.4726H598.675C599.103 81.4726 599.43 81.4318 599.655 81.3501C599.9 81.248 600.094 81.1153 600.237 80.9519C600.461 80.6865 600.574 80.37 600.574 80.0024C600.574 79.5532 600.431 79.1856 600.145 78.8997C600.002 78.7364 599.818 78.6241 599.594 78.5628C599.389 78.4811 599.083 78.4403 598.675 78.4403H590.252C588.863 78.4403 587.74 78.2769 586.882 77.9502C586.045 77.6031 585.351 77.1437 584.8 76.5719C584.248 76.0002 583.819 75.3569 583.513 74.6423C583.207 73.9072 583.054 73.1108 583.054 72.2532C583.054 71.416 583.207 70.6298 583.513 69.8947C583.84 69.1596 584.279 68.5062 584.83 67.9344C585.382 67.3627 586.076 66.9135 586.913 66.5867C587.75 66.2396 588.863 66.066 590.252 66.066H605.444V71.5487ZM614.25 66.066V86.7715H608.676V66.066H614.25ZM627.886 86.7715C626.028 86.7715 624.415 86.4754 623.047 85.8832C621.678 85.2706 620.514 84.4437 619.555 83.4023C618.718 82.4834 618.064 81.4318 617.594 80.2474C617.125 79.0631 616.89 77.7869 616.89 76.4188C616.89 74.9077 617.186 73.4988 617.778 72.1919C618.37 70.8851 619.187 69.7518 620.229 68.7921C621.148 67.9344 622.23 67.2708 623.475 66.8011C624.741 66.3111 626.212 66.066 627.886 66.066H632.235C633.91 66.066 635.37 66.3111 636.615 66.8011C637.881 67.2708 638.974 67.9344 639.893 68.7921C640.934 69.7518 641.751 70.8851 642.343 72.1919C642.935 73.4988 643.231 74.9077 643.231 76.4188C643.231 77.7869 642.996 79.0631 642.527 80.2474C642.057 81.4318 641.404 82.4834 640.567 83.4023C639.607 84.4437 638.443 85.2706 637.075 85.8832C635.707 86.4754 634.094 86.7715 632.235 86.7715H627.886ZM627.886 71.5487C626.947 71.5487 626.171 71.6712 625.558 71.9162C624.946 72.1613 624.415 72.488 623.965 72.8964C623.496 73.3456 623.118 73.8765 622.832 74.4891C622.567 75.1017 622.434 75.7551 622.434 76.4494C622.434 77.0824 622.546 77.6848 622.771 78.2565C622.995 78.8079 623.312 79.2979 623.72 79.7267C624.17 80.2168 624.731 80.6048 625.405 80.8906C626.079 81.1765 626.906 81.3195 627.886 81.3195H632.235C633.215 81.3195 634.042 81.1765 634.716 80.8906C635.39 80.6048 635.952 80.2168 636.401 79.7267C636.809 79.2979 637.126 78.8079 637.35 78.2565C637.575 77.6848 637.687 77.0824 637.687 76.4494C637.687 75.7551 637.544 75.1017 637.259 74.4891C636.993 73.8765 636.626 73.3456 636.156 72.8964C635.707 72.488 635.176 72.1613 634.563 71.9162C633.951 71.6712 633.175 71.5487 632.235 71.5487H627.886ZM671.583 82.759C671.583 83.535 671.471 84.2088 671.246 84.7806C671.042 85.3319 670.756 85.7913 670.388 86.1589C670.041 86.506 669.633 86.7613 669.163 86.9246C668.694 87.1084 668.204 87.2003 667.693 87.2003C666.815 87.2003 666.039 87.0676 665.365 86.8021C664.712 86.5571 664.14 86.1487 663.65 85.5769L652.287 72.4369C652.123 72.2532 651.96 72.1613 651.796 72.1613C651.654 72.1613 651.531 72.2123 651.429 72.3144C651.327 72.4165 651.276 72.5595 651.276 72.7432V86.7715H645.824V70.446C645.824 69.568 645.936 68.8227 646.161 68.2101C646.406 67.5975 646.743 67.0972 647.171 66.7093C647.6 66.3213 648.111 66.0456 648.703 65.8823C649.295 65.6985 649.938 65.6066 650.633 65.6066C651.613 65.6066 652.44 65.7597 653.114 66.066C653.787 66.3723 654.451 66.9032 655.104 67.6588L665.212 79.7574C665.294 79.8595 665.375 79.9309 665.457 79.9718C665.539 79.9922 665.631 80.0024 665.733 80.0024C666.019 80.0024 666.162 79.8186 666.162 79.4511V66.066H671.583V82.759Z" fill="url(#paint0_linear_5073_318)"/>
<path d="M299.977 87.3843V76.5109H304.479C304.949 76.5109 305.378 76.6079 305.765 76.8018C306.164 76.9958 306.506 77.2613 306.792 77.5982C307.077 77.9249 307.302 78.2925 307.465 78.7009C307.629 79.099 307.71 79.5074 307.71 79.926C307.71 80.5182 307.578 81.0797 307.312 81.6106C307.057 82.1313 306.695 82.555 306.225 82.8818C305.755 83.2085 305.204 83.3718 304.571 83.3718H301.049V87.3843H299.977ZM301.049 82.4223H304.525C304.954 82.4223 305.326 82.3049 305.643 82.0701C305.959 81.8353 306.204 81.529 306.378 81.1512C306.552 80.7734 306.638 80.3651 306.638 79.926C306.638 79.4768 306.536 79.0633 306.332 78.6855C306.128 78.3078 305.857 78.0117 305.52 77.7973C305.194 77.5727 304.831 77.4604 304.433 77.4604H301.049V82.4223ZM319.703 87.4609C318.937 87.4609 318.243 87.3077 317.62 87.0014C316.997 86.6951 316.461 86.2816 316.012 85.7609C315.563 85.23 315.216 84.6378 314.971 83.9844C314.726 83.3208 314.603 82.6418 314.603 81.9476C314.603 81.2227 314.731 80.5335 314.986 79.8801C315.241 79.2165 315.599 78.6294 316.058 78.1189C316.528 77.5982 317.074 77.1898 317.697 76.8937C318.319 76.5874 318.993 76.4343 319.718 76.4343C320.484 76.4343 321.178 76.5925 321.801 76.909C322.424 77.2255 322.955 77.6492 323.394 78.1802C323.843 78.7111 324.19 79.3032 324.435 79.9567C324.68 80.6101 324.803 81.2788 324.803 81.9629C324.803 82.6878 324.675 83.382 324.42 84.0457C324.165 84.6991 323.807 85.2862 323.348 85.8069C322.888 86.3174 322.347 86.7206 321.724 87.0167C321.102 87.3128 320.428 87.4609 319.703 87.4609ZM315.675 81.9476C315.675 82.5397 315.772 83.1115 315.966 83.6628C316.16 84.2039 316.436 84.6889 316.793 85.1177C317.15 85.5363 317.574 85.8732 318.064 86.1285C318.565 86.3735 319.111 86.496 319.703 86.496C320.326 86.496 320.882 86.3684 321.372 86.1132C321.872 85.8477 322.296 85.5006 322.643 85.0718C323.001 84.6327 323.271 84.1427 323.455 83.6016C323.639 83.0604 323.731 82.5091 323.731 81.9476C323.731 81.3554 323.634 80.7888 323.44 80.2476C323.246 79.7065 322.965 79.2216 322.597 78.7927C322.24 78.3639 321.816 78.027 321.326 77.782C320.836 77.5369 320.295 77.4144 319.703 77.4144C319.09 77.4144 318.534 77.542 318.034 77.7973C317.544 78.0525 317.12 78.3997 316.762 78.8387C316.415 79.2675 316.145 79.7525 315.951 80.2936C315.767 80.8347 315.675 81.386 315.675 81.9476ZM336.314 76.5874H337.324L338.856 80.4467L340.403 76.5874H341.429L339.53 81.2278L341.613 86.1438L345.548 76.5109H346.712L342.103 87.3843H341.153L338.871 82.0088L336.574 87.3843H335.64L331.045 76.5109H332.194L336.145 86.1438L338.213 81.2278L336.314 76.5874ZM361.367 86.4348V87.3843H354.062V76.5109H361.229V77.4604H355.134V81.3809H360.448V82.2845H355.134V86.4348H361.367ZM369.214 87.3843V76.5109H373.808C374.278 76.5109 374.707 76.6079 375.095 76.8018C375.483 76.9958 375.82 77.2613 376.105 77.5982C376.402 77.9249 376.626 78.2925 376.779 78.7009C376.943 79.099 377.024 79.5074 377.024 79.926C377.024 80.4467 376.922 80.9368 376.718 81.3962C376.524 81.8557 376.243 82.2437 375.876 82.5602C375.518 82.8767 375.095 83.086 374.605 83.1881L377.269 87.3843H376.059L373.502 83.3718H370.286V87.3843H369.214ZM370.286 82.4223H373.839C374.268 82.4223 374.64 82.3049 374.957 82.0701C375.273 81.8353 375.518 81.529 375.692 81.1512C375.865 80.7632 375.952 80.3548 375.952 79.926C375.952 79.487 375.85 79.0837 375.646 78.7162C375.452 78.3384 375.187 78.0372 374.85 77.8126C374.523 77.5778 374.155 77.4604 373.747 77.4604H370.286V82.4223ZM392.344 86.4348V87.3843H385.039V76.5109H392.206V77.4604H386.111V81.3809H391.425V82.2845H386.111V86.4348H392.344ZM400.191 87.3843V76.5109H403.882C405.035 76.5109 405.995 76.7559 406.761 77.246C407.537 77.7258 408.119 78.3792 408.507 79.2062C408.895 80.023 409.089 80.9317 409.089 81.9323C409.089 83.0349 408.874 83.9946 408.445 84.8114C408.027 85.6282 407.424 86.2612 406.638 86.7104C405.862 87.1597 404.943 87.3843 403.882 87.3843H400.191ZM408.017 81.9323C408.017 81.0644 407.853 80.2936 407.526 79.6197C407.21 78.9459 406.745 78.4201 406.133 78.0423C405.52 77.6544 404.77 77.4604 403.882 77.4604H401.263V86.4348H403.882C404.78 86.4348 405.536 86.2357 406.148 85.8375C406.761 85.4393 407.225 84.9033 407.542 84.2295C407.858 83.5454 408.017 82.7797 408.017 81.9323ZM434.859 84.5817C434.859 85.1228 434.721 85.6078 434.445 86.0366C434.17 86.4552 433.797 86.787 433.327 87.032C432.868 87.2669 432.363 87.3843 431.811 87.3843H426.681V76.5109H431.919C432.429 76.5109 432.868 76.6487 433.236 76.9244C433.613 77.1898 433.899 77.5369 434.093 77.9658C434.297 78.3844 434.4 78.8234 434.4 79.2828C434.4 79.8239 434.262 80.3242 433.986 80.7837C433.71 81.2431 433.327 81.5851 432.837 81.8097C433.46 81.9935 433.95 82.3355 434.308 82.8358C434.675 83.3361 434.859 83.9181 434.859 84.5817ZM433.787 84.3979C433.787 84.0304 433.705 83.6934 433.542 83.3871C433.379 83.0706 433.154 82.8154 432.868 82.6214C432.592 82.4274 432.276 82.3304 431.919 82.3304H427.753V86.4501H431.811C432.179 86.4501 432.511 86.3531 432.807 86.1591C433.103 85.9651 433.338 85.715 433.511 85.4087C433.695 85.0922 433.787 84.7553 433.787 84.3979ZM427.753 77.4451V81.4575H431.49C431.847 81.4575 432.164 81.3656 432.439 81.1818C432.715 80.9878 432.934 80.7377 433.098 80.4314C433.261 80.1251 433.343 79.7984 433.343 79.4513C433.343 79.0837 433.266 78.7519 433.113 78.4558C432.96 78.1495 432.751 77.9045 432.485 77.7207C432.22 77.5369 431.919 77.4451 431.582 77.4451H427.753ZM442.298 76.5109L445.851 82.3611L449.435 76.5109H450.599L446.387 83.3412V87.3843H445.315V83.3106L441.119 76.5109H442.298Z" fill="black"/>
<path d="M6.01936 46.1143V1.36161H44.6218C55.5482 1.36161 61.5676 6.72669 61.5676 15.036C61.5676 21.448 57.9691 25.5045 51.9497 27.0748C57.7728 28.7759 60.4553 32.6361 60.4553 37.5432V46.1143H52.9966V37.4124C52.9966 33.8138 50.7066 30.3461 44.3601 30.3461H13.2164V46.1143H6.01936ZM13.2164 23.9342H45.1452C51.9497 23.9342 54.1743 19.4851 54.1743 15.8212C54.1743 12.1572 52.0151 7.77354 45.1452 7.77354H13.2164V23.9342ZM113.187 10.1289L131.18 46.1143H123.459L117.374 33.9447H82.3706L76.2858 46.1143H68.5653L86.558 10.1289C89.4368 4.30586 92.9045 0.772757 99.8398 0.772757C106.841 0.772757 110.243 4.30586 113.187 10.1289ZM114.038 27.5327L106.121 11.6338C104.747 8.88581 103.046 7.18469 99.8398 7.18469C96.6993 7.18469 94.9982 8.88581 93.6242 11.6338L85.642 27.5327H114.038ZM140.195 1.36161H147.392V46.1143H140.195V1.36161ZM158.315 39.6369H197.833C204.245 39.6369 206.862 37.4778 206.862 33.8792C206.862 30.0844 203.787 28.0562 196.394 27.4673L174.476 25.7008C164.465 24.9156 158.838 21.3171 158.838 13.4658C158.838 4.69843 165.97 1.36161 174.934 1.36161H211.246V7.83896H174.279C169.111 7.83896 166.166 9.47466 166.166 13.2695C166.166 16.7372 168.522 18.5691 176.308 19.158L197.441 20.8591C207.975 21.7097 214.321 25.0465 214.321 33.6175C214.321 41.0763 209.349 46.1143 197.375 46.1143H158.315V39.6369ZM278.969 8.23153H243.703C233.758 8.23153 230.225 12.4189 229.702 20.532H278.053V27.0093H229.702C230.225 35.057 233.758 39.1789 243.703 39.1789H278.969V46.1143H243.703C228.132 46.1143 222.374 38.5901 222.374 23.7379C222.374 8.88581 228.132 1.36161 243.703 1.36161H278.969V8.23153ZM313.074 46.1143H310.13V4.04415H285.332V1.36161H337.871V4.04415H313.074V46.1143ZM377.627 9.93266L394.835 46.1143H391.694L384.824 31.6547H345.895L339.025 46.1143H335.884L353.092 9.93266C356.101 3.58615 359.765 0.838184 365.327 0.838184C370.953 0.838184 374.617 3.58615 377.627 9.93266ZM383.516 29.0376L374.748 10.6524C372.72 6.33412 370.103 3.4553 365.327 3.4553C360.616 3.4553 357.999 6.33412 355.97 10.6524L347.203 29.0376H383.516ZM403.284 1.36161H406.163V28.9067C406.163 38.9826 411.398 43.2354 423.894 43.2354H452.683V46.1143H423.894C409.696 46.1143 403.284 40.88 403.284 28.9067V1.36161ZM513.607 46.1143H509.681L498.885 32.767C496.006 29.1684 491.623 24.8502 486.127 24.8502H464.667V46.1143H461.788V1.36161H464.667V22.1677H485.8C491.296 22.1677 496.203 17.9803 498.624 14.6435L508.438 1.36161H512.233L501.11 15.952C498.427 19.4851 494.632 22.2331 490.707 23.4108C494.698 24.5885 498.231 27.4673 501.437 31.3276L513.607 46.1143ZM519.368 43.4317H558.363C566.738 43.4317 571.056 40.3566 571.056 34.5335C571.056 28.9722 567.131 26.1588 557.774 25.3736L535.398 23.4762C525.519 22.6257 520.677 19.0271 520.677 12.0918C520.677 4.76386 526.107 1.36161 534.417 1.36161H570.729V4.04415H534.22C527.481 4.04415 523.621 6.59584 523.621 12.0263C523.621 17.2606 527.351 20.074 536.052 20.7937L558.167 22.6257C568.766 23.5416 574.066 27.0093 574.066 34.4681C574.066 41.796 568.963 46.1143 558.232 46.1143H519.368V43.4317ZM587.842 38.4592V46.1143H584.439V38.4592H587.842ZM639.492 9.93266L656.699 46.1143H653.559L646.689 31.6547H607.759L600.889 46.1143H597.749L614.956 9.93266C617.966 3.58615 621.63 0.838184 627.191 0.838184C632.818 0.838184 636.482 3.58615 639.492 9.93266ZM645.38 29.0376L636.613 10.6524C634.585 6.33412 631.968 3.4553 627.191 3.4553C622.481 3.4553 619.863 6.33412 617.835 10.6524L609.068 29.0376H645.38ZM667.586 1.36161H670.465V46.1143H667.586V1.36161Z" fill="url(#paint1_linear_5073_318)"/>
<defs>
<linearGradient id="paint0_linear_5073_318" x1="673.478" y1="91.9685" x2="471.878" y2="100.203" gradientUnits="userSpaceOnUse">
<stop stop-color="#010621"/>
<stop offset="1" stop-color="#0162D8"/>
</linearGradient>
<linearGradient id="paint1_linear_5073_318" x1="678" y1="46.4002" x2="9.45693" y2="109.23" gradientUnits="userSpaceOnUse">
<stop stop-color="#010621"/>
<stop offset="1" stop-color="#0162D8"/>
</linearGradient>
</defs>
</svg>
