<svg xmlns="http://www.w3.org/2000/svg" width="60" height="56" viewBox="0 0 60 56" fill="none"><path d="M9.34544 32.7967C9.11772 32.7967 8.90083 32.7026 8.74902 32.5249L5.97295 29.2421C4.83432 27.8934 4.30297 26.1265 4.54154 24.391L6.53683 9.59754C6.59105 9.23162 6.91637 8.94934 7.30676 8.94934H19.6039C19.8641 8.94934 20.1136 9.0748 20.2545 9.29435L22.2824 12.3785C23.1065 13.6331 23.5403 15.0654 23.5403 16.55V26.9211C23.5403 28.4161 22.2824 29.6289 20.7317 29.6289C19.181 29.6289 17.9231 28.4161 17.9231 26.9211V21.3801C17.9231 20.8469 17.4785 20.4182 16.9254 20.4182C16.6001 20.4182 16.2965 20.5646 16.1121 20.826L12.5986 25.5829C12.4143 25.8338 12.436 26.1893 12.6529 26.4193L13.7915 27.632C14.0734 27.9352 14.0517 28.4057 13.7373 28.688C13.4228 28.9598 12.9348 28.9389 12.642 28.6357L11.5034 27.4229C10.7985 26.6806 10.7335 25.5411 11.3407 24.7256L14.8542 19.9687C15.3313 19.3205 16.1013 18.9441 16.9254 18.9441C18.3243 18.9441 19.4629 20.0419 19.4629 21.3905V26.9316C19.4629 27.6007 20.0268 28.1548 20.7317 28.1548C21.4257 28.1548 22.0004 27.6111 22.0004 26.9316V16.5604C22.0004 15.3686 21.6534 14.1976 20.9811 13.1835L19.181 10.4444H7.97909L6.07054 24.5897C5.89704 25.9174 6.28742 27.2661 7.16579 28.3116L9.94186 31.5944C10.213 31.908 10.1587 32.3785 9.83342 32.6399C9.69245 32.7444 9.51895 32.7967 9.34544 32.7967Z" fill="white"></path><path d="M19.3004 10.4338H8.18529C6.36349 10.4338 4.79111 9.11654 4.53085 7.38105L3.9778 3.69051C3.91274 3.28277 4.20552 2.9064 4.62844 2.84367C5.05136 2.7914 5.44175 3.06322 5.50681 3.47096L6.05986 7.1615C6.21168 8.17561 7.12257 8.93881 8.18529 8.93881H19.3004C20.3631 8.93881 21.2849 8.16516 21.4258 7.15104L21.9897 3.24096C22.044 2.83322 22.4343 2.55094 22.8573 2.60321C23.2802 2.65549 23.573 3.03186 23.5187 3.4396L22.9549 7.34968C22.7163 9.11654 21.1439 10.4338 19.3004 10.4338Z" fill="white"></path><path d="M9.52997 20.4181C9.49744 20.4181 9.45406 20.4181 9.42153 20.4077C8.99862 20.345 8.70583 19.9686 8.77089 19.5608L10.289 9.57653C10.3541 9.1688 10.7445 8.88652 11.1674 8.94925C11.5903 9.01198 11.8831 9.38835 11.8181 9.79608L10.2999 19.7804C10.2348 20.1463 9.90951 20.4181 9.52997 20.4181Z" fill="white"></path><path d="M17.2938 44.7674C12.0453 44.7674 7.77271 40.6482 7.77271 35.5881C7.77271 30.528 12.0453 26.4088 17.2938 26.4088C17.8143 26.4088 18.3348 26.4506 18.8445 26.5342C19.2674 26.597 19.5493 26.9838 19.4843 27.3915C19.4192 27.7993 19.018 28.0711 18.595 28.0084C18.1721 27.9352 17.7275 27.9038 17.2938 27.9038C12.8911 27.9038 9.3234 31.3539 9.3234 35.5881C9.3234 39.8223 12.9019 43.2723 17.2938 43.2723C21.6964 43.2723 25.2641 39.8223 25.2641 35.5881C25.2641 32.943 23.8761 30.5175 21.5663 29.0957C21.2085 28.8761 21.1 28.4161 21.3277 28.0711C21.5555 27.7261 22.0326 27.6215 22.3905 27.8411C25.1557 29.5348 26.804 32.4307 26.804 35.5881C26.804 40.6482 22.5423 44.7674 17.2938 44.7674Z" fill="#FFAB0E"></path><path d="M19.2461 6.69103H8.25027C7.82735 6.69103 7.48035 6.35648 7.48035 5.94874C7.48035 5.541 7.82735 5.20645 8.25027 5.20645H19.2461C19.669 5.20645 20.016 5.541 20.016 5.94874C20.0269 6.35648 19.6799 6.69103 19.2461 6.69103Z" fill="white"></path><path d="M22.7594 1.48458H4.7366C4.31368 1.48458 3.96667 1.15003 3.96667 0.742289C3.96667 0.334553 4.31368 0 4.7366 0H22.7594C23.1823 0 23.5293 0.334553 23.5293 0.742289C23.5293 1.15003 23.1931 1.48458 22.7594 1.48458Z" fill="white"></path><path d="M28.9646 56H9.03324C8.61032 56 8.26331 55.6654 8.26331 55.2577V51.4103C8.26331 51.0026 8.61032 50.6681 9.03324 50.6681H28.9754C29.3983 50.6681 29.7453 51.0026 29.7453 51.4103V55.2577C29.7345 55.6654 29.3983 56 28.9646 56ZM9.80316 54.5154H28.1946V52.1631H9.80316V54.5154Z" fill="white"></path><path d="M53.2768 56H33.3455C32.9226 56 32.5756 55.6654 32.5756 55.2577V51.4103C32.5756 51.0026 32.9226 50.6681 33.3455 50.6681H53.2876C53.7106 50.6681 54.0576 51.0026 54.0576 51.4103V55.2577C54.0467 55.6654 53.6997 56 53.2768 56ZM34.1154 54.5154H52.5069V52.1631H34.1154V54.5154V54.5154Z" fill="white"></path><path d="M52.2768 52.3156H32.3455C31.9226 52.3156 31.5756 51.9811 31.5756 51.5734V47.726C31.5756 47.3183 31.9226 46.9837 32.3455 46.9837H52.2876C52.7106 46.9837 53.0576 47.3183 53.0576 47.726V51.5734C53.0467 51.9811 52.6997 52.3156 52.2768 52.3156ZM33.1154 50.8311H51.5069V48.4787H33.1154V50.8311V50.8311Z" fill="white"></path><path d="M53.6972 48.5415H33.755C33.3321 48.5415 32.9851 48.2069 32.9851 47.7992V43.9519C32.9851 43.5441 33.3321 43.2096 33.755 43.2096H53.6972C54.1201 43.2096 54.4671 43.5441 54.4671 43.9519V47.7992C54.4671 48.2069 54.1201 48.5415 53.6972 48.5415ZM34.525 47.0465H52.9164V44.6941H34.525V47.0465Z" fill="white"></path><path d="M52.9166 44.6942H32.9744C32.5515 44.6942 32.2045 44.3596 32.2045 43.9519V40.1045C32.2045 39.6968 32.5515 39.3622 32.9744 39.3622H52.9166C53.3395 39.3622 53.6865 39.6968 53.6865 40.1045V43.9519C53.6973 44.3596 53.3503 44.6942 52.9166 44.6942ZM33.7552 43.2096H52.1466V40.8573H33.7552V43.2096Z" fill="white"></path><path d="M53.6972 40.8468H33.755C33.3321 40.8468 32.9851 40.5122 32.9851 40.1045V36.2571C32.9851 35.8494 33.3321 35.5148 33.755 35.5148H53.6972C54.1201 35.5148 54.4671 35.8494 54.4671 36.2571V40.1045C54.4671 40.5227 54.1201 40.8468 53.6972 40.8468ZM34.525 39.3622H52.9164V37.0099H34.525V39.3622Z" fill="white"></path><path d="M27.9646 52.3156H8.03324C7.61032 52.3156 7.26331 51.9811 7.26331 51.5734V47.726C7.26331 47.3183 7.61032 46.9837 8.03324 46.9837H27.9754C28.3983 46.9837 28.7453 47.3183 28.7453 47.726V51.5734C28.7345 51.9811 28.3983 52.3156 27.9646 52.3156ZM8.80316 50.8311H27.1946V48.4787H8.80316V50.8311Z" fill="white"></path><path d="M27.1947 48.4684H7.26333C6.84042 48.4684 6.49341 48.1338 6.49341 47.7261V44.0251C6.49341 43.6174 6.84042 43.2828 7.26333 43.2828H27.2055C27.6284 43.2828 27.9754 43.6174 27.9754 44.0251V47.7261C27.9646 48.1338 27.6176 48.4684 27.1947 48.4684ZM8.03327 46.9838H26.4247V44.7674H8.03327V46.9838Z" fill="white"></path><path d="M59.2301 55.9999H0.769925C0.347008 55.9999 0 55.6654 0 55.2576C0 54.8499 0.347008 54.5154 0.769925 54.5154H59.2301C59.653 54.5154 60 54.8499 60 55.2576C60 55.6654 59.653 55.9999 59.2301 55.9999Z" fill="white"></path></svg>