<svg width="36" height="36" viewBox="0 0 36 36" fill="none" xmlns="http://www.w3.org/2000/svg">
<path d="M15.2999 26.0999V16.6496M20.7 26.0999V16.6496M26.1001 26.0999V16.6496M5.84961 31.5H30.1502M9.89972 26.0999V16.6496M16.8105 4.77607C17.1807 4.59444 17.5876 4.5 17.9999 4.5C18.4123 4.5 18.8191 4.59444 19.1893 4.77607L29.7736 9.96831C29.9106 10.0355 30.0209 10.1471 30.0864 10.285C30.1518 10.4229 30.1686 10.5789 30.134 10.7276C30.0994 10.8762 30.0154 11.0088 29.8957 11.1036C29.7761 11.1984 29.6279 11.2498 29.4752 11.2495H6.52463C6.3721 11.2495 6.22407 11.1978 6.10466 11.1029C5.98525 11.008 5.90149 10.8755 5.86705 10.7269C5.8326 10.5783 5.84949 10.4225 5.91497 10.2847C5.98045 10.1469 6.09065 10.0354 6.22762 9.96831L16.8105 4.77607Z" stroke="#0077FF" stroke-width="2.5" stroke-linecap="round" stroke-linejoin="round"/>
</svg>
