<svg width="36" height="36" viewBox="0 0 36 36" fill="none" xmlns="http://www.w3.org/2000/svg">
<path d="M27.5303 19.3039L31.2828 15.6499C31.3788 15.5568 31.4468 15.4386 31.479 15.3088C31.5112 15.1789 31.5063 15.0427 31.465 14.9155C31.4237 14.7883 31.3475 14.6752 31.2452 14.5891C31.1428 14.503 31.0184 14.4473 30.886 14.4283L23.9128 13.4092C23.4532 13.3445 23.0165 13.1678 22.6411 12.8948C22.2657 12.6218 21.9631 12.2608 21.7598 11.8434L18.6418 5.52629C18.5825 5.40684 18.491 5.30633 18.3776 5.23612C18.2643 5.1659 18.1335 5.12877 18.0002 5.12891C17.8668 5.12905 17.7362 5.16646 17.623 5.23691C17.5097 5.30736 17.4185 5.40806 17.3594 5.52764L14.2427 11.8434C14.0392 12.2611 13.7362 12.6223 13.3603 12.8954C12.9844 13.1684 12.5472 13.3449 12.0871 13.4092L5.11525 14.4283C4.98256 14.4471 4.85782 14.5027 4.75522 14.5889C4.65262 14.6751 4.57629 14.7884 4.53493 14.9159C4.49357 15.0433 4.48884 15.1798 4.52128 15.3099C4.55371 15.4399 4.62201 15.5582 4.7184 15.6513L9.76132 20.5606C10.0963 20.8832 10.3468 21.2833 10.4906 21.7257C10.6344 22.168 10.6672 22.6389 10.5861 23.0969L9.39822 30.0336C9.37526 30.1653 9.38967 30.3008 9.4398 30.4247C9.48994 30.5486 9.57379 30.656 9.68186 30.7347C9.78993 30.8134 9.91788 30.8603 10.0512 30.8699C10.1846 30.8796 10.3179 30.8517 10.4362 30.7895L16.6683 27.5121L16.7048 27.4932M22.0501 26.7265L24.7497 29.4262L30.149 24.0269" stroke="#0077FF" stroke-width="2.5" stroke-linecap="round" stroke-linejoin="round"/>
</svg>
