<svg width="196" height="22" viewBox="0 0 196 22" fill="none" xmlns="http://www.w3.org/2000/svg">
<path d="M10.82 21C9 21 7.42 20.71 6.08 20.13C4.74 19.53 3.6 18.72 2.66 17.7C1.84 16.8 1.2 15.77 0.74 14.61C0.28 13.45 0.05 12.2 0.05 10.86C0.05 9.38 0.34 8 0.92 6.72C1.5 5.44 2.3 4.33 3.32 3.39C4.22 2.55 5.28 1.9 6.5 1.44C7.74 0.959999 9.18 0.719998 10.82 0.719998H21.77V6.09H10.82C9.9 6.09 9.14 6.21 8.54 6.45C7.94 6.69 7.42 7.01 6.98 7.41C6.52 7.85 6.15 8.37 5.87 8.97C5.61 9.57 5.48 10.21 5.48 10.89C5.48 11.51 5.59 12.1 5.81 12.66C6.03 13.2 6.34 13.68 6.74 14.1C7.18 14.58 7.73 14.98 8.39 15.3C9.05 15.6 9.86 15.75 10.82 15.75H16.01C16.27 15.75 16.4 15.61 16.4 15.33V9.9H21.8V19.71C21.8 20.57 21.37 21 20.51 21H10.82ZM45.9992 0.719998V6.09H30.5792C30.2592 6.09 30.0992 6.26 30.0992 6.6V8.91H45.9092V12.81H30.0992V15.27C30.0992 15.63 30.2592 15.81 30.5792 15.81H45.9992V21H27.5192C25.6192 21 24.6692 20.06 24.6692 18.18V3.45C24.6692 1.63 25.6292 0.719998 27.5492 0.719998H45.9992ZM70.8969 0.719998V6.09H62.0169V21H56.5569V6.09H47.6469V0.719998H70.8969ZM72.6734 1.62C72.5934 1.46 72.5234 1.31 72.4634 1.17C72.4234 1.03 72.3834 0.879999 72.3434 0.719998H78.7634C78.8234 0.979998 78.8934 1.22 78.9734 1.44L85.0334 15.45C85.1334 15.67 85.2534 15.83 85.3934 15.93C85.5534 16.03 85.7234 16.08 85.9034 16.08C86.0834 16.08 86.2434 16.04 86.3834 15.96C86.5234 15.86 86.6434 15.69 86.7434 15.45L92.7434 1.44C92.8434 1.22 92.9234 0.979998 92.9834 0.719998H99.3134C99.2734 0.879999 99.2234 1.03 99.1634 1.17C99.1234 1.31 99.0634 1.46 98.9834 1.62L91.7234 17.7C91.1434 18.96 90.3834 19.9 89.4434 20.52C88.5034 21.12 87.3134 21.42 85.8734 21.42C83.0734 21.42 81.1134 20.18 79.9934 17.7L72.6734 1.62ZM106.947 0.719998V21H101.487V0.719998H106.947ZM131.192 6.09H116.612C116.272 6.09 116.002 6.13 115.802 6.21C115.622 6.27 115.472 6.36 115.352 6.48C115.072 6.76 114.932 7.11 114.932 7.53C114.932 7.97 115.102 8.33 115.442 8.61C115.562 8.71 115.702 8.79 115.862 8.85C116.042 8.89 116.292 8.91 116.612 8.91H125.522C126.662 8.91 127.622 9.08 128.402 9.42C129.202 9.74 129.872 10.18 130.412 10.74C130.952 11.3 131.372 11.94 131.672 12.66C131.992 13.38 132.152 14.14 132.152 14.94C132.152 15.68 132.012 16.39 131.732 17.07C131.472 17.75 131.112 18.36 130.652 18.9C130.092 19.54 129.392 20.05 128.552 20.43C127.732 20.81 126.722 21 125.522 21H109.802V15.81H124.562C124.982 15.81 125.302 15.77 125.522 15.69C125.762 15.59 125.952 15.46 126.092 15.3C126.312 15.04 126.422 14.73 126.422 14.37C126.422 13.93 126.282 13.57 126.002 13.29C125.862 13.13 125.682 13.02 125.462 12.96C125.262 12.88 124.962 12.84 124.562 12.84H116.312C114.952 12.84 113.852 12.68 113.012 12.36C112.192 12.02 111.512 11.57 110.972 11.01C110.432 10.45 110.012 9.82 109.712 9.12C109.412 8.4 109.262 7.62 109.262 6.78C109.262 5.96 109.412 5.19 109.712 4.47C110.032 3.75 110.462 3.11 111.002 2.55C111.542 1.99 112.222 1.55 113.042 1.23C113.862 0.889998 114.952 0.719998 116.312 0.719998H131.192V6.09ZM139.818 0.719998V21H134.358V0.719998H139.818ZM153.174 21C151.354 21 149.774 20.71 148.434 20.13C147.094 19.53 145.954 18.72 145.014 17.7C144.194 16.8 143.554 15.77 143.094 14.61C142.634 13.45 142.404 12.2 142.404 10.86C142.404 9.38 142.694 8 143.274 6.72C143.854 5.44 144.654 4.33 145.674 3.39C146.574 2.55 147.634 1.9 148.854 1.44C150.094 0.959999 151.534 0.719998 153.174 0.719998H157.434C159.074 0.719998 160.504 0.959999 161.724 1.44C162.964 1.9 164.034 2.55 164.934 3.39C165.954 4.33 166.754 5.44 167.334 6.72C167.914 8 168.204 9.38 168.204 10.86C168.204 12.2 167.974 13.45 167.514 14.61C167.054 15.77 166.414 16.8 165.594 17.7C164.654 18.72 163.514 19.53 162.174 20.13C160.834 20.71 159.254 21 157.434 21H153.174ZM153.174 6.09C152.254 6.09 151.494 6.21 150.894 6.45C150.294 6.69 149.774 7.01 149.334 7.41C148.874 7.85 148.504 8.37 148.224 8.97C147.964 9.57 147.834 10.21 147.834 10.89C147.834 11.51 147.944 12.1 148.164 12.66C148.384 13.2 148.694 13.68 149.094 14.1C149.534 14.58 150.084 14.96 150.744 15.24C151.404 15.52 152.214 15.66 153.174 15.66H157.434C158.394 15.66 159.204 15.52 159.864 15.24C160.524 14.96 161.074 14.58 161.514 14.1C161.914 13.68 162.224 13.2 162.444 12.66C162.664 12.1 162.774 11.51 162.774 10.89C162.774 10.21 162.634 9.57 162.354 8.97C162.094 8.37 161.734 7.85 161.274 7.41C160.834 7.01 160.314 6.69 159.714 6.45C159.114 6.21 158.354 6.09 157.434 6.09H153.174ZM195.973 17.07C195.973 17.83 195.863 18.49 195.643 19.05C195.443 19.59 195.163 20.04 194.803 20.4C194.463 20.74 194.063 20.99 193.603 21.15C193.143 21.33 192.663 21.42 192.163 21.42C191.303 21.42 190.543 21.29 189.883 21.03C189.243 20.79 188.683 20.39 188.203 19.83L177.073 6.96C176.913 6.78 176.753 6.69 176.593 6.69C176.453 6.69 176.333 6.74 176.233 6.84C176.133 6.94 176.083 7.08 176.083 7.26V21H170.743V5.01C170.743 4.15 170.853 3.42 171.073 2.82C171.313 2.22 171.643 1.73 172.063 1.35C172.483 0.969999 172.983 0.699999 173.563 0.539999C174.143 0.359999 174.773 0.269999 175.453 0.269999C176.413 0.269999 177.223 0.419999 177.883 0.719998C178.543 1.02 179.193 1.54 179.833 2.28L189.733 14.13C189.813 14.23 189.893 14.3 189.973 14.34C190.053 14.36 190.143 14.37 190.243 14.37C190.523 14.37 190.663 14.19 190.663 13.83V0.719998H195.973V17.07Z" fill="url(#paint0_linear_4741_774)"/>
<defs>
<linearGradient id="paint0_linear_4741_774" x1="104.414" y1="20.1339" x2="101.751" y2="-7.01024" gradientUnits="userSpaceOnUse">
<stop offset="0.303204" stop-color="#003687"/>
<stop offset="1" stop-color="#0077FF"/>
</linearGradient>
</defs>
</svg>
