<?xml version="1.0" encoding="UTF-8"?> <svg xmlns="http://www.w3.org/2000/svg" width="147" height="37" viewBox="0 0 147 37" fill="none"> <path fill-rule="evenodd" clip-rule="evenodd" d="M0 0H37V37H0V0ZM2.775 2.775V34.225H34.225V2.775H2.775Z" fill="black"></path> <path fill-rule="evenodd" clip-rule="evenodd" d="M23.6315 22.9702L30.2016 28.1571L34.78 24.7234L36.445 26.9434L30.1582 31.6584L26.4065 28.6966V35.612H23.6315V22.9702Z" fill="black"></path> <path fill-rule="evenodd" clip-rule="evenodd" d="M6.81999 5.97656H12.0103V13.9125H1.38745V11.1375H9.23527V8.75156H6.81999V5.97656Z" fill="black"></path> <path d="M56.6406 23.3516C56.1094 23.9036 55.2292 24.1797 54 24.1797C52.2865 24.1797 51.0234 23.6771 50.2109 22.6719C49.4036 21.6615 49 20.3021 49 18.5938C49 16.9375 49.3932 15.6172 50.1797 14.6328C51.0651 13.5495 52.3646 13.0078 54.0781 13.0078C56.6719 13.0078 58.0417 14.0677 58.1875 16.1875H55.9922C55.9661 15.4115 55.3281 15.0182 54.0781 15.0078C52.7292 15.0078 51.8828 15.5599 51.5391 16.6641C51.1953 17.763 51.1562 18.9583 51.4219 20.25C51.6875 21.5365 52.5729 22.1797 54.0781 22.1797C55.4896 22.1797 56.1953 21.5599 56.1953 20.3203V19.5703H53.9766V17.8047H58.4219V24.2109H56.8203L56.6406 23.3516Z" fill="black"></path> <path d="M64.1797 18.3047C63.862 18.1484 63.4635 18.0703 62.9844 18.0703C62 18.1224 61.4505 18.6406 61.3359 19.625V24.2031H59.1875V16.2188H61.3359V17.0703C61.6953 16.5026 62.2083 16.2188 62.875 16.2188C63.4427 16.2188 63.8776 16.2969 64.1797 16.4531V18.3047Z" fill="black"></path> <path d="M66.9297 20.9531C66.9297 21.349 67.0703 21.7005 67.3516 22.0078C67.6328 22.3099 68.0833 22.4609 68.7031 22.4609C69.526 22.4609 70 22.1562 70.125 21.5469H72.2031C72.1667 22.3542 71.7786 23.0339 71.0391 23.5859C70.4193 24.0078 69.6719 24.2188 68.7969 24.2188C67.4271 24.2188 66.4089 23.8828 65.7422 23.2109C65.0807 22.5339 64.75 21.5625 64.75 20.2969C64.75 19.0365 65.0807 18.0417 65.7422 17.3125C66.4089 16.5833 67.3438 16.2188 68.5469 16.2188C69.7552 16.2188 70.6771 16.5703 71.3125 17.2734C71.9531 17.9766 72.2734 18.8698 72.2734 19.9531V20.9531H66.9297ZM70.1562 19.4375C70.1562 19.0365 70.0156 18.6953 69.7344 18.4141C69.4531 18.1276 69.0599 17.9844 68.5547 17.9844C68.0547 17.9844 67.6641 18.1276 67.3828 18.4141C67.1016 18.6953 66.9609 19.0365 66.9609 19.4375H70.1562Z" fill="black"></path> <path d="M76.625 16.2266C77.6562 16.2266 78.4583 16.4844 79.0312 17C79.6094 17.5104 79.9427 18.2474 80.0312 19.2109H77.875C77.8542 18.4349 77.4635 18.026 76.7031 17.9844C75.5625 17.9896 74.9635 18.7344 74.9062 20.2188C74.9115 21.7083 75.4896 22.4557 76.6406 22.4609C77.401 22.4609 77.8177 22.026 77.8906 21.1562H80.0469C79.9583 22.1198 79.612 22.8724 79.0078 23.4141C78.4089 23.9505 77.5938 24.2188 76.5625 24.2188C75.349 24.2188 74.4089 23.8568 73.7422 23.1328C73.0807 22.4036 72.75 21.4323 72.75 20.2188C72.75 19.0625 73.0938 18.1094 73.7812 17.3594C74.474 16.6042 75.4219 16.2266 76.625 16.2266Z" fill="black"></path> <path d="M82.6328 24.2031H80.4844V13.0156H82.6328V17.0703C82.9922 16.5026 83.7318 16.2188 84.8516 16.2188C86.9505 16.2188 88 17.3698 88 19.6719V24.2031H85.7734V19.6719C85.7734 18.6302 85.2917 18.1094 84.3281 18.1094C83.3125 18.1094 82.7474 18.6146 82.6328 19.625V24.2031Z" fill="black"></path> <path d="M90.6875 22.2031V24.2031H88.5391V13.0156H90.6875V18.8594L92.9219 16.2188H95.5391L93.125 19.2891L96 24.2031H93.3828L91.6875 20.9375L90.6875 22.2031Z" fill="black"></path> <path d="M101.086 23.5312C100.716 24 100.036 24.2344 99.0469 24.2344C98.0156 24.2344 97.2552 24.0234 96.7656 23.6016C96.276 23.1797 96.0312 22.5938 96.0312 21.8438C96.0312 21.25 96.25 20.7005 96.6875 20.1953C97.125 19.6849 97.9688 19.401 99.2188 19.3438C100.203 19.3438 100.695 19.1198 100.695 18.6719C100.695 18.2396 100.328 18.0026 99.5938 17.9609C98.8229 18.0026 98.4375 18.3073 98.4375 18.875H96.3438C96.3438 18.0156 96.6146 17.3568 97.1562 16.8984C97.6979 16.4349 98.4844 16.2031 99.5156 16.2031C100.547 16.2031 101.372 16.4141 101.992 16.8359C102.612 17.2578 102.922 18.026 102.922 19.1406V21.6953C102.922 22.2005 103.029 22.4531 103.242 22.4531C103.346 22.4531 103.451 22.4479 103.555 22.4375V24.1562C103.471 24.1875 103.216 24.2031 102.789 24.2031C101.81 24.2031 101.242 23.9792 101.086 23.5312ZM100.711 20.6641C100.435 20.8151 100.044 20.8906 99.5391 20.8906C99.1172 20.9219 98.7891 21.0182 98.5547 21.1797C98.3203 21.3411 98.2031 21.5599 98.2031 21.8359C98.2031 22.0703 98.3021 22.25 98.5 22.375C98.7031 22.4948 99.026 22.5547 99.4688 22.5547C100.276 22.5547 100.69 22.2057 100.711 21.5078V20.6641Z" fill="black"></path> <path d="M112.312 24.2109L110.078 16.2812V24.2109H107.773V13H111.016L113.438 20.9219L115.852 13H119.094V24.2109H116.789V16.2812L114.555 24.2109H112.312Z" fill="black"></path> <path d="M122.117 20.9531C122.117 21.349 122.258 21.7005 122.539 22.0078C122.82 22.3099 123.271 22.4609 123.891 22.4609C124.714 22.4609 125.188 22.1562 125.312 21.5469H127.391C127.354 22.3542 126.966 23.0339 126.227 23.5859C125.607 24.0078 124.859 24.2188 123.984 24.2188C122.615 24.2188 121.596 23.8828 120.93 23.2109C120.268 22.5339 119.938 21.5625 119.938 20.2969C119.938 19.0365 120.268 18.0417 120.93 17.3125C121.596 16.5833 122.531 16.2188 123.734 16.2188C124.943 16.2188 125.865 16.5703 126.5 17.2734C127.141 17.9766 127.461 18.8698 127.461 19.9531V20.9531H122.117ZM125.344 19.4375C125.344 19.0365 125.203 18.6953 124.922 18.4141C124.641 18.1276 124.247 17.9844 123.742 17.9844C123.242 17.9844 122.852 18.1276 122.57 18.4141C122.289 18.6953 122.148 19.0365 122.148 19.4375H125.344Z" fill="black"></path> <path d="M133.242 18.8594C133.049 18.2135 132.578 17.8906 131.828 17.8906C131.229 17.8906 130.799 18.1068 130.539 18.5391C130.279 18.9661 130.148 19.526 130.148 20.2188C130.148 21.0156 130.305 21.5911 130.617 21.9453C130.93 22.2943 131.333 22.4688 131.828 22.4688C132.547 22.4688 133.018 22.1276 133.242 21.4453V18.8594ZM133.266 13.0156H135.414V24.2031H133.266V23.6875C132.906 24.0469 132.349 24.2266 131.594 24.2266C130.469 24.2266 129.583 23.862 128.938 23.1328C128.297 22.4036 127.977 21.4323 127.977 20.2188C127.977 19.0104 128.297 18.0417 128.938 17.3125C129.583 16.5833 130.443 16.2188 131.516 16.2188C132.323 16.2188 132.906 16.4245 133.266 16.8359V13.0156Z" fill="black"></path> <path d="M136.148 16.2266H138.336V24.2031H136.148V16.2266ZM136.148 13.0156H138.336V15.0312H136.148V13.0156Z" fill="black"></path> <path d="M144.055 23.5312C143.685 24 143.005 24.2344 142.016 24.2344C140.984 24.2344 140.224 24.0234 139.734 23.6016C139.245 23.1797 139 22.5938 139 21.8438C139 21.25 139.219 20.7005 139.656 20.1953C140.094 19.6849 140.938 19.401 142.188 19.3438C143.172 19.3438 143.664 19.1198 143.664 18.6719C143.664 18.2396 143.297 18.0026 142.562 17.9609C141.792 18.0026 141.406 18.3073 141.406 18.875H139.312C139.312 18.0156 139.583 17.3568 140.125 16.8984C140.667 16.4349 141.453 16.2031 142.484 16.2031C143.516 16.2031 144.341 16.4141 144.961 16.8359C145.581 17.2578 145.891 18.026 145.891 19.1406V21.6953C145.891 22.2005 145.997 22.4531 146.211 22.4531C146.315 22.4531 146.419 22.4479 146.523 22.4375V24.1562C146.44 24.1875 146.185 24.2031 145.758 24.2031C144.779 24.2031 144.211 23.9792 144.055 23.5312ZM143.68 20.6641C143.404 20.8151 143.013 20.8906 142.508 20.8906C142.086 20.9219 141.758 21.0182 141.523 21.1797C141.289 21.3411 141.172 21.5599 141.172 21.8359C141.172 22.0703 141.271 22.25 141.469 22.375C141.672 22.4948 141.995 22.5547 142.438 22.5547C143.245 22.5547 143.659 22.2057 143.68 21.5078V20.6641Z" fill="black"></path> </svg> 