<?xml version="1.0" encoding="UTF-8" standalone="no"?>
<svg
   width="156.00011"
   height="76.939301"
   viewBox="0 0 156.00011 76.939301"
   version="1.1"
   id="svg1"
   xmlns="http://www.w3.org/2000/svg"
   xmlns:svg="http://www.w3.org/2000/svg"
   xmlns:rdf="http://www.w3.org/1999/02/22-rdf-syntax-ns#"
   xmlns:cc="http://creativecommons.org/ns#"
   xmlns:dc="http://purl.org/dc/elements/1.1/">
  <defs
     id="defs1" />
  <title
     id="title1">Logo / Colour</title>
  <g
     id="Logo-/-Colour"
     stroke="none"
     stroke-width="1"
     fill="none"
     fill-rule="evenodd"
     transform="translate(0,-40)">
    <path
       d="m 66.962132,44.808707 2.985332,0.04106 2.985332,0.04106 0.03915,7.280005 0.0393,7.279853 1.143949,-0.559289 c 1.558116,-0.761882 2.855186,-1.073121 4.823843,-1.157522 1.347858,-0.05788 1.916356,-0.01061 3.002413,0.249112 4.937663,1.18116 8.031072,5.279989 8.359534,11.076536 0.32166,5.675628 -2.226226,10.511942 -6.66568,12.652425 -3.03476,1.463305 -7.107206,1.587255 -10.583493,0.322452 v 0 L 72.0573,81.65786 69.547505,82.101533 c -1.380357,0.244112 -2.526876,0.443825 -2.547584,0.443825 -0.01967,1.44e-4 -0.03607,-7.662853 -0.03779,-17.326595 z m 8.842629,18.312294 c -0.498815,0.148952 -1.331987,0.498678 -1.851662,0.777187 l -0.944725,0.506254 v 12.345733 l 0.749583,0.323209 c 2.086558,0.899773 4.86798,1.11373 6.541127,0.503073 2.908696,-1.061756 4.654397,-3.802744 4.648397,-7.298643 -0.0056,-3.244515 -1.280943,-5.56471 -3.724078,-6.775266 -1.073057,-0.531559 -1.222248,-0.563683 -2.822386,-0.606717 -1.287245,-0.0347 -1.905171,0.01894 -2.596256,0.22517 z M 48.823103,57.919959 c 4.621899,-0.92432 9.330258,0.86977 11.705374,4.460526 1.496596,2.262462 2.235749,5.387876 1.9744,8.347973 v 0 l -0.106868,1.210101 H 45.006715 l 0.09462,0.492466 c 0.200585,1.044633 1.133217,2.639161 2.029119,3.46923 1.678437,1.555131 3.641652,2.186244 6.378786,2.050476 2.454321,-0.121526 4.801774,-0.884166 7.066545,-2.295345 v 0 l 0.642413,-0.400336 v 5.466974 l -0.793569,0.403215 c -4.398641,2.234885 -10.578354,2.384897 -14.469111,0.351242 -2.906579,-1.51937 -4.674803,-3.707736 -5.691025,-7.043319 -0.380913,-1.250559 -0.414621,-1.568161 -0.423993,-4.009881 -0.01134,-2.922821 0.209956,-4.142924 1.113416,-6.140516 1.488585,-3.290882 4.439302,-5.67684 7.869184,-6.362806 z m 0.339194,4.900562 c -1.716377,0.612628 -3.043225,1.894705 -3.753961,3.62682 -0.530612,1.293581 -1.011522,1.401762 2.882444,1.403264 l 0.285639,-6e-5 c 0.684124,-4.94e-4 1.492633,-0.0032 2.445551,-0.0032 h 5.977617 l -0.09704,-0.56823 c -0.149191,-0.87477 -0.879728,-2.355955 -1.503247,-3.047831 -0.309114,-0.343059 -1.008664,-0.844162 -1.554338,-1.113427 -0.87353,-0.431097 -1.164959,-0.495041 -2.43996,-0.535348 -1.119311,-0.03531 -1.628254,0.01864 -2.242703,0.23805 z M 0,58.28211 c 0,0.07288 1.836546,5.498492 4.0812134,12.057073 2.2446674,6.558429 4.0812135,11.955245 4.0812135,11.992824 0,0.03758 1.3344056,0.04985 2.9655311,0.02727 l 2.96553,-0.04106 0.980701,-2.803265 c 0.539476,-1.541796 1.712144,-4.945112 2.606081,-7.562756 l 1.62523,-4.759642 0.850102,2.562488 c 0.467525,1.409209 1.650473,4.828587 2.628603,7.598365 l 1.778654,5.03618 2.947543,-9.09e-4 2.947543,-7.58e-4 4.069272,-11.929789 c 2.238168,-6.561308 4.098899,-12.014948 4.135176,-12.119199 0.05124,-0.147285 -0.590718,-0.18941 -2.888894,-0.18941 -1.625079,0 -2.988205,0.05425 -3.029168,0.120616 -0.127878,0.207594 -4.418594,13.363395 -4.866016,14.920192 -0.233838,0.813401 -0.471909,1.427089 -0.528895,1.363751 -0.05698,-0.06349 -0.393308,-1.001751 -0.747315,-2.085175 -0.354008,-1.083425 -1.52592,-4.458708 -2.604268,-7.50063 -1.078498,-3.041922 -2.062071,-5.820488 -2.185867,-6.17476 l -0.225072,-0.643994 h -2.096685 c -1.842442,0 -2.113767,0.03212 -2.237412,0.265174 -0.164307,0.30942 -4.066552,11.480357 -5.005231,14.32893 -0.352042,1.067817 -0.667656,1.913797 -0.701364,1.879854 -0.03386,-0.03394 -0.404493,-1.18025 -0.823649,-2.547637 C 10.303401,70.708608 9.1089661,67.015722 8.0681055,63.8697 L 6.175934,58.149523 H 3.087967 C 1.3895776,58.149523 0,58.209225 0,58.28211 m 142.84247,30.097223 v 2.954793 h -2.19176 -2.19177 v 2.651738 2.651738 h 2.18194 2.18194 l 0.0555,6.780868 c 0.0525,6.40478 0.0738,6.84664 0.38439,7.96658 0.44365,1.59877 0.96997,2.51597 2.01975,3.51984 1.60891,1.53846 3.50274,2.13336 6.37078,2.00108 1.32125,-0.0609 1.97772,-0.17411 2.97943,-0.51338 l 1.28483,-0.43519 0.0413,-2.69446 0.0413,-2.69447 -0.60478,0.30927 c -0.90602,0.46337 -2.53609,0.80218 -3.42852,0.71278 -1.48133,-0.14834 -2.28533,-0.88022 -2.69375,-2.45172 -0.1903,-0.73294 -0.23308,-1.96016 -0.23308,-6.6992 v -5.801998 h 3.47659 3.47659 v -2.651738 -2.651738 h -3.47659 -3.47659 v -2.954793 -2.954794 h -3.0987 -3.0987 v 2.954794 M 8.8926618,91.025161 c -5.0413567,0.92038 -7.94445988,4.101253 -7.6466825,8.378582 0.1615859,2.320647 1.2691063,3.974877 3.4016159,5.080727 1.625381,0.8428 3.1996713,1.30572 6.5771018,1.93395 3.204509,0.59611 3.929755,0.84735 4.53831,1.57241 0.336322,0.40049 0.410691,0.63808 0.410691,1.31056 0,0.72855 -0.06076,0.88886 -0.538569,1.41891 -0.815487,0.90492 -1.679646,1.14691 -4.071691,1.1407 -3.283714,-0.009 -5.7144545,-0.67854 -9.4850423,-2.6137 -0.062276,-0.032 -0.113367,1.23677 -0.113367,2.81932 v 2.87752 l 1.1218802,0.46822 c 1.3156623,0.54914 3.7113346,1.15464 5.5247538,1.39663 1.9103103,0.25472 5.6719793,0.0861 7.1787033,-0.322 3.533575,-0.95705 5.836589,-3.07086 6.445294,-5.9161 0.266488,-1.24571 0.110797,-3.7091 -0.290824,-4.6022 -1.173878,-2.61022 -3.619432,-3.84942 -9.757879,-4.9442 -3.7516934,-0.66915 -4.6149457,-1.129645 -4.7348124,-2.525672 -0.087066,-1.012206 0.314858,-1.611498 1.4322036,-2.136543 0.8247075,-0.387456 0.97148,-0.405791 3.1325578,-0.390335 2.02398,0.01455 2.455681,0.06652 4.022112,0.484434 0.965282,0.257446 2.393707,0.748699 3.174277,1.091607 0.780721,0.343059 1.504607,0.660964 1.608451,0.706271 0.147377,0.0644 0.188945,-0.536105 0.188945,-2.725834 v -2.808569 l -1.247037,-0.482011 c -2.397486,-0.926896 -4.098596,-1.227224 -7.29328,-1.28738 -1.57958,-0.02985 -3.1895435,0.0038 -3.5777122,0.0747 m 56.1800192,-0.04258 c -1.753108,0.393215 -3.563202,1.237832 -4.970011,2.31868 L 59.102017,94.07011 V 92.698935 91.32791 l -3.06091,0.04091 -3.06091,0.04106 v 12.50105 12.50105 l 3.06091,0.0411 3.06091,0.0409 v -8.6327 -8.632542 l 0.683225,-0.575806 c 3.5499,-2.991917 7.861173,-3.134505 9.311364,-0.307904 0.49292,0.960686 0.576812,2.469302 0.581649,10.452692 l 0.0047,7.69004 h 3.023122 3.023121 v -8.62299 -8.623152 l 0.745048,-0.67142 c 1.633694,-1.472396 3.853572,-2.310042 5.844751,-2.205337 1.056581,0.05561 1.364637,0.135921 1.978935,0.51565 0.925982,0.572624 1.621753,1.701809 1.846825,2.996766 0.105355,0.606723 0.165365,3.793193 0.165365,8.781343 v 7.82914 h 3.098698 3.0987 v -8.62951 -8.629512 l 0.683225,-0.575806 c 1.831407,-1.543614 3.725544,-2.320497 5.643411,-2.315043 1.926784,0.0056 3.192574,0.802189 3.834214,2.413385 0.32938,0.826887 0.33603,0.983567 0.38878,9.288806 l 0.0537,8.44768 h 3.01193 3.01194 v -8.60633 -8.606324 l 0.56684,-0.537318 c 1.09724,-1.040088 2.70538,-1.923798 4.09587,-2.250492 1.28694,-0.30245 3.00997,-0.140163 3.86914,0.364727 0.739,0.433976 1.45201,1.379056 1.77805,2.356259 0.12591,0.377759 0.19468,3.004188 0.23308,8.910748 l 0.0544,8.37495 3.0526,-0.0409 3.05274,-0.0411 -0.005,-9.01591 c -0.005,-8.772857 -0.0139,-9.051669 -0.33708,-10.340716 -0.42838,-1.709538 -0.89031,-2.604461 -1.91923,-3.718494 -0.96589,-1.045997 -2.41971,-1.880158 -3.8761,-2.224429 -1.2431,-0.293661 -3.85795,-0.294116 -5.12373,-7.58e-4 -2.0004,0.463676 -4.25444,1.61059 -5.7601,2.931004 l -0.78602,0.6893 -0.24003,-0.373062 c -0.97617,-1.517248 -2.77175,-2.740229 -4.77124,-3.249818 -1.31793,-0.335785 -3.545524,-0.297752 -4.921649,0.08425 -1.969262,0.546561 -4.650619,1.969105 -5.946329,3.154659 l -0.432306,0.395487 -0.323474,-0.448068 c -1.74691,-2.419445 -3.935801,-3.415892 -7.503537,-3.415892 -1.259584,0 -2.108174,0.08622 -2.961147,0.301085 -1.612836,0.406095 -3.990672,1.610439 -5.259475,2.663709 -0.95712,0.79446 -1.053558,0.84098 -1.198819,0.578533 -0.08691,-0.156983 -0.532674,-0.680208 -0.990677,-1.162673 -0.920238,-0.969475 -2.348965,-1.763936 -3.868083,-2.15109 -0.844963,-0.215321 -3.780564,-0.297146 -4.540728,-0.126526 m -39.790773,9.708389 c 0.0591,10.25313 0.02524,9.85083 1.007153,11.95434 0.907087,1.94334 2.982611,3.51499 5.387957,4.08004 1.607545,0.3776 4.30568,0.24123 5.885261,-0.2973 1.362521,-0.46458 2.830095,-1.28632 3.938371,-2.20518 l 0.747467,-0.61975 0.04323,1.44224 0.04323,1.44239 h 3.01768 3.017679 V 103.90776 91.327913 l -3.06091,0.04091 -3.06091,0.04106 -0.03341,8.485561 -0.03325,8.485556 -0.873682,0.79583 c -1.723632,1.57043 -3.826818,2.38989 -5.847925,2.27867 -2.418799,-0.13319 -3.630466,-1.34072 -4.013949,-4.00003 -0.08374,-0.5802 -0.151912,-4.39416 -0.153575,-8.582839 l -0.003,-7.538512 h -3.030528 -3.030679 l 0.05381,9.356841 m 104.409987,3.21997 v 12.58303 l 3.06091,-0.0409 3.06091,-0.0411 V 103.91094 91.40989 l -3.06091,-0.04106 -3.06091,-0.04091 v 12.58303"
       id="type"
       fill="#0c1439" />
    <path
       d="m 130.81736,40.811873 c -0.25544,0.446575 -5.77432,9.955564 -12.2642,21.131188 l -11.79986,20.319315 12.24899,0.03839 c 6.73703,0.02114 17.77299,0.02114 24.52433,0 l 12.27549,-0.03839 -11.79158,-20.319315 C 137.52532,50.767437 132.00825,41.258448 131.7504,40.811873 L 131.2817,40 l -0.46434,0.811873"
       id="Path"
       fill="#cb1977"
       fill-rule="nonzero" />
    <path
       d="m 97.833576,67.887688 c -4.304874,7.405419 -7.953879,13.68145 -8.109149,13.946734 l -0.282473,0.482201 h 6.933573 6.933573 l 4.66841,-8.0259 c 3.60019,-6.189531 4.63901,-8.086435 4.53987,-8.290443 -0.33323,-0.685764 -6.70738,-11.571635 -6.7774,-11.574159 -0.0438,-0.0016 -3.60168,6.056148 -7.906404,13.461567"
       id="path1"
       fill="#00aca8"
       fill-rule="nonzero" />
  </g>
  <metadata
     id="metadata1">
    <rdf:RDF>
      <cc:Work
         rdf:about="">
        <dc:title>Logo / Colour</dc:title>
      </cc:Work>
    </rdf:RDF>
  </metadata>
</svg>
