<svg width="42" height="42" viewBox="0 0 42 42" fill="none" xmlns="http://www.w3.org/2000/svg">
<path d="M8 24.1139H17.45M8 5.21387H23.75M9.575 30.4139H31.625C32.4948 30.4139 33.2 31.119 33.2 31.9889V35.1389C33.2 36.0087 32.4948 36.7139 31.625 36.7139H9.575C8.70515 36.7139 8 36.0087 8 35.1389V31.9889C8 31.119 8.70515 30.4139 9.575 30.4139ZM9.575 11.5139H31.625C32.4948 11.5139 33.2 12.219 33.2 13.0889V16.2389C33.2 17.1087 32.4948 17.8139 31.625 17.8139H9.575C8.70515 17.8139 8 17.1087 8 16.2389V13.0889C8 12.219 8.70515 11.5139 9.575 11.5139Z" stroke="#0077FF" stroke-width="3" stroke-linecap="round" stroke-linejoin="round"/>
</svg>
