<svg width="28" height="18" viewBox="0 0 28 18" fill="none" xmlns="http://www.w3.org/2000/svg">
<rect width="28" height="18" rx="5" fill="#1267D8"/>
<g clip-path="url(#clip0_119_163)">
<path d="M18.4999 4L17.4999 5M17.4999 5L18.9999 6.5L17.2499 8.25L15.7499 6.75M17.4999 5L15.7499 6.75M13.6949 8.805C13.9531 9.05973 14.1583 9.36302 14.2988 9.6974C14.4392 10.0318 14.5122 10.3906 14.5134 10.7533C14.5146 11.116 14.4441 11.4753 14.3059 11.8107C14.1676 12.146 13.9644 12.4506 13.708 12.7071C13.4515 12.9635 13.1469 13.1667 12.8115 13.305C12.4762 13.4432 12.1169 13.5137 11.7542 13.5125C11.3915 13.5113 11.0327 13.4384 10.6983 13.2979C10.3639 13.1574 10.0606 12.9522 9.80589 12.694C9.30496 12.1753 9.02777 11.4807 9.03404 10.7596C9.04031 10.0386 9.32952 9.34887 9.83939 8.839C10.3493 8.32913 11.039 8.03991 11.76 8.03365C12.4811 8.02738 13.1757 8.30457 13.6944 8.8055L13.6949 8.805ZM13.6949 8.805L15.7499 6.75" stroke="white" stroke-linecap="round" stroke-linejoin="round"/>
</g>
<defs>
<clipPath id="clip0_119_163">
<rect width="12" height="12" fill="white" transform="translate(8 3)"/>
</clipPath>
</defs>
</svg>
