<svg width="52" height="33" viewBox="0 0 52 33" fill="none" xmlns="http://www.w3.org/2000/svg">
<rect x="0.0253906" width="51" height="33" rx="5" fill="#1267D8"/>
<g clip-path="url(#clip0_119_304)">
<path d="M30.5762 26.5V24.5C30.5762 23.4391 30.1547 22.4217 29.4046 21.6716C28.6545 20.9214 27.637 20.5 26.5762 20.5H18.5762C17.5153 20.5 16.4979 20.9214 15.7477 21.6716C14.9976 22.4217 14.5762 23.4391 14.5762 24.5V26.5" stroke="white" stroke-width="2" stroke-linecap="round" stroke-linejoin="round"/>
<path d="M22.5762 16.5C24.7853 16.5 26.5762 14.7091 26.5762 12.5C26.5762 10.2909 24.7853 8.5 22.5762 8.5C20.367 8.5 18.5762 10.2909 18.5762 12.5C18.5762 14.7091 20.367 16.5 22.5762 16.5Z" stroke="white" stroke-width="2" stroke-linecap="round" stroke-linejoin="round"/>
<path d="M30.7454 12.46C30.4787 12.3567 30.3987 12.1733 30.5054 11.91L32.8854 6.05C32.9854 5.83 33.1421 5.72 33.3554 5.72H33.3754C33.5921 5.73 33.7387 5.84 33.8154 6.05L36.2354 11.91C36.3421 12.1733 36.2654 12.3567 36.0054 12.46C35.7421 12.5633 35.5587 12.4867 35.4554 12.23L34.9154 10.92H31.8004L31.2854 12.23C31.1821 12.49 31.0021 12.5667 30.7454 12.46ZM32.1304 10.08H34.5704L33.3254 7.05L32.1304 10.08ZM38.1455 12.5C38.0022 12.5 37.8955 12.4667 37.8255 12.4C37.7589 12.33 37.7255 12.2233 37.7255 12.08V6.15C37.7255 6.00333 37.7589 5.89667 37.8255 5.83C37.8955 5.76333 38.0022 5.73 38.1455 5.73C38.2922 5.73 38.3989 5.76333 38.4655 5.83C38.5322 5.89667 38.5655 6.00333 38.5655 6.15V12.08C38.5655 12.2233 38.5322 12.33 38.4655 12.4C38.3989 12.4667 38.2922 12.5 38.1455 12.5Z" fill="white"/>
</g>
<defs>
<clipPath id="clip0_119_304">
<rect width="29" height="24" fill="white" transform="translate(11.0254 4.5)"/>
</clipPath>
</defs>
</svg>
