<svg width="55" height="35" viewBox="0 0 55 35" fill="none" xmlns="http://www.w3.org/2000/svg">
<rect width="55" height="35" rx="5" fill="#1267D8"/>
<path d="M34 13.4375H28.3125V11.8125H33.1875V10.1875H34.8125V12.625C34.8125 13.0741 34.4491 13.4375 34 13.4375Z" fill="white"/>
<path d="M34 16.6875H28.3125V18.3125H34V16.6875Z" fill="white"/>
<path d="M34 24.8125H32.375V23.1875H28.3125V21.5625H33.1875C33.6366 21.5625 34 21.9259 34 22.375V24.8125Z" fill="white"/>
<path d="M28.3125 11.8125H27.692C26.2622 11.8125 24.976 12.6075 24.3356 13.8866C24.1349 14.288 24.2975 14.776 24.6991 14.9768C24.8157 15.0347 24.9395 15.0625 25.0617 15.0625C25.36 15.0625 25.6464 14.8983 25.7893 14.6134C26.1519 13.8882 26.8811 13.4375 27.692 13.4375H28.3125V11.8125Z" fill="white"/>
<path d="M25.0625 6.125C22.8226 6.125 21 7.9476 21 10.1875C21 10.2997 21.0151 10.4149 21.0263 10.5293C20.8375 10.611 20.649 10.6944 20.4715 10.8056C19.5511 11.3809 18.91 12.2799 18.6664 13.3376C18.5314 13.9224 18.5387 14.5078 18.6516 15.0652C17.5582 16.1284 16.9375 17.5778 16.9375 19.1251C16.9375 21.058 17.9091 22.7666 19.3874 23.7948C19.3829 23.8633 19.375 23.9282 19.375 24.0001C19.375 26.6883 21.5618 28.8751 24.25 28.8751C26.9382 28.8751 29.125 26.6883 29.125 24.0001V10.1875C29.125 7.9476 27.3024 6.125 25.0625 6.125ZM27.5 24C27.5 25.7925 26.0425 27.25 24.25 27.25C22.659 27.25 21.3377 26.0998 21.0595 24.5883C21.5575 24.7313 22.0816 24.8125 22.625 24.8125C23.0741 24.8125 23.4375 24.4491 23.4375 24C23.4375 23.5509 23.0741 23.1875 22.625 23.1875C20.3851 23.1875 18.5625 21.3649 18.5625 19.125C18.5625 18.2286 18.8568 17.3806 19.3843 16.6871C19.7064 17.1134 20.1068 17.4881 20.5945 17.769C20.7222 17.8428 20.8619 17.8777 20.9991 17.8777C21.28 17.8777 21.5537 17.7317 21.7037 17.4707C21.9283 17.0819 21.7941 16.5852 21.4054 16.3614C20.4715 15.8227 20.0073 14.7547 20.2501 13.7025C20.3961 13.0678 20.7809 12.5282 21.3323 12.1831C21.8854 11.8379 22.536 11.7269 23.1723 11.8752C23.6095 11.9784 24.0451 11.7039 24.1466 11.2659C24.2474 10.8286 23.9745 10.3931 23.5373 10.2915C23.2343 10.2214 22.9294 10.1962 22.6255 10.1955C22.6255 10.193 22.6248 10.1901 22.6248 10.1876C22.6248 8.84346 23.7181 7.75008 25.0623 7.75008C26.4064 7.75008 27.4998 8.84346 27.4998 10.1876L27.5 24Z" fill="white"/>
<path d="M25.0625 21.5624C24.8546 21.5624 24.6467 21.4831 24.4881 21.3244C23.9088 20.7451 22.9663 20.7451 22.387 21.3244C22.0697 21.6417 21.5555 21.6417 21.2381 21.3244C20.9206 21.007 20.9207 20.4929 21.2381 20.1754C22.4505 18.963 24.4246 18.963 25.637 20.1754C25.9544 20.4928 25.9544 21.0069 25.637 21.3244C25.4783 21.4831 25.2703 21.5624 25.0625 21.5624Z" fill="white"/>
<path d="M34 11C32.6559 11 31.5625 9.90662 31.5625 8.5625C31.5625 7.21838 32.6559 6.125 34 6.125C35.3441 6.125 36.4375 7.21838 36.4375 8.5625C36.4375 9.90662 35.3441 11 34 11ZM34 7.75C33.5517 7.75 33.1875 8.11416 33.1875 8.5625C33.1875 9.01084 33.5517 9.375 34 9.375C34.4483 9.375 34.8125 9.01084 34.8125 8.5625C34.8125 8.11416 34.4483 7.75 34 7.75Z" fill="white"/>
<path d="M33.1875 28.875C31.8434 28.875 30.75 27.7816 30.75 26.4375C30.75 25.0934 31.8434 24 33.1875 24C34.5316 24 35.625 25.0934 35.625 26.4375C35.625 27.7816 34.5316 28.875 33.1875 28.875ZM33.1875 25.625C32.7392 25.625 32.375 25.9892 32.375 26.4375C32.375 26.8858 32.7392 27.25 33.1875 27.25C33.6358 27.25 34 26.8858 34 26.4375C34 25.9892 33.6358 25.625 33.1875 25.625Z" fill="white"/>
<path d="M35.625 19.9375C34.2809 19.9375 33.1875 18.8441 33.1875 17.5C33.1875 16.1559 34.2809 15.0625 35.625 15.0625C36.9691 15.0625 38.0625 16.1559 38.0625 17.5C38.0625 18.8441 36.9691 19.9375 35.625 19.9375ZM35.625 16.6875C35.1767 16.6875 34.8125 17.0517 34.8125 17.5C34.8125 17.9483 35.1767 18.3125 35.625 18.3125C36.0733 18.3125 36.4375 17.9483 36.4375 17.5C36.4375 17.0517 36.0733 16.6875 35.625 16.6875Z" fill="white"/>
</svg>
