<svg width="52" height="33" viewBox="0 0 52 33" fill="none" xmlns="http://www.w3.org/2000/svg">
<rect x="0.0253906" width="51" height="33" rx="5" fill="#1267D8"/>
<path d="M35.5254 16.5H15.5254" stroke="white" stroke-width="2" stroke-linecap="round" stroke-linejoin="round"/>
<path d="M18.9754 9.61L15.5254 16.5V22.5C15.5254 23.0304 15.7361 23.5391 16.1112 23.9142C16.4862 24.2893 16.995 24.5 17.5254 24.5H33.5254C34.0558 24.5 34.5645 24.2893 34.9396 23.9142C35.3147 23.5391 35.5254 23.0304 35.5254 22.5V16.5L32.0754 9.61C31.9098 9.27679 31.6546 8.99637 31.3383 8.80028C31.0221 8.60419 30.6575 8.5002 30.2854 8.5H20.7654C20.3933 8.5002 20.0287 8.60419 19.7124 8.80028C19.3962 8.99637 19.141 9.27679 18.9754 9.61Z" stroke="white" stroke-width="2" stroke-linecap="round" stroke-linejoin="round"/>
<path d="M19.5254 20.5H19.5354" stroke="white" stroke-width="2" stroke-linecap="round" stroke-linejoin="round"/>
<path d="M23.5254 20.5H23.5354" stroke="white" stroke-width="2" stroke-linecap="round" stroke-linejoin="round"/>
</svg>
