<svg width="28" height="18" viewBox="0 0 28 18" fill="none" xmlns="http://www.w3.org/2000/svg">
<rect width="28" height="18" rx="5" fill="#1267D8"/>
<path d="M17.5 6.8125H14.4375V5.9375H17.0625V5.0625H17.9375V6.375C17.9375 6.61681 17.7418 6.8125 17.5 6.8125Z" fill="white"/>
<path d="M17.5 8.5625H14.4375V9.4375H17.5V8.5625Z" fill="white"/>
<path d="M17.5 12.9375H16.625V12.0625H14.4375V11.1875H17.0625C17.3043 11.1875 17.5 11.3832 17.5 11.625V12.9375Z" fill="white"/>
<path d="M14.4375 5.9375H14.1033C13.3334 5.9375 12.6409 6.36559 12.2961 7.05431C12.188 7.27048 12.2756 7.53324 12.4918 7.64134C12.5546 7.67254 12.6212 7.6875 12.687 7.6875C12.8477 7.6875 13.0019 7.59908 13.0788 7.44569C13.2741 7.05518 13.6667 6.8125 14.1033 6.8125H14.4375V5.9375Z" fill="white"/>
<path d="M12.6875 2.875C11.4814 2.875 10.5 3.8564 10.5 5.0625C10.5 5.12292 10.5081 5.18496 10.5142 5.24656C10.4125 5.29052 10.311 5.33546 10.2154 5.39535C9.71985 5.7051 9.37462 6.18919 9.24346 6.75869C9.17074 7.0736 9.17468 7.38882 9.23549 7.68894C8.64671 8.26146 8.3125 9.04191 8.3125 9.87504C8.3125 10.9159 8.83566 11.8359 9.63169 12.3895C9.62924 12.4264 9.625 12.4613 9.625 12.5C9.625 13.9476 10.8025 15.125 12.25 15.125C13.6975 15.125 14.875 13.9476 14.875 12.5V5.0625C14.875 3.8564 13.8936 2.875 12.6875 2.875ZM14 12.5C14 13.4652 13.2152 14.25 12.25 14.25C11.3933 14.25 10.6818 13.6307 10.532 12.8167C10.8002 12.8938 11.0824 12.9375 11.375 12.9375C11.6168 12.9375 11.8125 12.7418 11.8125 12.5C11.8125 12.2582 11.6168 12.0625 11.375 12.0625C10.1689 12.0625 9.1875 11.0811 9.1875 9.875C9.1875 9.39231 9.34596 8.93573 9.63003 8.56228C9.80346 8.79184 10.0191 8.99357 10.2816 9.14486C10.3504 9.18458 10.4256 9.20339 10.4995 9.20339C10.6508 9.20339 10.7982 9.12477 10.8789 8.98421C10.9998 8.77486 10.9276 8.50742 10.7183 8.38693C10.2154 8.09682 9.96546 7.52177 10.0962 6.95521C10.1748 6.61344 10.382 6.32289 10.6789 6.13704C10.9767 5.95119 11.327 5.89139 11.6697 5.97127C11.9051 6.02684 12.1397 5.87901 12.1944 5.64315C12.2486 5.40773 12.1016 5.17319 11.8662 5.1185C11.7031 5.08074 11.5389 5.06718 11.3753 5.06683C11.3753 5.06547 11.3749 5.0639 11.3749 5.06254C11.3749 4.33879 11.9636 3.75004 12.6874 3.75004C13.4111 3.75004 13.9999 4.33879 13.9999 5.06254L14 12.5Z" fill="white"/>
<path d="M12.6875 11.1874C12.5755 11.1874 12.4636 11.1447 12.3782 11.0592C12.0663 10.7473 11.5587 10.7473 11.2469 11.0592C11.076 11.2301 10.7991 11.2301 10.6282 11.0592C10.4573 10.8883 10.4573 10.6115 10.6282 10.4406C11.281 9.78772 12.344 9.78772 12.9969 10.4406C13.1677 10.6114 13.1677 10.8883 12.9969 11.0592C12.9114 11.1447 12.7994 11.1874 12.6875 11.1874Z" fill="white"/>
<path d="M17.5 5.5C16.7762 5.5 16.1875 4.91126 16.1875 4.1875C16.1875 3.46374 16.7762 2.875 17.5 2.875C18.2238 2.875 18.8125 3.46374 18.8125 4.1875C18.8125 4.91126 18.2238 5.5 17.5 5.5ZM17.5 3.75C17.2586 3.75 17.0625 3.94609 17.0625 4.1875C17.0625 4.42891 17.2586 4.625 17.5 4.625C17.7414 4.625 17.9375 4.42891 17.9375 4.1875C17.9375 3.94609 17.7414 3.75 17.5 3.75Z" fill="white"/>
<path d="M17.0625 15.125C16.3387 15.125 15.75 14.5363 15.75 13.8125C15.75 13.0887 16.3387 12.5 17.0625 12.5C17.7863 12.5 18.375 13.0887 18.375 13.8125C18.375 14.5363 17.7863 15.125 17.0625 15.125ZM17.0625 13.375C16.8211 13.375 16.625 13.5711 16.625 13.8125C16.625 14.0539 16.8211 14.25 17.0625 14.25C17.3039 14.25 17.5 14.0539 17.5 13.8125C17.5 13.5711 17.3039 13.375 17.0625 13.375Z" fill="white"/>
<path d="M18.375 10.3125C17.6512 10.3125 17.0625 9.72376 17.0625 9C17.0625 8.27624 17.6512 7.6875 18.375 7.6875C19.0988 7.6875 19.6875 8.27624 19.6875 9C19.6875 9.72376 19.0988 10.3125 18.375 10.3125ZM18.375 8.5625C18.1336 8.5625 17.9375 8.75859 17.9375 9C17.9375 9.24141 18.1336 9.4375 18.375 9.4375C18.6164 9.4375 18.8125 9.24141 18.8125 9C18.8125 8.75859 18.6164 8.5625 18.375 8.5625Z" fill="white"/>
</svg>
