<svg preserveAspectRatio="none" width="100%" height="100%" overflow="visible" style="display: block;" viewBox="0 0 32 32" fill="none" xmlns="http://www.w3.org/2000/svg">
<g id="lucide/brain-cog">
<path id="Vector" d="M14.5348 19.5925L14.0241 20.8232M14.5348 12.2005L14.0241 10.9698M17.5961 19.5925L18.1054 20.8245M18.1068 10.9698L17.5961 12.2005M19.7614 14.3658L20.9921 13.8552M19.7614 17.4272L20.9921 17.9378M8.60143 8.56315C8.27827 8.00405 8.09528 7.37502 8.0681 6.72982C8.03729 5.99989 8.20699 5.27546 8.55876 4.63515C8.98611 3.85643 9.66051 3.24211 10.4756 2.88906C11.2907 2.53601 12.2001 2.46431 13.0605 2.68529C13.9208 2.90626 14.6832 3.40732 15.2273 4.10946C15.7713 4.8116 16.0662 5.67488 16.0654 6.56315C16.0654 5.94958 16.2065 5.34424 16.4779 4.79394C16.7492 4.24364 17.1435 3.76314 17.6303 3.38961C18.1171 3.01609 18.6833 2.75955 19.285 2.63984C19.8868 2.52013 20.5081 2.54047 21.1007 2.69928C21.6934 2.85808 22.2416 3.1511 22.7029 3.55566C23.1642 3.96022 23.5262 4.46547 23.761 5.03234C23.9958 5.59921 24.097 6.21249 24.0569 6.82474C24.0167 7.43699 23.8362 8.0318 23.5294 8.56315M8.0681 6.72982C7.28429 6.93144 6.55666 7.3088 5.94031 7.8333C5.32396 8.35781 4.83506 9.01571 4.51065 9.75717C4.18624 10.4986 4.03482 11.3042 4.06788 12.1128C4.10093 12.9215 4.31759 13.712 4.70143 14.4245M24.0628 6.72982C24.8466 6.93144 25.5742 7.3088 26.1906 7.8333C26.8069 8.35781 27.2958 9.01571 27.6202 9.75717C27.9446 10.4986 28.096 11.3042 28.063 12.1128C28.0299 12.9215 27.8133 13.712 27.4294 14.4245M26.0721 13.6218C27.2177 14.0871 28.166 14.9359 28.7549 16.0232C29.3437 17.1104 29.5365 18.3685 29.3003 19.5822C29.064 20.7959 28.4134 21.8898 27.4597 22.6767C26.5061 23.4637 25.3086 23.8949 24.0721 23.8965M5.44143 23.2072C5.28092 24.4308 5.54972 25.6722 6.20203 26.7198C6.85434 27.7675 7.84977 28.5564 9.01867 28.9523C10.1876 29.3482 11.4576 29.3264 12.6122 28.8908C13.7669 28.4551 14.7347 27.6325 15.3508 26.5632C15.5908 26.1485 16.5401 26.1485 16.7801 26.5632C17.3961 27.6323 18.3638 28.4547 19.5183 28.8903C20.6728 29.326 21.9426 29.3478 23.1114 28.9521C24.2801 28.5565 25.2755 27.7678 25.928 26.7205C26.5804 25.6731 26.8495 24.432 26.6894 23.2085M6.06543 13.6178C4.91728 14.0815 3.96624 14.9302 3.37541 16.0183C2.78459 17.1065 2.59081 18.3664 2.8273 19.5818C3.0638 20.7972 3.71584 21.8925 4.67158 22.6798C5.62732 23.467 6.8272 23.8972 8.06543 23.8965M12.3694 14.3658L11.1388 13.8552M12.3694 17.4272L11.1388 17.9378M20.0654 15.8965C20.0654 18.1056 18.2746 19.8965 16.0654 19.8965C13.8563 19.8965 12.0654 18.1056 12.0654 15.8965C12.0654 13.6873 13.8563 11.8965 16.0654 11.8965C18.2746 11.8965 20.0654 13.6873 20.0654 15.8965Z" stroke="var(--stroke-0, #0077FF)" stroke-width="2" stroke-linecap="round" stroke-linejoin="round"/>
</g>
</svg>
