<svg width="39" height="25" viewBox="0 0 39 25" fill="none" xmlns="http://www.w3.org/2000/svg">
<rect width="39" height="25" rx="5" fill="#1267D8"/>
<path d="M20.3478 10.9536C20.0229 10.7902 19.6294 10.9241 19.4679 11.2477C19.2686 11.6463 18.868 11.8944 18.4214 11.8944H17.5312V13.2069H18.4214C19.3686 13.2069 20.2196 12.6807 20.642 11.8335C20.8042 11.5092 20.6721 11.1151 20.3478 10.9536Z" fill="white"/>
<path d="M17.5314 6.84631H17.1456C16.1996 6.84631 15.3486 7.37184 14.9249 8.2184C14.7628 8.54206 14.8942 8.9368 15.2185 9.09896C15.3127 9.14575 15.4127 9.16819 15.5114 9.16819C15.7523 9.16819 15.9837 9.03556 16.099 8.80548C16.2983 8.40688 16.6995 8.15881 17.1456 8.15881H17.5314V6.84631Z" fill="white"/>
<path d="M23.6981 8.96256C23.7594 8.6179 23.7533 8.26162 23.6708 7.91387C23.4914 7.11403 22.9473 6.45142 22.2211 6.10341C22.223 6.06561 22.2237 6.02781 22.2237 5.98994C22.2237 4.51338 21.0253 3.31238 19.5526 3.31238C18.076 3.31238 16.875 4.51338 16.875 5.98994V14.5673C16.875 16.322 18.3029 17.7499 20.0575 17.7499C20.246 17.7499 20.4306 17.7326 20.6074 17.6993C20.7091 17.6799 20.7965 17.6337 20.8741 17.5754C20.5728 17.2553 20.3546 16.8603 20.2439 16.4205C20.182 16.4274 20.1209 16.4374 20.0576 16.4374C19.0265 16.4374 18.1876 15.5986 18.1876 14.5674V5.99001C18.1876 5.23762 18.8002 4.62494 19.5526 4.62494C20.3018 4.62494 20.9113 5.23762 20.9113 5.99001C20.9113 6.10085 20.892 6.21943 20.8542 6.34123C20.835 6.40404 20.8254 6.47583 20.8254 6.54119C20.8254 6.8514 21.0427 7.11928 21.3464 7.18333C21.8247 7.2842 22.199 7.63582 22.3479 8.0929C21.5729 7.80487 20.7041 7.77245 19.85 8.05812C19.5065 8.17217 19.3206 8.54387 19.4354 8.88801C19.5501 9.23149 19.9186 9.41865 20.2653 9.30263C21.1099 9.02254 21.9302 9.19369 22.5525 9.68968C23.1152 10.1447 23.4376 10.8202 23.4376 11.5418C23.4376 12.0244 23.2889 12.4903 23.0069 12.8889C22.946 12.9749 22.9155 13.0707 22.9005 13.1681C23.3536 13.1889 23.7745 13.3228 24.1393 13.5448C24.5352 12.9459 24.7501 12.2578 24.7501 11.5418C24.7501 10.5687 24.3715 9.65123 23.6981 8.96256Z" fill="white"/>
<path d="M15.5118 3.3125C14.0366 3.3125 12.8362 4.51285 12.8362 5.9881C12.8362 6.02924 12.8436 6.07203 12.8459 6.11344C12.1389 6.45371 11.5803 7.08823 11.3905 7.91065C11.3085 8.26653 11.3084 8.62215 11.3662 8.96386C10.6925 9.64722 10.3125 10.5645 10.3125 11.5405C10.3125 12.763 10.9131 13.8452 11.832 14.5161C11.8315 14.5344 11.8269 14.5515 11.8269 14.5699C11.8269 16.3233 13.2534 17.7499 15.0075 17.7499C16.7616 17.7499 18.1875 16.3233 18.1875 14.5699V5.9881C18.1875 4.51285 16.9871 3.3125 15.5118 3.3125ZM16.8749 14.57C16.8749 15.5999 16.0373 16.4375 15.0074 16.4375C14.1802 16.4375 13.4849 15.8935 13.24 15.1472C13.4846 15.1985 13.7377 15.2263 13.9974 15.2263C14.3601 15.2263 14.6537 14.9327 14.6537 14.57C14.6537 14.2073 14.3601 13.9138 13.9974 13.9138C12.6894 13.9138 11.6249 12.8493 11.6249 11.5406C11.6249 11.0881 11.7642 10.6626 11.9969 10.2915C12.1839 10.5005 12.4062 10.6832 12.6606 10.8299C12.7637 10.8895 12.8759 10.9177 12.9874 10.9177C13.2142 10.9177 13.4353 10.7998 13.5565 10.5889C13.7379 10.2756 13.6295 9.87375 13.3155 9.69302C12.8015 9.39633 12.5355 8.7849 12.6695 8.20557C12.838 7.47372 13.5718 7.01546 14.3037 7.18405C14.6568 7.26608 15.0093 7.04499 15.0907 6.69186C15.172 6.33873 14.9516 5.98626 14.5985 5.90488C14.4527 5.87155 14.3073 5.85914 14.1625 5.85035C14.2327 5.16411 14.8072 4.62507 15.5117 4.62507C16.2634 4.62507 16.8748 5.23643 16.8748 5.98816L16.8749 14.57Z" fill="white"/>
<path d="M13.9878 12.9807C13.7468 12.9807 13.5149 12.848 13.4002 12.6173C13.238 12.2931 13.37 11.8989 13.6943 11.7374C14.2896 11.4401 14.9991 11.4407 15.5932 11.7374C15.9175 11.8996 16.0488 12.2937 15.8867 12.618C15.724 12.9422 15.3311 13.073 15.0062 12.9115C14.78 12.798 14.5089 12.7968 14.2801 12.9115C14.1865 12.9583 14.0859 12.9807 13.9878 12.9807Z" fill="white"/>
<path d="M28.0312 21.6876C27.8633 21.6876 27.6954 21.6234 27.5672 21.4953L24.286 18.214C24.0297 17.9577 24.0297 17.5424 24.286 17.286C24.5423 17.0296 24.9576 17.0297 25.214 17.286L28.4953 20.5673C28.7516 20.8236 28.7516 21.2389 28.4953 21.4953C28.3671 21.6234 28.1991 21.6876 28.0312 21.6876Z" fill="white"/>
<path d="M22.7812 19.0625C20.9721 19.0625 19.5 17.5904 19.5 15.7812C19.5 13.9721 20.9721 12.5 22.7812 12.5C24.5904 12.5 26.0625 13.9721 26.0625 15.7812C26.0625 17.5904 24.5904 19.0625 22.7812 19.0625ZM22.7812 13.8125C21.6956 13.8125 20.8125 14.6956 20.8125 15.7812C20.8125 16.8669 21.6956 17.75 22.7812 17.75C23.8669 17.75 24.75 16.8669 24.75 15.7812C24.75 14.6956 23.8669 13.8125 22.7812 13.8125Z" fill="white"/>
</svg>
