<svg preserveAspectRatio="none" width="100%" height="100%" overflow="visible" style="display: block;" viewBox="0 0 16 16" fill="none" xmlns="http://www.w3.org/2000/svg">
<g id="lucide/play">
<path id="Vector" d="M2 3.33364C1.99993 3.09905 2.06369 2.8686 2.18484 2.66554C2.306 2.46249 2.48026 2.29404 2.69003 2.17718C2.89979 2.06033 3.13764 1.99921 3.37956 2.00001C3.62148 2.0008 3.8589 2.06348 4.06784 2.18172L12.3151 6.84674C12.5233 6.96385 12.6961 7.13189 12.8162 7.33405C12.9364 7.53621 12.9998 7.76541 13 7.99876C13.0002 8.2321 12.9373 8.46142 12.8174 8.66378C12.6976 8.86614 12.5251 9.03446 12.3172 9.15192L4.06784 13.8183C3.8589 13.9365 3.62148 13.9992 3.37956 14C3.13764 14.0008 2.89979 13.9397 2.69003 13.8228C2.48026 13.706 2.306 13.5375 2.18484 13.3345C2.06369 13.1314 1.99993 12.9009 2 12.6664V3.33364Z" stroke="var(--stroke-0, white)" stroke-width="1.25" stroke-linecap="round" stroke-linejoin="round"/>
</g>
</svg>
