<svg width="55" height="35" viewBox="0 0 55 35" fill="none" xmlns="http://www.w3.org/2000/svg">
<rect width="55" height="35" rx="5" fill="#1267D8"/>
<g clip-path="url(#clip0_122_266)">
<path d="M16.5 17.5C16.5 17.5 20.5 9.5 27.5 9.5C34.5 9.5 38.5 17.5 38.5 17.5C38.5 17.5 34.5 25.5 27.5 25.5C20.5 25.5 16.5 17.5 16.5 17.5Z" stroke="white" stroke-width="2" stroke-linecap="round" stroke-linejoin="round"/>
<path d="M27.5 20.5C29.1569 20.5 30.5 19.1569 30.5 17.5C30.5 15.8431 29.1569 14.5 27.5 14.5C25.8431 14.5 24.5 15.8431 24.5 17.5C24.5 19.1569 25.8431 20.5 27.5 20.5Z" stroke="white" stroke-width="2" stroke-linecap="round" stroke-linejoin="round"/>
</g>
<defs>
<clipPath id="clip0_122_266">
<rect width="24" height="24" fill="white" transform="translate(15.5 5.5)"/>
</clipPath>
</defs>
</svg>
