<svg preserveAspectRatio="none" width="100%" height="100%" overflow="visible" style="display: block;" viewBox="0 0 32 32" fill="none" xmlns="http://www.w3.org/2000/svg">
<g id="lucide/stethoscope">
<path id="Vector" d="M14.9997 3.55924V6.22591M6.99967 3.55924V6.22591M6.99967 4.89258H5.66634C4.9591 4.89258 4.28082 5.17353 3.78072 5.67363C3.28063 6.17372 2.99967 6.852 2.99967 7.55924V12.8926C2.99967 15.0143 3.84253 17.0491 5.34282 18.5494C6.84311 20.0497 8.87794 20.8926 10.9997 20.8926M10.9997 20.8926C13.1214 20.8926 15.1562 20.0497 16.6565 18.5494C18.1568 17.0491 18.9997 15.0143 18.9997 12.8926V7.55924C18.9997 6.852 18.7187 6.17372 18.2186 5.67363C17.7185 5.17353 17.0403 4.89258 16.333 4.89258H14.9997M10.9997 20.8926C10.9997 23.0143 11.8425 25.0491 13.3428 26.5494C14.8431 28.0497 16.8779 28.8926 18.9997 28.8926C21.1214 28.8926 23.1562 28.0497 24.6565 26.5494C26.1568 25.0491 26.9997 23.0143 26.9997 20.8926V16.8926M26.9997 16.8926C28.4724 16.8926 29.6663 15.6987 29.6663 14.2259C29.6663 12.7532 28.4724 11.5592 26.9997 11.5592C25.5269 11.5592 24.333 12.7532 24.333 14.2259C24.333 15.6987 25.5269 16.8926 26.9997 16.8926Z" stroke="var(--stroke-0, #0077FF)" stroke-width="2" stroke-linecap="round" stroke-linejoin="round"/>
</g>
</svg>
