<svg width="28" height="18" viewBox="0 0 28 18" fill="none" xmlns="http://www.w3.org/2000/svg">
<rect width="28" height="18" rx="5" fill="#1267D8"/>
<path d="M18.9166 8.50176V9.00009C18.9159 10.1682 18.5377 11.3047 17.8383 12.2402C17.1389 13.1758 16.1559 13.8602 15.0357 14.1914C13.9156 14.5226 12.7184 14.4828 11.6228 14.078C10.5271 13.6732 9.59161 12.9251 8.95586 11.9452C8.3201 10.9653 8.01814 9.80612 8.09499 8.64059C8.17185 7.47506 8.62341 6.3656 9.38232 5.47767C10.1412 4.58974 11.1668 3.97092 12.3062 3.7135C13.4455 3.45608 14.6376 3.57386 15.7045 4.04926" stroke="white" stroke-linecap="round" stroke-linejoin="round"/>
<path d="M18.9167 4.66675L13.5 10.0888L11.875 8.46383" stroke="white" stroke-linecap="round" stroke-linejoin="round"/>
</svg>
