<svg preserveAspectRatio="none" width="100%" height="100%" overflow="visible" style="display: block;" viewBox="0 0 32 32" fill="none" xmlns="http://www.w3.org/2000/svg">
<g id="lucide/tv-minimal-play">
<path id="Vector" d="M9.39583 27.5596H22.7292M20.1065 12.1462C20.2374 12.222 20.3462 12.3309 20.4217 12.4619C20.4973 12.593 20.5371 12.7416 20.5371 12.8929C20.5371 13.0442 20.4973 13.1928 20.4217 13.3239C20.3462 13.4549 20.2374 13.5638 20.1065 13.6396L14.6865 16.7756C14.5556 16.8513 14.4071 16.8912 14.2558 16.8912C14.1046 16.8912 13.9561 16.8513 13.8252 16.7756C13.6943 16.6999 13.5857 16.591 13.5103 16.4599C13.4349 16.3288 13.3954 16.1801 13.3958 16.0289V9.7569C13.3956 9.60588 13.4351 9.45745 13.5104 9.32654C13.5857 9.19564 13.6942 9.08687 13.8249 9.01119C13.9555 8.9355 14.1039 8.89557 14.2549 8.8954C14.4059 8.89524 14.5543 8.93484 14.6852 9.01024L20.1065 12.1462ZM5.39583 3.55957H26.7292C28.2019 3.55957 29.3958 4.75348 29.3958 6.22624V19.5596C29.3958 21.0323 28.2019 22.2262 26.7292 22.2262H5.39583C3.92307 22.2262 2.72917 21.0323 2.72917 19.5596V6.22624C2.72917 4.75348 3.92307 3.55957 5.39583 3.55957Z" stroke="var(--stroke-0, #0077FF)" stroke-width="2" stroke-linecap="round" stroke-linejoin="round"/>
</g>
</svg>
